<svg width="111" height="29" viewBox="0 0 111 29" fill="none" xmlns="http://www.w3.org/2000/svg">
<path d="M110.363 0.926147L98.9912 28.9261H0L11.415 0.926147H110.363ZM72.542 12.7289C71.2448 5.56509 61.5911 4.29948 58.0234 10.5736C53.4577 18.6035 62.5683 27.4322 69.9111 21.6869C71.347 20.5633 72.5557 18.7957 72.7139 16.9506H70.7754C70.7378 16.9506 70.4571 17.0091 70.4326 17.0336C68.0906 23.7482 58.7484 21.6611 59.2852 14.5062C59.7555 8.23904 68.0794 6.69504 70.1289 12.7289H72.542ZM16.4551 6.61267V23.3265H24.166L25.1562 20.7426L19.1484 20.8109L18.9668 20.6849L19.04 6.61267H16.4551ZM32.6436 6.66541L26.0186 23.3256L28.6484 23.2426L30.4219 18.598L35.5234 18.5912L36.5723 16.5219L39.3721 23.3265H41.957L35.1133 6.55017L32.6436 6.66541ZM55.0527 6.52576C54.9599 6.49365 54.8633 6.61267 54.8369 6.61267H52.6396V18.0707L44.585 6.61267H42.7324L42.8193 23.3256C43.6035 23.1646 44.4422 23.221 45.2305 23.3265L45.1875 11.6947L53.1572 23.3265H55.0527V6.52576ZM74.6094 6.52576V23.3265H83.7852C84.2874 22.5492 84.415 21.5867 84.7754 20.7416H77.0215V16.1752H83.0527L83.8281 13.6771H77.0215V9.02478H83.3975L84.1719 6.52576H74.6094ZM85.9385 6.52576L85.1211 9.11072L90.375 9.02478V23.2396H92.7881V9.02478L97.5225 9.10876L98.3018 6.52576H85.9385ZM36.3564 16.0883L31.4463 16.1742L33.8594 9.80017L36.3564 16.0883Z" fill="#AEB0B3"/>
</svg>
