<svg width="119" height="29" viewBox="0 0 119 29" fill="none" xmlns="http://www.w3.org/2000/svg">
<path d="M0.140625 28.2169V0.400565H5.17961V12.1763H18.0691V0.400565H23.1217V28.2169H18.0691V16.4004H5.17961V28.2169H0.140625Z" fill="#AEB0B3"/>
<path d="M33.7041 28.2169H28.3255L38.1183 0.400565H44.3389L54.1452 28.2169H48.7667L41.3373 6.10508H41.1199L33.7041 28.2169ZM33.8806 17.3104H48.5494V21.3579H33.8806V17.3104Z" fill="#AEB0B3"/>
<path d="M82.887 14.3087C82.887 17.3058 82.3256 19.8729 81.2028 22.0098C80.0891 24.1377 78.5679 25.7675 76.6392 26.8994C74.7196 28.0312 72.5419 28.5972 70.1062 28.5972C67.6705 28.5972 65.4883 28.0312 63.5596 26.8994C61.64 25.7585 60.1188 24.1241 58.996 21.9962C57.8822 19.8593 57.3254 17.2968 57.3254 14.3087C57.3254 11.3116 57.8822 8.74907 58.996 6.6212C60.1188 4.48427 61.64 2.84988 63.5596 1.71803C65.4883 0.586187 67.6705 0.0202637 70.1062 0.0202637C72.5419 0.0202637 74.7196 0.586187 76.6392 1.71803C78.5679 2.84988 80.0891 4.48427 81.2028 6.6212C82.3256 8.74907 82.887 11.3116 82.887 14.3087ZM77.8209 14.3087C77.8209 12.1989 77.4904 10.4197 76.8294 8.97091C76.1774 7.5131 75.2719 6.41294 74.1129 5.67045C72.9539 4.9189 71.6183 4.54313 70.1062 4.54313C68.5941 4.54313 67.2585 4.9189 66.0995 5.67045C64.9404 6.41294 64.0304 7.5131 63.3694 8.97091C62.7175 10.4197 62.3915 12.1989 62.3915 14.3087C62.3915 16.4185 62.7175 18.2023 63.3694 19.6601C64.0304 21.1089 64.9404 22.209 66.0995 22.9606C67.2585 23.703 68.5941 24.0743 70.1062 24.0743C71.6183 24.0743 72.9539 23.703 74.1129 22.9606C75.2719 22.209 76.1774 21.1089 76.8294 19.6601C77.4904 18.2023 77.8209 16.4185 77.8209 14.3087Z" fill="#AEB0B3"/>
<path d="M89.1809 0.400565H95.3472L103.605 20.5565H103.931L112.189 0.400565H118.355V28.2169H113.52V9.10674H113.262L105.575 28.1354H101.962L94.2742 9.06599H94.0161V28.2169H89.1809V0.400565Z" fill="#AEB0B3"/>
</svg>
