<svg width="172" height="29" viewBox="0 0 172 29" fill="none" xmlns="http://www.w3.org/2000/svg">
<path d="M4.41127 16.011C4.96065 17.9332 6.45021 18.8942 8.88002 18.8942C10.4435 18.8942 11.6266 18.383 12.4295 17.3606L15.7256 19.2009C14.162 21.389 11.8591 22.4829 8.81659 22.4829C6.19668 22.4829 4.09437 21.7162 2.50978 20.1825C0.925159 18.6489 0.132812 16.7165 0.132812 14.3854C0.132812 12.0748 0.914603 10.1526 2.47813 8.61896C4.04159 7.06493 6.04876 6.28789 8.49963 6.28789C10.8238 6.28789 12.7359 7.06493 14.236 8.61896C15.7573 10.1731 16.5179 12.0951 16.5179 14.3854C16.5179 14.8966 16.465 15.4385 16.3594 16.011H4.41127ZM4.34791 12.9437H12.4295C12.1971 11.9009 11.7112 11.1239 10.9717 10.6127C10.2534 10.1015 9.42928 9.84585 8.49963 9.84585C7.40099 9.84585 6.49252 10.1219 5.7741 10.674C5.05574 11.2057 4.58032 11.9623 4.34791 12.9437ZM28.5946 6.28789C30.7286 6.28789 32.5457 7.07512 34.0458 8.64964C35.567 10.2037 36.3276 12.1156 36.3276 14.3854C36.3276 16.6552 35.567 18.5773 34.0458 20.1518C32.5457 21.7059 30.7286 22.4829 28.5946 22.4829C26.3762 22.4829 24.6647 21.7365 23.4604 20.2438V28.188H19.3721V6.7173H23.4604V8.52695C24.6647 7.03426 26.3762 6.28789 28.5946 6.28789ZM24.6964 17.514C25.5205 18.3115 26.5663 18.7102 27.834 18.7102C29.1017 18.7102 30.1476 18.3115 30.9716 17.514C31.8167 16.696 32.2393 15.6532 32.2393 14.3854C32.2393 13.1176 31.8167 12.085 30.9716 11.2875C30.1476 10.4695 29.1017 10.0605 27.834 10.0605C26.5663 10.0605 25.5205 10.4695 24.6964 11.2875C23.8724 12.085 23.4604 13.1176 23.4604 14.3854C23.4604 15.6532 23.8724 16.696 24.6964 17.514ZM41.2393 4.87691C40.5631 4.87691 39.9715 4.64172 39.4644 4.17146C38.9785 3.68076 38.7355 3.10812 38.7355 2.45376C38.7355 1.79941 38.9785 1.22688 39.4644 0.736181C39.9715 0.245394 40.5631 0 41.2393 0C41.9365 0 42.528 0.245394 43.014 0.736181C43.521 1.22688 43.7746 1.79941 43.7746 2.45376C43.7746 3.10812 43.521 3.68076 43.014 4.17146C42.528 4.64172 41.9365 4.87691 41.2393 4.87691ZM39.2109 22.0535V6.7173H43.2993V22.0535H39.2109ZM54.5841 22.4829C52.1964 22.4829 50.1998 21.7059 48.594 20.1518C47.0094 18.5977 46.2171 16.6756 46.2171 14.3854C46.2171 12.0951 47.0094 10.1731 48.594 8.61896C50.1998 7.06493 52.1964 6.28789 54.5841 6.28789C56.1264 6.28789 57.5315 6.64565 58.7989 7.36141C60.0669 8.07711 61.0281 9.03819 61.6832 10.2446L58.1652 12.2383C57.8481 11.6045 57.3625 11.1035 56.7074 10.7354C56.0737 10.3673 55.355 10.1832 54.5523 10.1832C53.3266 10.1832 52.3126 10.582 51.5098 11.3794C50.7069 12.1565 50.3054 13.1585 50.3054 14.3854C50.3054 15.5918 50.7069 16.5938 51.5098 17.3912C52.3126 18.1683 53.3266 18.5569 54.5523 18.5569C55.3764 18.5569 56.105 18.383 56.7393 18.0354C57.3938 17.6673 57.8799 17.1663 58.197 16.5325L61.7463 18.4955C61.049 19.7019 60.0669 20.6732 58.7989 21.4094C57.5315 22.1251 56.1264 22.4829 54.5841 22.4829ZM84.0935 6.7173H88.0878V21.3174C88.0878 23.6894 87.2736 25.499 85.6468 26.7464C84.0409 27.9937 82.0975 28.6174 79.8156 28.6174C78.1038 28.6174 76.5933 28.3005 75.2831 27.6666C73.9943 27.0326 73.0018 26.1023 72.3045 24.8753L75.7901 22.943C76.5933 24.3743 77.9776 25.09 79.9424 25.09C81.2312 25.09 82.2451 24.7629 82.9847 24.1086C83.7243 23.4542 84.0935 22.5238 84.0935 21.3174V19.6611C82.8898 21.2152 81.1999 21.9922 79.0228 21.9922C76.7837 21.9922 74.9029 21.2355 73.382 19.7224C71.882 18.1888 71.132 16.328 71.132 14.14C71.132 11.9725 71.8918 10.1219 73.4139 8.58829C74.9353 7.05463 76.804 6.28789 79.0228 6.28789C81.1999 6.28789 82.8898 7.06493 84.0935 8.61896V6.7173ZM76.4562 17.1766C77.3017 17.9536 78.3683 18.3422 79.6571 18.3422C80.9459 18.3422 82.002 17.9536 82.8267 17.1766C83.6716 16.3791 84.0935 15.3669 84.0935 14.14C84.0935 12.9335 83.6716 11.9418 82.8267 11.1648C82.002 10.3673 80.9459 9.96853 79.6571 9.96853C78.3683 9.96853 77.3017 10.3673 76.4562 11.1648C75.6321 11.9418 75.2206 12.9335 75.2206 14.14C75.2206 15.3669 75.6321 16.3791 76.4562 17.1766ZM95.8832 9.35515C96.2634 8.37353 96.8867 7.63746 97.753 7.14665C98.6402 6.65595 99.6223 6.41058 100.7 6.41058V10.8274C99.4533 10.6842 98.3335 10.9296 97.341 11.5635C96.3687 12.1975 95.8832 13.2505 95.8832 14.7228V22.0535H91.7945V6.7173H95.8832V9.35515ZM116.004 20.1518C114.377 21.7059 112.391 22.4829 110.046 22.4829C107.701 22.4829 105.715 21.7059 104.088 20.1518C102.482 18.5773 101.679 16.6552 101.679 14.3854C101.679 12.1156 102.482 10.2037 104.088 8.64964C105.715 7.07512 107.701 6.28789 110.046 6.28789C112.391 6.28789 114.377 7.07512 116.004 8.64964C117.631 10.2037 118.444 12.1156 118.444 14.3854C118.444 16.6552 117.631 18.5773 116.004 20.1518ZM106.971 17.4219C107.796 18.2194 108.821 18.6182 110.046 18.6182C111.271 18.6182 112.296 18.2194 113.12 17.4219C113.944 16.6245 114.356 15.6123 114.356 14.3854C114.356 13.1585 113.944 12.1463 113.12 11.3488C112.296 10.5514 111.271 10.1526 110.046 10.1526C108.821 10.1526 107.796 10.5514 106.971 11.3488C106.169 12.1463 105.768 13.1585 105.768 14.3854C105.768 15.6123 106.169 16.6245 106.971 17.4219ZM138.545 6.7173H142.887L137.847 22.0535H133.949L131.033 12.7598L128.118 22.0535H124.22L119.181 6.7173H123.522L126.216 16.1337L129.1 6.7173H132.967L135.851 16.1643L138.545 6.7173ZM154.154 10.5206H150.573V16.9005C150.573 17.4322 150.71 17.8207 150.985 18.0661C151.26 18.3115 151.661 18.4546 152.19 18.4955C152.717 18.5159 153.373 18.5057 154.154 18.4649V22.0535C151.343 22.3602 149.358 22.1047 148.196 21.2867C147.055 20.4688 146.485 19.0067 146.485 16.9005V10.5206H143.727V6.7173H146.485V3.61936L150.573 2.42309V6.7173H154.154V10.5206ZM165.847 6.28789C167.579 6.28789 169.006 6.85023 170.126 7.97485C171.267 9.09953 171.838 10.6536 171.838 12.6371V22.0535H167.748V13.1278C167.748 12.1055 167.464 11.3284 166.894 10.7967C166.323 10.2446 165.562 9.96853 164.612 9.96853C163.556 9.96853 162.71 10.2856 162.076 10.9194C161.442 11.5533 161.126 12.5041 161.126 13.7719V22.0535H157.037V0.582809H161.126V8.43487C162.118 7.00359 163.692 6.28789 165.847 6.28789Z" fill="#AEB0B3"/>
</svg>
