<svg width="30" height="29" viewBox="0 0 30 29" fill="none" xmlns="http://www.w3.org/2000/svg">
<g clip-path="url(#clip0_2130_4386)">
<path fill-rule="evenodd" clip-rule="evenodd" d="M6.79179 2.41158C9.13734 0.839236 11.895 0 14.716 0C18.4984 0 22.126 1.50728 24.8008 4.19029C27.4755 6.87331 28.9784 10.5123 28.9789 14.307C28.9792 17.137 28.143 19.9036 26.5761 22.2569C25.009 24.6102 22.7816 26.4445 20.1754 27.5278C17.5692 28.6111 14.7014 28.8946 11.9346 28.3428C9.16772 27.7908 6.62614 26.4282 4.63127 24.4272C2.63639 22.4261 1.2778 19.8765 0.72732 17.1009C0.176839 14.3252 0.459185 11.4481 1.53865 8.83343C2.61812 6.21875 4.44623 3.98392 6.79179 2.41158ZM17.1546 13.0178C20.0918 14.0587 21.2248 16.423 21.2248 19.9438V23.6207H9.67675V4.46144H14.7996C16.7389 4.46144 17.5497 4.80268 18.4657 5.51405C19.8002 6.56306 20.0099 8.08601 20.0099 8.84975C20.0222 9.85894 19.6689 10.8383 19.0156 11.6059C18.5245 12.2271 17.8842 12.7129 17.1546 13.0178ZM18.6088 19.5863C18.6088 15.6259 17.3454 13.4593 14.0987 13.4593V12.496H14.1185C14.6194 12.4993 15.1143 12.3871 15.5651 12.168C16.0159 11.9488 16.4105 11.6286 16.7182 11.2321C17.3148 10.5082 17.4372 9.8256 17.4651 9.21627H14.1212V8.27559H17.4363C17.3618 7.63532 17.1127 7.02807 16.7164 6.52063C15.9578 5.57454 14.8834 5.41565 14.1761 5.41565H12.2864V22.5771H14.1212V16.1675H16.5265V22.5654H18.6088V19.5863Z" fill="#AEB0B3"/>
</g>
<defs>
<clipPath id="clip0_2130_4386">
<rect width="28.6174" height="28.6174" fill="white" transform="translate(0.453125)"/>
</clipPath>
</defs>
</svg>
