<svg width="98" height="29" viewBox="0 0 98 29" fill="none" xmlns="http://www.w3.org/2000/svg">
<path d="M50.749 21.7015H52.5928V28.9261H48.7656V24.9506H39.4746V28.9261H35.6475V21.7015H36.9346C38.396 18.7978 38.6748 13.301 38.6748 9.04919V7.56287H50.749V21.7015ZM61.0488 7.21716C65.1893 7.21732 67.8681 9.49917 67.8682 15.5482V17.726H57.8818C58.0558 20.6297 59.2042 22.0472 62.2314 22.0472C64.2496 22.0472 66.4069 21.2864 67.6943 20.4222V23.7758C66.4765 24.6053 64.528 25.2962 61.8838 25.2963C56.5948 25.2963 53.6026 22.3583 53.6025 16.309C53.6025 11.0547 56.0034 7.21716 61.0488 7.21716ZM93.4092 7.21716C95.4618 7.21722 96.9925 7.56338 97.8623 8.04724V11.5385C97.0272 11.02 95.4617 10.4672 93.8613 10.4672C91.1473 10.4672 89.6505 12.4026 89.6504 16.1703C89.6504 19.7653 90.8686 22.0472 93.8262 22.0472C95.566 22.0472 96.8184 21.5974 97.8623 20.8715V24.225C96.8533 24.9507 95.4965 25.2962 93.583 25.2963C88.0504 25.2963 85.3711 22.0812 85.3711 16.2738C85.3713 10.9852 88.1204 7.21716 93.4092 7.21716ZM16.6143 24.9506H12.4033V4.17517H10.5244C7.0797 4.17522 5.27051 5.9043 5.27051 8.46228C5.2706 11.3656 6.5231 12.7136 9.09766 14.4418L11.2207 15.8597L5.09668 24.9506H0.538086L6.03613 16.8275C2.86969 14.5806 1.09473 12.4023 1.09473 8.70349C1.09493 4.07165 4.33151 0.926147 10.4902 0.926147H16.6143V24.9506ZM24.2344 14.4418H29.7666V7.56287H33.9072V24.9506H29.7666V17.6918H24.2344V24.9506H20.0938V7.56287H24.2344V14.4418ZM74.793 15.5834L80.6387 7.56287H84.8145L78.9688 15.5834L85.6143 24.9506H80.917L74.793 16.4125V24.9506H70.6523V7.56287H74.793V15.5834ZM42.2236 11.3314C42.2236 14.3388 41.9109 19.0745 40.7627 21.7015H46.6084V10.8129H42.2236V11.3314ZM60.9785 10.4672C58.9954 10.4673 57.9863 11.9188 57.8818 14.684H63.6582V14.3383C63.6582 12.1606 63.0314 10.4672 60.9785 10.4672Z" fill="#AEB0B3"/>
</svg>
