<svg width="109" height="21" viewBox="0 0 109 21" fill="none" xmlns="http://www.w3.org/2000/svg">
<path d="M99.4409 4.86328C99.4409 4.06205 99.5807 3.35399 99.8602 2.73909C100.14 2.12419 100.512 1.61178 100.978 1.20185C101.425 0.810547 101.928 0.512415 102.487 0.30745C103.065 0.102483 103.643 0 104.22 0C104.798 0 105.366 0.102483 105.925 0.30745C106.503 0.512415 107.025 0.810547 107.49 1.20185C107.938 1.61178 108.301 2.12419 108.581 2.73909C108.86 3.35399 109 4.06205 109 4.86328V15.3724C109 16.2109 108.86 16.9283 108.581 17.5246C108.301 18.1208 107.938 18.6146 107.49 19.0059C107.025 19.4159 106.503 19.7233 105.925 19.9283C105.366 20.1332 104.798 20.2357 104.22 20.2357C103.643 20.2357 103.065 20.1332 102.487 19.9283C101.928 19.7233 101.425 19.4159 100.978 19.0059C100.512 18.6146 100.14 18.1208 99.8602 17.5246C99.5807 16.9283 99.4409 16.2109 99.4409 15.3724V4.86328ZM102.292 15.3724C102.292 16.0619 102.478 16.5743 102.851 16.9097C103.242 17.2264 103.699 17.3848 104.22 17.3848C104.742 17.3848 105.189 17.2264 105.562 16.9097C105.953 16.5743 106.149 16.0619 106.149 15.3724V4.86328C106.149 4.17385 105.953 3.67075 105.562 3.35399C105.189 3.01859 104.742 2.85089 104.22 2.85089C103.699 2.85089 103.242 3.01859 102.851 3.35399C102.478 3.67075 102.292 4.17385 102.292 4.86328V15.3724Z" fill="white"/>
<path d="M90.3818 20.068V0.167679H93.2327V17.2171H98.8786V20.068H90.3818Z" fill="white"/>
<path d="M79.4316 4.86328C79.4316 4.06205 79.5714 3.35399 79.8509 2.73909C80.1304 2.12419 80.503 1.61178 80.9689 1.20185C81.4161 0.810547 81.9192 0.512415 82.4782 0.30745C83.0558 0.102483 83.6334 0 84.2111 0C84.7887 0 85.357 0.102483 85.916 0.30745C86.4936 0.512415 87.0154 0.810547 87.4812 1.20185C87.9284 1.61178 88.2918 2.12419 88.5713 2.73909C88.8507 3.35399 88.9905 4.06205 88.9905 4.86328V15.3724C88.9905 16.2109 88.8507 16.9283 88.5713 17.5246C88.2918 18.1208 87.9284 18.6146 87.4812 19.0059C87.0154 19.4159 86.4936 19.7233 85.916 19.9283C85.357 20.1332 84.7887 20.2357 84.2111 20.2357C83.6334 20.2357 83.0558 20.1332 82.4782 19.9283C81.9192 19.7233 81.4161 19.4159 80.9689 19.0059C80.503 18.6146 80.1304 18.1208 79.8509 17.5246C79.5714 16.9283 79.4316 16.2109 79.4316 15.3724V4.86328ZM82.2825 15.3724C82.2825 16.0619 82.4689 16.5743 82.8415 16.9097C83.2328 17.2264 83.6893 17.3848 84.2111 17.3848C84.7328 17.3848 85.18 17.2264 85.5527 16.9097C85.944 16.5743 86.1396 16.0619 86.1396 15.3724V4.86328C86.1396 4.17385 85.944 3.67075 85.5527 3.35399C85.18 3.01859 84.7328 2.85089 84.2111 2.85089C83.6893 2.85089 83.2328 3.01859 82.8415 3.35399C82.4689 3.67075 82.2825 4.17385 82.2825 4.86328V15.3724Z" fill="white"/>
<path d="M78.5862 5.89743H75.7353V5.25458C75.7353 4.60242 75.5769 4.04342 75.2601 3.57759C74.962 3.09312 74.4496 2.85089 73.7229 2.85089C73.3316 2.85089 73.0148 2.92542 72.7726 3.07449C72.5304 3.22355 72.3347 3.40989 72.1856 3.63349C72.0366 3.87572 71.9341 4.15522 71.8782 4.47198C71.8223 4.77011 71.7943 5.08688 71.7943 5.42228C71.7943 5.81358 71.8037 6.13966 71.8223 6.40052C71.8596 6.66139 71.9341 6.89431 72.0459 7.09927C72.1577 7.30424 72.3161 7.48125 72.521 7.63032C72.7446 7.77939 73.0428 7.92845 73.4154 8.07752L75.5955 8.94396C76.2291 9.1862 76.7415 9.47501 77.1328 9.81041C77.5241 10.1272 77.8315 10.4998 78.0551 10.9284C78.2601 11.3756 78.3998 11.888 78.4744 12.4656C78.5489 13.0246 78.5862 13.6675 78.5862 14.3942C78.5862 15.2327 78.5023 16.0153 78.3346 16.742C78.1669 17.45 77.8967 18.0556 77.5241 18.5587C77.1328 19.0805 76.6204 19.4904 75.9868 19.7885C75.3533 20.0867 74.58 20.2357 73.667 20.2357C72.9776 20.2357 72.3347 20.1146 71.7384 19.8724C71.1422 19.6301 70.6298 19.2947 70.2012 18.8662C69.7726 18.4376 69.4279 17.9438 69.1671 17.3848C68.9248 16.8072 68.8037 16.183 68.8037 15.5122V14.4501H71.6546V15.3445C71.6546 15.8662 71.8037 16.3414 72.1018 16.7699C72.4186 17.1799 72.9403 17.3848 73.667 17.3848C74.1515 17.3848 74.5241 17.3196 74.785 17.1892C75.0645 17.0401 75.2788 16.8351 75.4278 16.5743C75.5769 16.3134 75.6607 16.006 75.6794 15.6519C75.7166 15.2793 75.7353 14.8693 75.7353 14.4221C75.7353 13.9004 75.7166 13.4718 75.6794 13.1364C75.6421 12.801 75.5676 12.5309 75.4558 12.3259C75.3253 12.1209 75.1483 11.9532 74.9247 11.8228C74.7198 11.6924 74.4403 11.5526 74.0862 11.4036L72.0459 10.5651C70.8161 10.062 69.9869 9.40048 69.5584 8.58062C69.1484 7.74212 68.9435 6.69866 68.9435 5.45023C68.9435 4.7049 69.0459 3.99683 69.2509 3.32604C69.4559 2.65524 69.7633 2.07761 70.1733 1.59314C70.5646 1.10868 71.0583 0.726698 71.6546 0.447199C72.2695 0.149066 72.9962 0 73.8347 0C74.5427 0 75.1856 0.130433 75.7632 0.391298C76.3595 0.652164 76.8719 0.996879 77.3005 1.42544C78.1576 2.31984 78.5862 3.34467 78.5862 4.49993V5.89743Z" fill="white"/>
<path d="M65.5491 20.068L64.5988 18.5587C64.0398 19.1177 63.4622 19.537 62.8659 19.8165C62.2696 20.096 61.5802 20.2357 60.7976 20.2357C60.2386 20.2357 59.7076 20.1239 59.2045 19.9003C58.7014 19.6767 58.2635 19.36 57.8908 18.95C57.5181 18.5587 57.22 18.0836 56.9964 17.5246C56.7914 16.9469 56.689 16.3134 56.689 15.624C56.689 14.5246 56.9498 13.565 57.4716 12.7451C57.9933 11.9253 58.6455 11.1613 59.4281 10.4533C58.925 9.74519 58.5057 9.01849 58.1703 8.27316C57.8535 7.5092 57.6952 6.70797 57.6952 5.86947C57.6952 5.34774 57.779 4.85396 57.9467 4.38813C58.1144 3.90367 58.3566 3.48442 58.6734 3.13039C58.9902 2.79499 59.3908 2.5248 59.8752 2.31984C60.3597 2.11487 60.928 2.01239 61.5802 2.01239C62.1951 2.01239 62.7355 2.11487 63.2013 2.31984C63.6671 2.50617 64.0584 2.75772 64.3752 3.07449C65.0273 3.76392 65.3534 4.61173 65.3534 5.61793C65.3534 6.56822 65.0646 7.46262 64.487 8.30111C63.9093 9.13961 63.2292 9.91289 62.4466 10.621C62.633 10.8818 62.8193 11.18 63.0056 11.5153C63.2106 11.8507 63.4342 12.2048 63.6764 12.5774C64.1423 13.3787 64.6081 14.1147 65.0739 14.7855L66.6112 12.6892L68.372 13.919L66.2478 16.6581L68.4 20.068H65.5491ZM59.2045 15.4842C59.2045 16.1737 59.4001 16.7699 59.7914 17.273C60.2013 17.7575 60.7137 17.9997 61.3286 17.9997C61.7572 17.9997 62.1671 17.8693 62.5584 17.6084C62.9497 17.3289 63.2479 17.0587 63.4528 16.7979L60.7137 12.4377C60.2852 12.8663 59.9218 13.3321 59.6237 13.8352C59.3442 14.3197 59.2045 14.8693 59.2045 15.4842ZM60.2106 5.92537C60.2106 6.35394 60.3131 6.81977 60.5181 7.32287C60.7231 7.80733 60.9839 8.30111 61.3007 8.80421C61.4684 8.63651 61.6547 8.45018 61.8597 8.24521C62.0647 8.02161 62.251 7.77938 62.4187 7.51852C62.5864 7.25765 62.7261 6.97815 62.8379 6.68002C62.9497 6.36325 63.0056 6.02786 63.0056 5.67382C63.0056 5.31979 62.8845 4.99371 62.6423 4.69558C62.4001 4.39745 62.0647 4.24838 61.6361 4.24838C61.2075 4.24838 60.8628 4.4254 60.6019 4.77943C60.3411 5.11483 60.2106 5.49681 60.2106 5.92537Z" fill="white"/>
<path d="M49.0926 2.85087V9.05574H50.7137C51.2168 9.05574 51.6174 8.99052 51.9155 8.86009C52.2137 8.71103 52.4466 8.50606 52.6143 8.24519C52.7633 7.98433 52.8658 7.66756 52.9217 7.2949C52.9776 6.9036 53.0056 6.4564 53.0056 5.9533C53.0056 5.45021 52.9776 5.01232 52.9217 4.63966C52.8658 4.24836 52.754 3.91296 52.5863 3.63346C52.2323 3.11173 51.5615 2.85087 50.5739 2.85087H49.0926ZM46.2417 20.068V0.167679H50.8255C54.1795 0.167679 55.8565 2.11485 55.8565 6.0092C55.8565 7.1831 55.6701 8.17998 55.2975 8.99984C54.9434 9.8197 54.3099 10.4812 53.3969 10.9843L56.4714 20.068H53.4528L50.7975 11.5712H49.0926V20.068H46.2417Z" fill="white"/>
<path d="M41.7358 13.1085L40.3383 5.8974H40.2824L38.8849 13.1085H41.7358ZM34.6924 20.068L39.1364 0.167679H41.5122L45.9562 20.068H43.1053L42.2668 15.7917H38.3818L37.5433 20.068H34.6924Z" fill="white"/>
<path d="M21.5649 20.068V0.167679H24.304L27.9655 10.7048H28.0214L31.6548 0.167679H34.4219V20.068H31.571V7.96569H31.5151L28.6922 16.5184H27.2667L24.4717 7.96569H24.4158V20.068H21.5649Z" fill="white"/>
<path d="M20.0062 0.167679V15.596C20.0062 16.2482 19.8851 16.8538 19.6428 17.4128C19.4192 17.9531 19.0931 18.4376 18.6646 18.8661C18.236 19.2947 17.7422 19.6301 17.1832 19.8723C16.6242 20.1146 16.028 20.2357 15.3944 20.2357C14.7609 20.2357 14.1647 20.1146 13.6057 19.8723C13.0653 19.6301 12.5808 19.2947 12.1523 18.8661C11.7237 18.4376 11.3883 17.9531 11.1461 17.4128C10.9038 16.8538 10.7827 16.2482 10.7827 15.596V0.167679H13.6336V15.3165C13.6336 16.0246 13.8013 16.5463 14.1367 16.8817C14.4721 17.2171 14.8913 17.3848 15.3944 17.3848C15.8975 17.3848 16.3168 17.2171 16.6522 16.8817C16.9876 16.5463 17.1553 16.0246 17.1553 15.3165V0.167679H20.0062Z" fill="white"/>
<path d="M0 20.068V0.167679H2.85089V9.25139H2.90679L7.07132 0.167679H9.92221L6.03717 8.1334L10.6489 20.068H7.63032L4.38813 11.2358L2.85089 14.1147V20.068H0Z" fill="white"/>
</svg>
