<svg width="16" height="16" viewBox="0 0 16 16" fill="none" xmlns="http://www.w3.org/2000/svg">
<path fill-rule="evenodd" clip-rule="evenodd" d="M3.5 10.0024H4C4.26512 10.0027 4.5193 10.1082 4.70677 10.2957C4.89424 10.4831 4.9997 10.7373 5 11.0024V12.0024C4.9997 12.2676 4.89424 12.5217 4.70677 12.7092C4.5193 12.8967 4.26512 13.0021 4 13.0024H3.5V15.0024H2.5V13.0024H2C1.73488 13.0021 1.4807 12.8967 1.29323 12.7092C1.10576 12.5217 1.0003 12.2676 1 12.0024V11.0024C1.0003 10.7373 1.10576 10.4831 1.29323 10.2957C1.4807 10.1082 1.73488 10.0027 2 10.0024H2.5V1.00244H3.5V10.0024ZM2 12.0024H4V11.0024H2V12.0024ZM9 3.00244H8.5V1.00244H7.5V3.00244H7C6.73486 3.00269 6.48065 3.10813 6.29317 3.29561C6.10569 3.48309 6.00025 3.7373 6 4.00244V5.00244C6.00025 5.26758 6.10569 5.52179 6.29317 5.70927C6.48065 5.89675 6.73486 6.00219 7 6.00244H7.5V15.0024H8.5V6.00244H9C9.26513 6.00218 9.51934 5.89673 9.70681 5.70926C9.89429 5.52178 9.99973 5.26758 10 5.00244V4.00244C9.99973 3.73731 9.89429 3.48311 9.70681 3.29563C9.51934 3.10815 9.26513 3.00271 9 3.00244ZM9 5.00244H7V4.00244H9V5.00244ZM14 7.00244H13.5V1.00244H12.5V7.00244H12C11.7349 7.00269 11.4807 7.10813 11.2932 7.29561C11.1057 7.48309 11.0003 7.7373 11 8.00244V9.00244C11.0003 9.26756 11.1058 9.52174 11.2932 9.70921C11.4807 9.89668 11.7349 10.0021 12 10.0024H12.5V15.0024H13.5V10.0024H14C14.2651 10.0021 14.5193 9.89661 14.7067 9.70915C14.8942 9.5217 14.9996 9.26755 15 9.00244V8.00244C14.9997 7.73732 14.8942 7.48314 14.7068 7.29567C14.5193 7.1082 14.2651 7.00275 14 7.00244ZM14 9.00244H12V8.00244H14V9.00244Z" fill="#FF8002"/>
</svg>
