<svg width="16" height="16" viewBox="0 0 16 16" fill="none" xmlns="http://www.w3.org/2000/svg">
<path fill-rule="evenodd" clip-rule="evenodd" d="M8.5 12H14C14.2652 12 14.5196 12.1054 14.7071 12.2929C14.8946 12.4804 15 12.7348 15 13V15H14V13H8.5V15H7.5V13H2V15H1V13C1 12.7348 1.10536 12.4804 1.29289 12.2929C1.48043 12.1054 1.73478 12 2 12H7.5V10H4.5C4.23488 9.9997 3.9807 9.89424 3.79323 9.70677C3.60576 9.5193 3.5003 9.26512 3.5 9V2C3.50026 1.73486 3.60571 1.48066 3.79319 1.29319C3.98066 1.10571 4.23486 1.00026 4.5 1H11.5C11.7651 1.0003 12.0193 1.10576 12.2068 1.29323C12.3942 1.4807 12.4997 1.73488 12.5 2V9C12.4996 9.26511 12.3942 9.51925 12.2067 9.70671C12.0193 9.89417 11.7651 9.99964 11.5 10H8.5V12ZM11.5 2H4.5V9H11.501L11.5 2ZM6.795 3.705L7.5 3L10 5.5L7.5 8L6.795 7.295L8.585 5.5L6.795 3.705Z" fill="#FF8002"/>
</svg>
