<svg width="16" height="16" viewBox="0 0 16 16" fill="none" xmlns="http://www.w3.org/2000/svg">
<path d="M9.57 14C9.23052 14.0013 8.89832 13.9016 8.61571 13.7135C8.33311 13.5253 8.1129 13.2574 7.98313 12.9437C7.85336 12.63 7.8199 12.2847 7.88701 11.9519C7.95413 11.6192 8.11878 11.3139 8.36 11.075L10.93 8.49999C11.0058 8.43682 11.0675 8.35855 11.1113 8.27019C11.1552 8.18183 11.1801 8.0853 11.1846 7.98676C11.189 7.88823 11.1729 7.78984 11.1372 7.69789C11.1015 7.60593 11.0471 7.52241 10.9773 7.45267C10.9076 7.38292 10.8241 7.32847 10.7321 7.29279C10.6401 7.25711 10.5418 7.24098 10.4432 7.24544C10.3447 7.24989 10.2482 7.27482 10.1598 7.31865C10.0714 7.36248 9.99317 7.42424 9.93 7.49999L6.5 10.925C6.17405 11.2382 5.73954 11.4131 5.2875 11.4131C4.83546 11.4131 4.40095 11.2382 4.075 10.925C3.75502 10.6036 3.57537 10.1685 3.57537 9.71499C3.57537 9.26146 3.75502 8.82639 4.075 8.50499L8.365 4.21499C8.44075 4.15182 8.50251 4.07355 8.54634 3.98519C8.59017 3.89683 8.6151 3.8003 8.61955 3.70176C8.62401 3.60323 8.60788 3.50484 8.5722 3.41289C8.53652 3.32093 8.48207 3.23741 8.41232 3.16767C8.34258 3.09792 8.25906 3.04347 8.1671 3.00779C8.07515 2.97211 7.97676 2.95598 7.87823 2.96044C7.77969 2.96489 7.68317 2.98982 7.5948 3.03365C7.50644 3.07748 7.42817 3.13924 7.365 3.21499L3.205 7.34999L2.5 6.64999L6.645 2.49999C6.9715 2.20445 7.39918 2.04583 7.83943 2.05701C8.27968 2.06819 8.69877 2.2483 9.00985 2.56002C9.32093 2.87175 9.50018 3.2912 9.51044 3.73148C9.52071 4.17175 9.36121 4.5991 9.065 4.92499L4.78 9.20999C4.6481 9.34297 4.57408 9.52269 4.57408 9.70999C4.57408 9.89729 4.6481 10.077 4.78 10.21C4.91481 10.3384 5.09384 10.41 5.28 10.41C5.46616 10.41 5.64519 10.3384 5.78 10.21L9.21 6.77999C9.36586 6.60781 9.55506 6.46907 9.76614 6.3722C9.97722 6.27534 10.2058 6.22235 10.4379 6.21645C10.6701 6.21056 10.9011 6.25188 11.1168 6.33792C11.3325 6.42395 11.5285 6.55291 11.6929 6.71696C11.8573 6.88101 11.9867 7.07675 12.0731 7.29229C12.1596 7.50784 12.2014 7.7387 12.196 7.97088C12.1906 8.20307 12.1381 8.43173 12.0416 8.64301C11.9452 8.85429 11.8069 9.04378 11.635 9.19999L9.06 11.775C8.9465 11.9111 8.888 12.0847 8.896 12.2618C8.904 12.4388 8.97792 12.6064 9.10323 12.7318C9.22854 12.8571 9.39619 12.931 9.57323 12.939C9.75027 12.947 9.9239 12.8885 10.06 12.775L12.28 10.56L13 11.28L10.78 13.5C10.6217 13.6596 10.4332 13.7861 10.2254 13.8719C10.0176 13.9578 9.79481 14.0013 9.57 14Z" fill="#FF8002"/>
</svg>
