<svg width="40" height="40" viewBox="0 0 40 40" fill="none" xmlns="http://www.w3.org/2000/svg">
<path d="M23.75 25C26.0698 25.0027 28.2942 25.9251 29.9346 27.5654C31.5749 29.2058 32.4973 31.4302 32.5 33.75V37.5H30V33.75C29.998 32.093 29.3387 30.5047 28.167 29.333C26.9953 28.1613 25.407 27.502 23.75 27.5H16.25C14.593 27.502 13.0047 28.1613 11.833 29.333C10.6613 30.5047 10.002 32.093 10 33.75V37.5H7.5V33.75C7.50271 31.4302 8.42507 29.2058 10.0654 27.5654C11.7058 25.9251 13.9302 25.0027 16.25 25H23.75ZM35 2.5V5H28.75V13.75C28.75 16.0706 27.8284 18.2966 26.1875 19.9375C24.5466 21.5784 22.3206 22.5 20 22.5C17.6794 22.5 15.4534 21.5784 13.8125 19.9375C12.1716 18.2966 11.25 16.0706 11.25 13.75V5H5V2.5H35ZM6.25 7.5C6.58152 7.5 6.89937 7.63179 7.13379 7.86621C7.36821 8.10063 7.5 8.41848 7.5 8.75V20H5V8.75C5 8.41848 5.13179 8.10063 5.36621 7.86621C5.60063 7.63179 5.91848 7.5 6.25 7.5ZM13.75 11.25V13.75C13.75 15.4076 14.409 16.9968 15.5811 18.1689C16.7532 19.341 18.3424 20 20 20C21.6576 20 23.2468 19.341 24.4189 18.1689C25.591 16.9968 26.25 15.4076 26.25 13.75V11.25H13.75ZM13.75 5V8.75H26.25V5H13.75Z" fill="#FF8002"/>
</svg>
