<svg width="28" height="28" viewBox="0 0 28 28" fill="none" xmlns="http://www.w3.org/2000/svg">
<rect width="28" height="28" fill="white" fill-opacity="0.01"/>
<path d="M22.75 26.25H21V23.625C20.9986 22.4651 20.5373 21.3531 19.7171 20.5329C18.8969 19.7127 17.7849 19.2514 16.625 19.25H11.375C10.2151 19.2514 9.10309 19.7127 8.28292 20.5329C7.46274 21.3531 7.00137 22.4651 7 23.625V26.25H5.25V23.625C5.2519 22.0011 5.89782 20.4443 7.04607 19.2961C8.19432 18.1478 9.75113 17.5019 11.375 17.5H16.625C18.2489 17.5019 19.8057 18.1478 20.9539 19.2961C22.1022 20.4443 22.7481 22.0011 22.75 23.625V26.25Z" fill="#B3B3B3"/>
<path d="M4.375 5.25C4.14294 5.25 3.92038 5.34219 3.75628 5.50628C3.59219 5.67038 3.5 5.89294 3.5 6.125V14H5.25V6.125C5.25 5.89294 5.15781 5.67038 4.99372 5.50628C4.82962 5.34219 4.60706 5.25 4.375 5.25Z" fill="#B3B3B3"/>
<path d="M3.5 1.75V3.5H7.875V9.625C7.875 11.2495 8.52031 12.8074 9.66897 13.956C10.8176 15.1047 12.3755 15.75 14 15.75C15.6245 15.75 17.1824 15.1047 18.331 13.956C19.4797 12.8074 20.125 11.2495 20.125 9.625V3.5H24.5V1.75H3.5ZM9.625 3.5H18.375V6.125H9.625V3.5ZM14 14C12.8397 14 11.7269 13.5391 10.9064 12.7186C10.0859 11.8981 9.625 10.7853 9.625 9.625V7.875H18.375V9.625C18.375 10.7853 17.9141 11.8981 17.0936 12.7186C16.2731 13.5391 15.1603 14 14 14Z" fill="#B3B3B3"/>
</svg>
