<svg width="40" height="40" viewBox="0 0 40 40" fill="none" xmlns="http://www.w3.org/2000/svg">
<path d="M22.5 28.75C24.157 28.752 25.7453 29.4113 26.917 30.583C28.0887 31.7547 28.748 33.343 28.75 35V37.5H26.25V35C26.2489 34.0058 25.8534 33.0526 25.1504 32.3496C24.4474 31.6466 23.4942 31.2511 22.5 31.25H17.5C16.5058 31.2511 15.5526 31.6466 14.8496 32.3496C14.1466 33.0526 13.7511 34.0058 13.75 35V37.5H11.25V35C11.252 33.343 11.9113 31.7547 13.083 30.583C14.2547 29.4113 15.843 28.752 17.5 28.75H22.5ZM10 20H7.5C6.50577 20.0011 5.55263 20.3966 4.84961 21.0996C4.14658 21.8026 3.75109 22.7558 3.75 23.75V28.75H1.25V23.75C1.25195 22.093 1.91133 20.5047 3.08301 19.333C4.25469 18.1613 5.843 17.502 7.5 17.5H10V20ZM32.5 17.5C34.157 17.5019 35.7453 18.1613 36.917 19.333C38.0887 20.5047 38.7481 22.093 38.75 23.75V28.75H36.25V23.75C36.2489 22.7558 35.8534 21.8026 35.1504 21.0996C34.4474 20.3966 33.4942 20.0011 32.5 20H30V17.5H32.5ZM20 13.75C21.6576 13.75 23.2468 14.409 24.4189 15.5811C25.591 16.7532 26.25 18.3424 26.25 20C26.25 21.2361 25.883 22.4448 25.1963 23.4727C24.5095 24.5003 23.5335 25.3014 22.3916 25.7744C21.2496 26.2474 19.9926 26.371 18.7803 26.1299C17.568 25.8887 16.455 25.2929 15.5811 24.4189C14.7071 23.545 14.1113 22.432 13.8701 21.2197C13.629 20.0074 13.7526 18.7504 14.2256 17.6084C14.6986 16.4665 15.4997 15.4905 16.5273 14.8037C17.5552 14.117 18.7639 13.75 20 13.75ZM20 16.25C19.0054 16.25 18.0519 16.6454 17.3486 17.3486C16.6454 18.0519 16.25 19.0054 16.25 20C16.25 20.7415 16.4699 21.4664 16.8818 22.083C17.2938 22.6996 17.8794 23.181 18.5645 23.4648C19.2496 23.7487 20.004 23.8224 20.7314 23.6777C21.4589 23.533 22.1269 23.1758 22.6514 22.6514C23.1758 22.1269 23.533 21.4589 23.6777 20.7314C23.8224 20.004 23.7487 19.2496 23.4648 18.5645C23.181 17.8794 22.6996 17.2938 22.083 16.8818C21.4664 16.4699 20.7415 16.25 20 16.25ZM10 2.5C11.6576 2.5 13.2468 3.15895 14.4189 4.33105C15.591 5.50316 16.25 7.0924 16.25 8.75C16.25 9.98613 15.883 11.1948 15.1963 12.2227C14.5095 13.2503 13.5335 14.0514 12.3916 14.5244C11.2496 14.9974 9.99258 15.121 8.78027 14.8799C7.56805 14.6387 6.45504 14.0429 5.58105 13.1689C4.70707 12.295 4.11133 11.182 3.87012 9.96973C3.62897 8.75742 3.75261 7.50038 4.22559 6.3584C4.69857 5.21652 5.49974 4.24046 6.52734 3.55371C7.55515 2.86695 8.76387 2.5 10 2.5ZM30 2.5C31.6576 2.5 33.2468 3.15895 34.4189 4.33105C35.591 5.50316 36.25 7.0924 36.25 8.75C36.25 9.98613 35.883 11.1948 35.1963 12.2227C34.5095 13.2503 33.5335 14.0514 32.3916 14.5244C31.2496 14.9974 29.9926 15.121 28.7803 14.8799C27.568 14.6387 26.455 14.0429 25.5811 13.1689C24.7071 12.295 24.1113 11.182 23.8701 9.96973C23.629 8.75742 23.7526 7.50038 24.2256 6.3584C24.6986 5.21652 25.4997 4.24046 26.5273 3.55371C27.5552 2.86695 28.7639 2.5 30 2.5ZM10 5C9.00544 5 8.05189 5.39537 7.34863 6.09863C6.64537 6.80189 6.25 7.75544 6.25 8.75C6.25 9.49155 6.46992 10.2164 6.88184 10.833C7.29383 11.4496 7.87936 11.931 8.56445 12.2148C9.24964 12.4987 10.004 12.5724 10.7314 12.4277C11.4589 12.283 12.1269 11.9258 12.6514 11.4014C13.1758 10.8769 13.533 10.2089 13.6777 9.48145C13.8224 8.75405 13.7487 7.99965 13.4648 7.31445C13.181 6.62936 12.6996 6.04383 12.083 5.63184C11.4664 5.21993 10.7415 5 10 5ZM30 5C29.0054 5 28.0519 5.39537 27.3486 6.09863C26.6454 6.80189 26.25 7.75544 26.25 8.75C26.25 9.49155 26.4699 10.2164 26.8818 10.833C27.2938 11.4496 27.8794 11.931 28.5645 12.2148C29.2496 12.4987 30.004 12.5724 30.7314 12.4277C31.4589 12.283 32.1269 11.9258 32.6514 11.4014C33.1758 10.8769 33.533 10.2089 33.6777 9.48145C33.8224 8.75405 33.7487 7.99965 33.4648 7.31445C33.181 6.62936 32.6996 6.04383 32.083 5.63184C31.4664 5.21992 30.7415 5 30 5Z" fill="#FF8002"/>
</svg>
