<svg width="40" height="40" viewBox="0 0 40 40" fill="none" xmlns="http://www.w3.org/2000/svg">
<path d="M32.5 12.5002H29.0479C29.8615 11.2977 30.1771 9.82652 29.9282 8.3961C29.6793 6.96568 28.8854 5.68752 27.7135 4.83045C26.5415 3.97338 25.0829 3.60421 23.6443 3.80057C22.2057 3.99694 20.8994 4.74355 20 5.88336C19.0986 4.74919 17.7934 4.00775 16.3577 3.81431C14.9219 3.62088 13.467 3.99045 12.2976 4.84564C11.1283 5.70083 10.3351 6.97529 10.0843 8.40214C9.8335 9.82898 10.1445 11.2975 10.9521 12.5002H7.5C6.83721 12.5011 6.20181 12.7647 5.73315 13.2334C5.26448 13.702 5.00083 14.3374 5 15.0002V20.0002C5.00083 20.663 5.26448 21.2984 5.73315 21.7671C6.20181 22.2358 6.83721 22.4994 7.5 22.5002V35.0002C7.50083 35.663 7.76448 36.2984 8.23315 36.7671C8.70181 37.2358 9.33721 37.4994 10 37.5002H30C30.6628 37.4994 31.2982 37.2358 31.7669 36.7671C32.2355 36.2984 32.4992 35.663 32.5 35.0002V22.5002C33.1628 22.4994 33.7982 22.2358 34.2669 21.7671C34.7355 21.2984 34.9992 20.663 35 20.0002V15.0002C34.9992 14.3374 34.7355 13.702 34.2669 13.2334C33.7982 12.7647 33.1628 12.5011 32.5 12.5002ZM21.25 9.37523C21.25 8.75717 21.4333 8.15298 21.7767 7.63908C22.12 7.12517 22.6081 6.72463 23.1791 6.48811C23.7501 6.25159 24.3785 6.1897 24.9847 6.31028C25.5908 6.43086 26.1477 6.72849 26.5847 7.16553C27.0217 7.60257 27.3194 8.15939 27.44 8.76558C27.5605 9.37177 27.4986 10.0001 27.2621 10.5711C27.0256 11.1421 26.6251 11.6302 26.1112 11.9736C25.5973 12.317 24.9931 12.5002 24.375 12.5002H21.25V9.37523ZM15.625 6.25023C16.4535 6.25123 17.2478 6.58079 17.8336 7.16662C18.4194 7.75246 18.749 8.54674 18.75 9.37523V12.5002H15.625C14.7962 12.5002 14.0013 12.171 13.4153 11.5849C12.8292 10.9989 12.5 10.204 12.5 9.37523C12.5 8.54643 12.8292 7.75158 13.4153 7.16553C14.0013 6.57947 14.7962 6.25023 15.625 6.25023ZM7.5 15.0002H18.75V20.0002H7.5V15.0002ZM10 22.5002H18.75V35.0002H10V22.5002ZM30.0015 35.0002H21.25V22.5002H30L30.0015 35.0002ZM21.25 20.0002V15.0002H32.5L32.5015 20.0002H21.25Z" fill="#FF8002"/>
</svg>
