<svg width="41" height="40" viewBox="0 0 41 40" fill="none" xmlns="http://www.w3.org/2000/svg">
<path d="M0.339078 26V7.39916H4.72287V26H0.339078ZM2.54308 4.7592C1.84878 4.7592 1.25136 4.52911 0.750815 4.06893C0.250272 3.60068 0 3.03959 0 2.38565C0 1.72365 0.250272 1.16255 0.750815 0.702374C1.25136 0.234125 1.84878 0 2.54308 0C3.24546 0 3.84288 0.234125 4.33535 0.702374C4.8359 1.16255 5.08617 1.72365 5.08617 2.38565C5.08617 3.03959 4.8359 3.60068 4.33535 4.06893C3.84288 4.52911 3.24546 4.7592 2.54308 4.7592Z" fill="#FF8002"/>
<path d="M13.6146 15.1011V26H9.23079V7.39916H13.4208V10.5599H13.6388C14.0667 9.5184 14.7489 8.69089 15.6854 8.07732C16.6299 7.46375 17.7965 7.15696 19.1851 7.15696C20.4688 7.15696 21.5869 7.43146 22.5396 7.98044C23.5003 8.52942 24.2431 9.32464 24.7678 10.3661C25.3007 11.4075 25.563 12.671 25.555 14.1565V26H21.1712V14.8347C21.1712 13.5914 20.8482 12.6185 20.2024 11.9162C19.5646 11.2138 18.6806 10.8626 17.5503 10.8626C16.7833 10.8626 16.1011 11.0321 15.5037 11.3712C14.9144 11.7022 14.4502 12.1826 14.1111 12.8123C13.7801 13.442 13.6146 14.2049 13.6146 15.1011Z" fill="#FF8002"/>
</svg>
