<svg width="40" height="40" viewBox="0 0 40 40" fill="none" xmlns="http://www.w3.org/2000/svg">
<path d="M30 17.5H27.5V10C27.5 8.01088 26.7098 6.10322 25.3033 4.6967C23.8968 3.29018 21.9891 2.5 20 2.5C18.0109 2.5 16.1032 3.29018 14.6967 4.6967C13.2902 6.10322 12.5 8.01088 12.5 10V17.5H10C9.33696 17.5 8.70107 17.7634 8.23223 18.2322C7.76339 18.7011 7.5 19.337 7.5 20V35C7.5 35.663 7.76339 36.2989 8.23223 36.7678C8.70107 37.2366 9.33696 37.5 10 37.5H30C30.663 37.5 31.2989 37.2366 31.7678 36.7678C32.2366 36.2989 32.5 35.663 32.5 35V20C32.5 19.337 32.2366 18.7011 31.7678 18.2322C31.2989 17.7634 30.663 17.5 30 17.5ZM15 10C15 8.67392 15.5268 7.40215 16.4645 6.46447C17.4021 5.52678 18.6739 5 20 5C21.3261 5 22.5979 5.52678 23.5355 6.46447C24.4732 7.40215 25 8.67392 25 10V17.5H15V10ZM30 35H10V20H30V35Z" fill="#FF8002"/>
</svg>
