<svg width="30" height="29" viewBox="0 0 30 29" fill="none" xmlns="http://www.w3.org/2000/svg">
<g clip-path="url(#clip0_2130_4376)">
<rect width="28.6174" height="28.6174" transform="translate(0.898438)" fill="#AEB0B3"/>
<mask id="mask0_2130_4376" style="mask-type:luminance" maskUnits="userSpaceOnUse" x="0" y="0" width="30" height="29">
<path d="M29.5159 0H0.898438V28.6175H29.5159V0Z" fill="white"/>
</mask>
<g mask="url(#mask0_2130_4376)">
<path d="M29.5159 0H0.898438V28.6175H29.5159V0Z" fill="#AEB0B3"/>
<path d="M19.9609 2.20093V3.51795H22.8408V8.80362H24.4506V3.51795H27.3246V2.20093H19.9609Z" fill="white"/>
<path d="M9.6067 2.20081L7.49942 6.5675L5.39806 2.20081H3.09766V8.8035H4.7132V4.07976L6.76776 8.07181H8.23697L10.2915 4.07976V8.8035H11.9012V2.20081H9.6067Z" fill="white"/>
<path d="M25.7168 24.2156C25.6758 24.479 25.5705 24.6956 25.4007 24.8595C25.2427 25.0117 25.0261 25.1229 24.7568 25.1873C24.4934 25.2458 24.1013 25.2809 23.6916 25.2809C23.2642 25.2809 22.8896 25.2282 22.5677 25.117C22.2574 25.0117 22.0116 24.8243 21.8418 24.5668C21.6662 24.3092 21.5784 23.9347 21.5784 23.4488V22.7757C21.5784 22.2957 21.6662 21.921 21.8418 21.6576C22.0174 21.4001 22.2574 21.2128 22.5677 21.1075C22.8838 20.9962 23.2642 20.9436 23.6916 20.9436C24.1013 20.9436 24.4934 20.9787 24.7568 21.0372C25.0261 21.1016 25.2427 21.2069 25.4007 21.365C25.5705 21.5289 25.6758 21.7454 25.7168 22.0088H27.3265C27.2797 21.4645 27.0983 21.0021 26.7763 20.6275C26.4836 20.288 26.0739 20.0421 25.5646 19.8899C25.0729 19.7436 24.4232 19.6675 23.6916 19.6675C22.9189 19.6675 22.2516 19.7787 21.7013 19.9953C21.1453 20.2177 20.7122 20.5865 20.4136 21.0958C20.1268 21.5815 19.9805 22.2371 19.9688 23.0332V23.1093L20.0566 23.1152L19.9688 23.121V23.1269V23.1971C19.9805 23.9932 20.1268 24.6487 20.4136 25.1346C20.7122 25.6438 21.1453 26.0126 21.7013 26.2351C22.2516 26.4516 22.9189 26.5629 23.6916 26.5629C24.4232 26.5629 25.0729 26.4868 25.5646 26.3404C26.0739 26.1882 26.4778 25.9424 26.7763 25.6029C27.0983 25.2341 27.2855 24.7658 27.3265 24.2214H25.7168V24.2156Z" fill="white"/>
</g>
</g>
<defs>
<clipPath id="clip0_2130_4376">
<rect width="28.6174" height="28.6174" fill="white" transform="translate(0.898438)"/>
</clipPath>
</defs>
</svg>
