<svg width="175" height="29" viewBox="0 0 175 29" fill="none" xmlns="http://www.w3.org/2000/svg">
<g clip-path="url(#clip0_2130_4374)">
<path fill-rule="evenodd" clip-rule="evenodd" d="M0 17.3294C0 22.9499 3.15044 28.6174 10.2052 28.6174C17.2535 28.6174 20.4101 22.9499 20.4101 17.3294C20.4101 13.4906 19.1155 9.07018 16.955 5.49886C14.8537 2.05085 12.3289 0 10.2052 0C8.07503 0 5.54956 2.05085 3.46653 5.49886C1.29532 9.07018 0 13.4906 0 17.3294ZM72.4565 8.43204H65.3127V1.53314H87.2535V8.43204H80.1102L80.1099 27.0844H72.456L72.4565 8.43204ZM103.578 8.43215H114.805V1.53325H103.579C93.2647 1.53325 87.7579 6.66902 87.7579 14.3089C87.7579 21.9487 93.2647 27.0846 103.579 27.0846H114.805V20.1856H103.578C98.8056 20.1856 95.6666 18.4769 95.6666 14.3089C95.6666 10.1408 98.8056 8.43215 103.578 8.43215ZM45.6635 16.7844L49.7438 1.53325H63.2688V27.0846H55.6153V6.28828L50.0514 27.0846H41.2757L35.7154 6.30126V27.0846H28.0615V1.53325H41.5831L45.6635 16.7844ZM128.764 8.93949H126.065V11.4389H128.764C129.448 11.4389 129.855 11.0873 129.855 10.439V9.97608C129.855 9.30941 129.504 8.93949 128.764 8.93949ZM129.448 14.3089H122.46V1.53291H132.739V4.58828H126.065V6.25441H129.448C132.277 6.25441 133.645 7.66166 133.645 10.1427C133.645 12.7535 132.277 14.3089 129.448 14.3089ZM141.962 9.08728H139.115L140.538 4.36615L141.962 9.08728ZM147.433 14.3089L143.496 1.53325H138.135L134.197 14.3089H137.562L138.283 11.8647H142.794L143.533 14.3089H147.433ZM156.547 14.3089V9.36527H152.424V14.3089H148.726V1.53325H152.424V6.21761H156.547V1.53325H160.245V14.3089H156.547ZM166.808 6.2175H166.161V1.53314H162.463V14.3087H166.161V9.36517H166.696L170.117 14.3087H174.388L169.766 7.62476L174.018 1.53314H170.117L166.808 6.2175Z" fill="#AEB0B3"/>
</g>
<defs>
<clipPath id="clip0_2130_4374">
<rect width="174.28" height="28.6174" fill="white"/>
</clipPath>
</defs>
</svg>
