<svg xmlns="http://www.w3.org/2000/svg" xmlns:v="https://svgstorm.com"
viewBox = "0 0 288 56"
width="288"
height="56">
<g fill="None" fill-opacity="0.0" stroke="#000000" stroke-opacity="0.00" stroke-width="0.3"><path d="
M 0.00 28.00 
C 0.50 28.00 1.00 28.00 1.00 28.00
C 3.09 12.94 24.05 8.72 35.25 18.75 C 46.44 28.78 44.73 49.77 28.00 56.00
L 75.00 56.00
C 69.26 53.49 62.41 48.02 62.00 41.00
C 66.33 41.00 70.67 41.00 75.00 41.00
C 75.49 47.75 87.52 48.62 89.00 42.00
C 80.84 40.02 59.36 36.60 64.78 21.78 C 70.20 6.96 89.08 15.68 99.00 14.00
C 99.00 17.67 99.00 21.33 99.00 25.00
C 91.35 25.35 83.09 20.34 76.00 25.00
C 82.71 31.71 95.88 28.85 102.00 40.00
C 101.45 47.15 96.81 53.88 90.00 56.00
L 147.00 56.00
C 147.00 55.50 147.00 55.00 147.00 55.00
C 130.71 52.44 126.40 25.65 142.10 16.10 C 157.80 6.55 180.31 20.05 176.00 39.00
C 166.27 36.56 154.44 38.84 145.00 38.00
C 145.48 46.65 159.86 49.29 162.00 41.00
C 166.67 41.00 171.33 41.00 176.00 41.00
C 173.65 48.34 168.05 53.34 162.00 56.00
L 211.00 56.00
C 205.50 51.73 207.67 42.45 215.00 43.00 C 222.34 43.56 223.20 52.43 218.00 56.00
L 238.00 56.00
C 238.00 55.50 238.00 55.00 238.00 55.00
C 224.50 52.27 223.14 31.97 228.71 22.70 C 234.29 13.42 248.78 7.78 257.00 19.00
C 254.93 11.23 264.56 14.76 269.00 14.00
C 269.65 27.58 267.69 41.86 270.00 55.00
C 264.91 54.25 256.80 57.52 256.00 51.00
C 255.06 53.94 251.50 53.94 250.00 56.00
L 278.00 56.00
C 278.00 55.50 278.00 55.00 278.00 55.00
C 274.44 50.18 278.10 41.17 277.00 35.00 C 275.90 28.83 277.82 20.38 277.00 14.00
C 280.67 14.00 284.33 14.00 288.00 14.00
L 288.00 0.00
L 132.00 0.00
C 132.00 3.67 132.00 7.33 132.00 11.00
C 128.00 9.66 117.91 7.62 120.00 15.00
C 122.78 13.93 126.61 15.68 130.00 15.00
C 128.10 17.90 129.38 21.70 129.00 25.00
C 126.00 25.00 123.00 25.00 120.00 25.00
C 120.00 35.00 120.00 45.00 120.00 55.00
C 116.00 55.00 112.00 55.00 108.00 55.00
C 107.85 49.33 108.20 42.56 108.00 37.00 C 107.80 31.44 110.34 22.86 102.00 25.00
C 103.97 21.78 102.58 17.62 103.00 14.00
C 111.04 17.56 107.09 4.40 108.00 0.00
L 0.00 0.00
L 0.00 28.00
M 195.00 18.00 
C 197.81 12.36 204.83 14.34 210.00 14.00
C 207.98 17.54 209.45 22.05 209.00 26.00
C 190.23 19.20 192.32 43.08 193.00 55.00
C 189.33 55.00 185.67 55.00 182.00 55.00
C 182.00 41.33 182.00 27.67 182.00 14.00
C 186.75 14.35 193.75 12.17 195.00 18.00 Z"/>
</g>
<g fill="None" fill-opacity="0.0" stroke="#FCFCFC" stroke-opacity="0.91" stroke-width="0.3"><path d="
M 132.00 0.00 
L 108.00 0.00
C 107.09 4.40 111.04 17.56 103.00 14.00
C 102.58 17.62 103.97 21.78 102.00 25.00
C 110.34 22.86 107.80 31.44 108.00 37.00 C 108.20 42.56 107.85 49.33 108.00 55.00
C 112.00 55.00 116.00 55.00 120.00 55.00
C 120.00 45.00 120.00 35.00 120.00 25.00
C 123.00 25.00 126.00 25.00 129.00 25.00
C 129.38 21.70 128.10 17.90 130.00 15.00
C 126.61 15.68 122.78 13.93 120.00 15.00
C 117.91 7.62 128.00 9.66 132.00 11.00
C 132.00 7.33 132.00 3.67 132.00 0.00 Z"/>
</g>
<g fill="None" fill-opacity="0.0" stroke="#FEFEFE" stroke-opacity="0.95" stroke-width="0.3"><path d="
M 1.00 28.00 
C 0.82 29.29 1.69 31.49 0.00 32.00
L 0.00 41.00
C 2.40 47.72 8.38 53.59 15.00 56.00
L 16.00 56.00
C 16.22 54.72 18.81 54.58 19.00 56.00
L 24.00 56.00
C 24.22 54.72 26.81 54.58 27.00 56.00
L 28.00 56.00
C 44.73 49.77 46.44 28.78 35.25 18.75 C 24.05 8.72 3.09 12.94 1.00 28.00 Z"/>
</g>
<g fill="None" fill-opacity="0.0" stroke="#FDFDFD" stroke-opacity="0.88" stroke-width="0.3"><path d="
M 75.00 56.00 
L 90.00 56.00
C 96.81 53.88 101.45 47.15 102.00 40.00
C 95.88 28.85 82.71 31.71 76.00 25.00
C 83.09 20.34 91.35 25.35 99.00 25.00
C 99.00 21.33 99.00 17.67 99.00 14.00
C 89.08 15.68 70.20 6.96 64.78 21.78 C 59.36 36.60 80.84 40.02 89.00 42.00
C 87.52 48.62 75.49 47.75 75.00 41.00
C 70.67 41.00 66.33 41.00 62.00 41.00
C 62.41 48.02 69.26 53.49 75.00 56.00 Z"/>
</g>
<g fill="None" fill-opacity="0.0" stroke="#FDFDFD" stroke-opacity="0.88" stroke-width="0.3"><path d="
M 147.00 55.00 
C 147.99 55.16 149.74 54.50 150.00 56.00
L 162.00 56.00
C 168.05 53.34 173.65 48.34 176.00 41.00
C 171.33 41.00 166.67 41.00 162.00 41.00
C 159.86 49.29 145.48 46.65 145.00 38.00
C 154.44 38.84 166.27 36.56 176.00 39.00
C 180.31 20.05 157.80 6.55 142.10 16.10 C 126.40 25.65 130.71 52.44 147.00 55.00
M 163.00 29.00 
C 164.51 29.70 146.09 33.77 145.00 30.00
C 144.40 26.74 150.75 24.30 153.25 24.20 C 155.74 24.09 161.85 25.13 163.00 29.00 Z"/>
</g>
<g fill="None" fill-opacity="0.0" stroke="#FDFDFD" stroke-opacity="0.90" stroke-width="0.3"><path d="
M 238.00 55.00 
C 238.95 54.57 241.72 54.73 242.00 56.00
L 250.00 56.00
C 251.50 53.94 255.06 53.94 256.00 51.00
C 256.80 57.52 264.91 54.25 270.00 55.00
C 267.69 41.86 269.65 27.58 269.00 14.00
C 264.56 14.76 254.93 11.23 257.00 19.00
C 248.78 7.78 234.29 13.42 228.71 22.70 C 223.14 31.97 224.50 52.27 238.00 55.00
M 257.00 32.00 
C 259.12 33.56 257.40 35.53 257.00 37.00
C 255.17 43.78 248.74 49.42 241.77 44.23 C 234.81 39.04 238.04 28.69 243.00 24.00
C 249.03 23.82 255.40 24.46 257.00 32.00 Z"/>
</g>
<g fill="None" fill-opacity="0.0" stroke="#FCFCFC" stroke-opacity="0.92" stroke-width="0.3"><path d="
M 195.00 18.00 
C 193.75 12.17 186.75 14.35 182.00 14.00
C 182.00 27.67 182.00 41.33 182.00 55.00
C 185.67 55.00 189.33 55.00 193.00 55.00
C 192.32 43.08 190.23 19.20 209.00 26.00
C 209.45 22.05 207.98 17.54 210.00 14.00
C 204.83 14.34 197.81 12.36 195.00 18.00 Z"/>
</g>
<g fill="None" fill-opacity="0.0" stroke="#FDFDFD" stroke-opacity="0.97" stroke-width="0.3"><path d="
M 278.00 55.00 
C 281.31 54.70 284.69 55.22 288.00 55.00
L 288.00 14.00
C 284.33 14.00 280.67 14.00 277.00 14.00
C 277.82 20.38 275.90 28.83 277.00 35.00 C 278.10 41.17 274.44 50.18 278.00 55.00 Z"/>
</g>
<g fill="None" fill-opacity="0.0" stroke="#010101" stroke-opacity="0.01" stroke-width="0.3"><path d="
M 145.00 30.00 
C 145.04 30.13 146.50 30.00 147.00 30.00
C 151.22 28.20 157.83 28.75 162.00 30.00
C 162.35 29.95 163.08 29.26 163.00 29.00
C 161.85 25.13 155.74 24.09 153.25 24.20 C 150.75 24.30 144.40 26.74 145.00 30.00 Z"/>
</g>
<g fill="None" fill-opacity="0.0" stroke="#000000" stroke-opacity="0.00" stroke-width="0.3"><path d="
M 257.00 37.00 
C 257.07 35.52 255.17 34.88 257.00 33.00
C 257.00 32.50 257.00 32.00 257.00 32.00
C 255.40 24.46 249.03 23.82 243.00 24.00
C 238.04 28.69 234.81 39.04 241.77 44.23 C 248.74 49.42 255.17 43.78 257.00 37.00 Z"/>
</g>
<g fill="None" fill-opacity="0.0" stroke="#FFFFFF" stroke-opacity="0.43" stroke-width="0.3"><path d="
M 0.00 32.00 
C 1.69 31.49 0.82 29.29 1.00 28.00
C 1.00 28.00 0.50 28.00 0.00 28.00
L 0.00 32.00 Z"/>
</g>
<g fill="None" fill-opacity="0.0" stroke="#6D6D6D" stroke-opacity="0.03" stroke-width="0.3"><path d="
M 147.00 30.00 
C 151.83 30.00 157.23 30.69 162.00 30.00
C 157.83 28.75 151.22 28.20 147.00 30.00 Z"/>
</g>
<g fill="None" fill-opacity="0.0" stroke="#F4F4F4" stroke-opacity="0.51" stroke-width="0.3"><path d="
M 162.00 30.00 
C 157.23 30.69 151.83 30.00 147.00 30.00
C 146.50 30.00 145.04 30.13 145.00 30.00
C 146.09 33.77 164.51 29.70 163.00 29.00
C 163.08 29.26 162.35 29.95 162.00 30.00 Z"/>
</g>
<g fill="None" fill-opacity="0.0" stroke="#F2F2F2" stroke-opacity="0.62" stroke-width="0.3"><path d="
M 257.00 33.00 
C 257.00 34.33 257.00 35.67 257.00 37.00
C 257.40 35.53 259.12 33.56 257.00 32.00
C 257.00 32.00 257.00 32.50 257.00 33.00 Z"/>
</g>
<g fill="None" fill-opacity="0.0" stroke="#575757" stroke-opacity="0.04" stroke-width="0.3"><path d="
M 257.00 37.00 
C 257.00 35.67 257.00 34.33 257.00 33.00
C 255.17 34.88 257.07 35.52 257.00 37.00 Z"/>
</g>
<g fill="None" fill-opacity="0.0" stroke="#000000" stroke-opacity="0.00" stroke-width="0.3"><path d="
M 0.00 56.00 
L 15.00 56.00
C 8.38 53.59 2.40 47.72 0.00 41.00
L 0.00 56.00 Z"/>
</g>
<g fill="None" fill-opacity="0.0" stroke="#FCFCFC" stroke-opacity="0.88" stroke-width="0.3"><path d="
M 211.00 56.00 
L 218.00 56.00
C 223.20 52.43 222.34 43.56 215.00 43.00 C 207.67 42.45 205.50 51.73 211.00 56.00 Z"/>
</g>
<g fill="None" fill-opacity="0.0" stroke="#FFFFFF" stroke-opacity="0.67" stroke-width="0.3"><path d="
M 16.00 56.00 
L 19.00 56.00
C 18.81 54.58 16.22 54.72 16.00 56.00 Z"/>
</g>
<g fill="None" fill-opacity="0.0" stroke="#FFFFFF" stroke-opacity="0.52" stroke-width="0.3"><path d="
M 24.00 56.00 
L 27.00 56.00
C 26.81 54.58 24.22 54.72 24.00 56.00 Z"/>
</g>
<g fill="None" fill-opacity="0.0" stroke="#FFFFFF" stroke-opacity="0.33" stroke-width="0.3"><path d="
M 147.00 56.00 
L 150.00 56.00
C 149.74 54.50 147.99 55.16 147.00 55.00
C 147.00 55.00 147.00 55.50 147.00 56.00 Z"/>
</g>
<g fill="None" fill-opacity="0.0" stroke="#FFFFFF" stroke-opacity="0.45" stroke-width="0.3"><path d="
M 238.00 56.00 
L 242.00 56.00
C 241.72 54.73 238.95 54.57 238.00 55.00
C 238.00 55.00 238.00 55.50 238.00 56.00 Z"/>
</g>
<g fill="None" fill-opacity="0.0" stroke="#3C3C3C" stroke-opacity="0.05" stroke-width="0.3"><path d="
M 278.00 56.00 
L 288.00 56.00
L 288.00 55.00
C 284.69 55.22 281.31 54.70 278.00 55.00
C 278.00 55.00 278.00 55.50 278.00 56.00 Z"/>
</g>
<g fill="#000000" fill-opacity="0.00" stroke="None">
<path d="
M 0.00 28.00 
C 0.50 28.00 1.00 28.00 1.00 28.00
C 3.09 12.94 24.05 8.72 35.25 18.75 C 46.44 28.78 44.73 49.77 28.00 56.00
L 75.00 56.00
C 69.26 53.49 62.41 48.02 62.00 41.00
C 66.33 41.00 70.67 41.00 75.00 41.00
C 75.49 47.75 87.52 48.62 89.00 42.00
C 80.84 40.02 59.36 36.60 64.78 21.78 C 70.20 6.96 89.08 15.68 99.00 14.00
C 99.00 17.67 99.00 21.33 99.00 25.00
C 91.35 25.35 83.09 20.34 76.00 25.00
C 82.71 31.71 95.88 28.85 102.00 40.00
C 101.45 47.15 96.81 53.88 90.00 56.00
L 147.00 56.00
C 147.00 55.50 147.00 55.00 147.00 55.00
C 130.71 52.44 126.40 25.65 142.10 16.10 C 157.80 6.55 180.31 20.05 176.00 39.00
C 166.27 36.56 154.44 38.84 145.00 38.00
C 145.48 46.65 159.86 49.29 162.00 41.00
C 166.67 41.00 171.33 41.00 176.00 41.00
C 173.65 48.34 168.05 53.34 162.00 56.00
L 211.00 56.00
C 205.50 51.73 207.67 42.45 215.00 43.00 C 222.34 43.56 223.20 52.43 218.00 56.00
L 238.00 56.00
C 238.00 55.50 238.00 55.00 238.00 55.00
C 224.50 52.27 223.14 31.97 228.71 22.70 C 234.29 13.42 248.78 7.78 257.00 19.00
C 254.93 11.23 264.56 14.76 269.00 14.00
C 269.65 27.58 267.69 41.86 270.00 55.00
C 264.91 54.25 256.80 57.52 256.00 51.00
C 255.06 53.94 251.50 53.94 250.00 56.00
L 278.00 56.00
C 278.00 55.50 278.00 55.00 278.00 55.00
C 274.44 50.18 278.10 41.17 277.00 35.00 C 275.90 28.83 277.82 20.38 277.00 14.00
C 280.67 14.00 284.33 14.00 288.00 14.00
L 288.00 0.00
L 132.00 0.00
C 132.00 3.67 132.00 7.33 132.00 11.00
C 128.00 9.66 117.91 7.62 120.00 15.00
C 122.78 13.93 126.61 15.68 130.00 15.00
C 128.10 17.90 129.38 21.70 129.00 25.00
C 126.00 25.00 123.00 25.00 120.00 25.00
C 120.00 35.00 120.00 45.00 120.00 55.00
C 116.00 55.00 112.00 55.00 108.00 55.00
C 107.85 49.33 108.20 42.56 108.00 37.00 C 107.80 31.44 110.34 22.86 102.00 25.00
C 103.97 21.78 102.58 17.62 103.00 14.00
C 111.04 17.56 107.09 4.40 108.00 0.00
L 0.00 0.00
L 0.00 28.00
M 195.00 18.00 
C 197.81 12.36 204.83 14.34 210.00 14.00
C 207.98 17.54 209.45 22.05 209.00 26.00
C 190.23 19.20 192.32 43.08 193.00 55.00
C 189.33 55.00 185.67 55.00 182.00 55.00
C 182.00 41.33 182.00 27.67 182.00 14.00
C 186.75 14.35 193.75 12.17 195.00 18.00 Z"/>
</g>
<g fill="#FCFCFC" fill-opacity="0.91" stroke="None">
<path d="
M 132.00 0.00 
L 108.00 0.00
C 107.09 4.40 111.04 17.56 103.00 14.00
C 102.58 17.62 103.97 21.78 102.00 25.00
C 110.34 22.86 107.80 31.44 108.00 37.00 C 108.20 42.56 107.85 49.33 108.00 55.00
C 112.00 55.00 116.00 55.00 120.00 55.00
C 120.00 45.00 120.00 35.00 120.00 25.00
C 123.00 25.00 126.00 25.00 129.00 25.00
C 129.38 21.70 128.10 17.90 130.00 15.00
C 126.61 15.68 122.78 13.93 120.00 15.00
C 117.91 7.62 128.00 9.66 132.00 11.00
C 132.00 7.33 132.00 3.67 132.00 0.00 Z"/>
</g>
<g fill="#FEFEFE" fill-opacity="0.95" stroke="None">
<path d="
M 1.00 28.00 
C 0.82 29.29 1.69 31.49 0.00 32.00
L 0.00 41.00
C 2.40 47.72 8.38 53.59 15.00 56.00
L 16.00 56.00
C 16.22 54.72 18.81 54.58 19.00 56.00
L 24.00 56.00
C 24.22 54.72 26.81 54.58 27.00 56.00
L 28.00 56.00
C 44.73 49.77 46.44 28.78 35.25 18.75 C 24.05 8.72 3.09 12.94 1.00 28.00 Z"/>
</g>
<g fill="#FDFDFD" fill-opacity="0.88" stroke="None">
<path d="
M 75.00 56.00 
L 90.00 56.00
C 96.81 53.88 101.45 47.15 102.00 40.00
C 95.88 28.85 82.71 31.71 76.00 25.00
C 83.09 20.34 91.35 25.35 99.00 25.00
C 99.00 21.33 99.00 17.67 99.00 14.00
C 89.08 15.68 70.20 6.96 64.78 21.78 C 59.36 36.60 80.84 40.02 89.00 42.00
C 87.52 48.62 75.49 47.75 75.00 41.00
C 70.67 41.00 66.33 41.00 62.00 41.00
C 62.41 48.02 69.26 53.49 75.00 56.00 Z"/>
</g>
<g fill="#FDFDFD" fill-opacity="0.88" stroke="None">
<path d="
M 147.00 55.00 
C 147.99 55.16 149.74 54.50 150.00 56.00
L 162.00 56.00
C 168.05 53.34 173.65 48.34 176.00 41.00
C 171.33 41.00 166.67 41.00 162.00 41.00
C 159.86 49.29 145.48 46.65 145.00 38.00
C 154.44 38.84 166.27 36.56 176.00 39.00
C 180.31 20.05 157.80 6.55 142.10 16.10 C 126.40 25.65 130.71 52.44 147.00 55.00
M 163.00 29.00 
C 164.51 29.70 146.09 33.77 145.00 30.00
C 144.40 26.74 150.75 24.30 153.25 24.20 C 155.74 24.09 161.85 25.13 163.00 29.00 Z"/>
</g>
<g fill="#FDFDFD" fill-opacity="0.90" stroke="None">
<path d="
M 238.00 55.00 
C 238.95 54.57 241.72 54.73 242.00 56.00
L 250.00 56.00
C 251.50 53.94 255.06 53.94 256.00 51.00
C 256.80 57.52 264.91 54.25 270.00 55.00
C 267.69 41.86 269.65 27.58 269.00 14.00
C 264.56 14.76 254.93 11.23 257.00 19.00
C 248.78 7.78 234.29 13.42 228.71 22.70 C 223.14 31.97 224.50 52.27 238.00 55.00
M 257.00 32.00 
C 259.12 33.56 257.40 35.53 257.00 37.00
C 255.17 43.78 248.74 49.42 241.77 44.23 C 234.81 39.04 238.04 28.69 243.00 24.00
C 249.03 23.82 255.40 24.46 257.00 32.00 Z"/>
</g>
<g fill="#FCFCFC" fill-opacity="0.92" stroke="None">
<path d="
M 195.00 18.00 
C 193.75 12.17 186.75 14.35 182.00 14.00
C 182.00 27.67 182.00 41.33 182.00 55.00
C 185.67 55.00 189.33 55.00 193.00 55.00
C 192.32 43.08 190.23 19.20 209.00 26.00
C 209.45 22.05 207.98 17.54 210.00 14.00
C 204.83 14.34 197.81 12.36 195.00 18.00 Z"/>
</g>
<g fill="#FDFDFD" fill-opacity="0.97" stroke="None">
<path d="
M 278.00 55.00 
C 281.31 54.70 284.69 55.22 288.00 55.00
L 288.00 14.00
C 284.33 14.00 280.67 14.00 277.00 14.00
C 277.82 20.38 275.90 28.83 277.00 35.00 C 278.10 41.17 274.44 50.18 278.00 55.00 Z"/>
</g>
<g fill="#010101" fill-opacity="0.01" stroke="None">
<path d="
M 145.00 30.00 
C 145.04 30.13 146.50 30.00 147.00 30.00
C 151.22 28.20 157.83 28.75 162.00 30.00
C 162.35 29.95 163.08 29.26 163.00 29.00
C 161.85 25.13 155.74 24.09 153.25 24.20 C 150.75 24.30 144.40 26.74 145.00 30.00 Z"/>
</g>
<g fill="#000000" fill-opacity="0.00" stroke="None">
<path d="
M 257.00 37.00 
C 257.07 35.52 255.17 34.88 257.00 33.00
C 257.00 32.50 257.00 32.00 257.00 32.00
C 255.40 24.46 249.03 23.82 243.00 24.00
C 238.04 28.69 234.81 39.04 241.77 44.23 C 248.74 49.42 255.17 43.78 257.00 37.00 Z"/>
</g>
<g fill="#FFFFFF" fill-opacity="0.43" stroke="None">
<path d="
M 0.00 32.00 
C 1.69 31.49 0.82 29.29 1.00 28.00
C 1.00 28.00 0.50 28.00 0.00 28.00
L 0.00 32.00 Z"/>
</g>
<g fill="#6D6D6D" fill-opacity="0.03" stroke="None">
<path d="
M 147.00 30.00 
C 151.83 30.00 157.23 30.69 162.00 30.00
C 157.83 28.75 151.22 28.20 147.00 30.00 Z"/>
</g>
<g fill="#F4F4F4" fill-opacity="0.51" stroke="None">
<path d="
M 162.00 30.00 
C 157.23 30.69 151.83 30.00 147.00 30.00
C 146.50 30.00 145.04 30.13 145.00 30.00
C 146.09 33.77 164.51 29.70 163.00 29.00
C 163.08 29.26 162.35 29.95 162.00 30.00 Z"/>
</g>
<g fill="#F2F2F2" fill-opacity="0.62" stroke="None">
<path d="
M 257.00 33.00 
C 257.00 34.33 257.00 35.67 257.00 37.00
C 257.40 35.53 259.12 33.56 257.00 32.00
C 257.00 32.00 257.00 32.50 257.00 33.00 Z"/>
</g>
<g fill="#575757" fill-opacity="0.04" stroke="None">
<path d="
M 257.00 37.00 
C 257.00 35.67 257.00 34.33 257.00 33.00
C 255.17 34.88 257.07 35.52 257.00 37.00 Z"/>
</g>
<g fill="#000000" fill-opacity="0.00" stroke="None">
<path d="
M 0.00 56.00 
L 15.00 56.00
C 8.38 53.59 2.40 47.72 0.00 41.00
L 0.00 56.00 Z"/>
</g>
<g fill="#FCFCFC" fill-opacity="0.88" stroke="None">
<path d="
M 211.00 56.00 
L 218.00 56.00
C 223.20 52.43 222.34 43.56 215.00 43.00 C 207.67 42.45 205.50 51.73 211.00 56.00 Z"/>
</g>
<g fill="#FFFFFF" fill-opacity="0.67" stroke="None">
<path d="
M 16.00 56.00 
L 19.00 56.00
C 18.81 54.58 16.22 54.72 16.00 56.00 Z"/>
</g>
<g fill="#FFFFFF" fill-opacity="0.52" stroke="None">
<path d="
M 24.00 56.00 
L 27.00 56.00
C 26.81 54.58 24.22 54.72 24.00 56.00 Z"/>
</g>
<g fill="#FFFFFF" fill-opacity="0.33" stroke="None">
<path d="
M 147.00 56.00 
L 150.00 56.00
C 149.74 54.50 147.99 55.16 147.00 55.00
C 147.00 55.00 147.00 55.50 147.00 56.00 Z"/>
</g>
<g fill="#FFFFFF" fill-opacity="0.45" stroke="None">
<path d="
M 238.00 56.00 
L 242.00 56.00
C 241.72 54.73 238.95 54.57 238.00 55.00
C 238.00 55.00 238.00 55.50 238.00 56.00 Z"/>
</g>
<g fill="#3C3C3C" fill-opacity="0.05" stroke="None">
<path d="
M 278.00 56.00 
L 288.00 56.00
L 288.00 55.00
C 284.69 55.22 281.31 54.70 278.00 55.00
C 278.00 55.00 278.00 55.50 278.00 56.00 Z"/>
</g>
</svg>