<svg width="2037" height="2037" viewBox="0 0 2037 2037" fill="none" xmlns="http://www.w3.org/2000/svg">
<g clip-path="url(#clip0_34_2)">
<path d="M2037 0H0V2037H2037V0Z" fill="#AEB0B3"/>
<path d="M1354 244.5V153H1879.5V244.5H1673V622H1558V244.5H1354Z" fill="white"/>
<path d="M151 622V152H313.5L463 461L614 152H778.5V622H664.5V286.5L515.5 570H412L265.5 287V622H151Z" fill="white"/>
<path d="M1875 1542H1743C1743 1542 1738 1524.72 1731 1516C1722.17 1505 1708.5 1499.25 1697 1495.5C1678.5 1489.47 1651.98 1487.98 1630 1487C1607.5 1486 1580.5 1487 1549.5 1491C1527.92 1493.78 1505.5 1501.5 1497 1517C1493.03 1524.24 1486.3 1543.14 1495 1557.5C1505 1574 1526.24 1579.67 1537 1582C1567 1588.5 1595.87 1591.48 1632 1594C1675 1597 1698 1598.05 1736 1604C1763 1608.23 1797.5 1618 1819 1628C1835 1635.44 1863.5 1655 1874.5 1682.5C1878.7 1693 1883.19 1708.99 1884 1722C1885.5 1746 1883 1767 1874.5 1788.5C1863.68 1815.86 1849 1831 1828 1845.5C1804.83 1861.5 1773.19 1871.2 1732.5 1878.5C1700.5 1884.24 1664.74 1885.5 1621 1885.5C1593.5 1885.5 1561.5 1885.25 1535 1881.5C1506.16 1877.42 1490 1875 1463 1866.5C1444 1860.52 1421.5 1848.51 1411 1840.5C1395 1828.29 1379.9 1812 1367.5 1785.5C1358.64 1766.56 1355.5 1732 1355.5 1732H1487.5C1487.5 1732 1490.5 1761 1512.5 1775C1534.5 1789 1558.53 1793.69 1587.5 1794.5C1623.5 1795.5 1646 1796.5 1676.5 1794C1696 1792.4 1711.5 1789.5 1731.5 1780C1744 1774.06 1755 1763 1755 1738.5C1755 1719 1739.8 1709.27 1728.5 1704.5C1693 1689.5 1663.73 1689.35 1629.5 1686.5C1587.5 1683 1561.76 1683.36 1520 1676.5C1481.35 1670.15 1460 1666.21 1428.5 1651C1417 1645.45 1398.5 1632.5 1387 1619.5C1375.5 1606.5 1368.95 1591 1364 1567C1360.6 1550.5 1362.8 1521.5 1367 1506.5C1371.2 1491.5 1377.66 1478.5 1386 1467.5C1396.99 1453 1405.9 1446.15 1422.5 1435.5C1449 1418.5 1482.34 1409.07 1521.5 1403C1557 1397.5 1582.12 1397.35 1621 1397.5C1658.52 1397.64 1686.5 1397.98 1718 1404C1751 1410.3 1768.73 1413.5 1798 1429C1823.2 1442.34 1838.58 1452.84 1854.5 1476.5C1870.47 1500.24 1875 1542 1875 1542Z" fill="white"/>
</g>
<defs>
<clipPath id="clip0_34_2">
<rect width="2037" height="2037" fill="white"/>
</clipPath>
</defs>
</svg>
