<svg width="186" height="24" viewBox="0 0 186 24" fill="none" xmlns="http://www.w3.org/2000/svg">
<path d="M12.5849 4.65194H12.0274L7.7182 23.5567H0V1.85986H4.11272V20.7692H4.67022L9.02056 1.85986H16.6748V23.5567H12.5621L12.5849 4.65194Z" fill="#DFDFDC"/>
<path d="M35.5783 8.18408V23.5565H31.6758V17.4834H24.7938V23.5565H20.8867V8.18408H24.7938V14.0104H31.6758V8.18408H35.5783Z" fill="#DFDFDC"/>
<path d="M43.6391 11.6525H38.4297V8.18408H52.7511V11.6525H47.5234V23.5565H43.6391V11.6525Z" fill="#DFDFDC"/>
<path d="M54.8633 16.0577V15.683C54.8633 10.8482 57.9615 7.75 62.5495 7.75C67.1375 7.75 70.0164 10.9671 70.0164 15.683V17.0173H58.8298C58.9212 19.124 60.5663 20.5817 62.7323 20.5817C64.8983 20.5817 65.8031 19.4667 66.3286 18.2968L69.5274 19.9693C68.6592 21.6144 66.8313 23.9998 62.6135 23.9998C57.9935 23.9907 54.8633 20.8924 54.8633 16.0577ZM66.0499 14.1019C65.8671 12.338 64.5327 11.159 62.5175 11.159C60.4109 11.159 59.1405 12.338 58.8618 14.1019H66.0499Z" fill="#DFDFDC"/>
<path d="M75.2787 8.18408H87.5849V23.5565H83.6824V11.6753H78.7197L78.5643 17.0721C78.441 21.5961 76.8599 23.5794 73.3595 23.5794H72.1211V20.1064H72.6557C74.3922 20.1064 74.9817 19.1925 75.0731 16.2039L75.2787 8.18408Z" fill="#DFDFDC"/>
<path d="M93.4122 8.18408H105.718V23.5565H101.811V11.6753H96.876L96.7207 17.0721C96.5973 21.5961 95.0162 23.5794 91.5112 23.5794H90.25V20.1064H90.7755C92.512 20.1064 93.1015 19.1925 93.1929 16.2039L93.4122 8.18408Z" fill="#DFDFDC"/>
<path d="M120.64 10.9122H120.083L116.61 23.5565H109.746V8.18408H113.653V20.8284H114.211L117.679 8.18408H124.561V23.5565H120.64V10.9122Z" fill="#DFDFDC"/>
<path d="M127.41 23.5567L133.767 12.6169L127.492 1.85986H132.14L136.449 9.70145H137.007L141.316 1.85986H145.963L139.652 12.6169L146.009 23.5567H141.357L136.988 15.5369H136.431L132.062 23.5567H127.41Z" fill="#DFDFDC"/>
<path d="M148.117 16.1171V15.6236C148.117 10.5969 151.371 7.75 155.059 7.75C157.851 7.75 159.171 8.865 159.893 10.0348H160.451V8.18412H164.294V19.4027C164.294 20.0242 164.605 20.3166 165.167 20.3166H166.405V23.5154H163.302C161.817 23.5154 160.73 22.6472 160.73 21.1895V21.2032H160.172C159.459 22.7203 158.065 23.9907 155.059 23.9907C151.339 23.9907 148.117 21.1392 148.117 16.1171ZM160.455 16.0257V15.715C160.455 12.7401 158.627 11.1453 156.242 11.1453C153.857 11.1453 152.024 12.7264 152.024 15.715V16.0257C152.024 19.0006 153.825 20.5954 156.242 20.5954C158.659 20.5954 160.451 19.0006 160.451 16.0257H160.455Z" fill="#DFDFDC"/>
<path d="M183.976 1.39375C183.976 3.75171 182.893 4.80274 180.38 5.04951L176.692 5.41965C173.471 5.73039 172.2 7.24753 172.2 10.2544V10.6885H172.758C173.841 9.04798 175.637 8.17974 177.807 8.17974C181.683 8.17974 185.032 11.0312 185.032 15.834V16.3321C185.032 21.2582 181.5 23.9863 176.912 23.9863C171.922 23.9863 168.883 20.7875 168.883 15.4912V10.3229C168.883 5.11348 171.424 2.41736 176.651 1.89185L179.69 1.58111C180.403 1.51714 180.746 1.21097 180.746 0.557502V0H183.967L183.976 1.39375ZM172.694 15.9025V16.2133C172.694 19.0008 174.494 20.5819 176.912 20.5819C179.329 20.5819 181.125 19.0008 181.125 16.2133V15.9025C181.125 13.1104 179.297 11.5293 176.912 11.5293C174.526 11.5293 172.694 13.1104 172.694 15.9025Z" fill="#DFDFDC"/>
</svg>
