<svg width="237" height="237" viewBox="0 0 237 237" fill="none" xmlns="http://www.w3.org/2000/svg">
<g clip-path="url(#clip0_34_2)">
<path d="M237 0H0V237H237V0Z" fill="#AEB0B3"/>
<path d="M157.535 28.4471V17.8013H218.675V28.4471H194.649V72.3683H181.269V28.4471H157.535Z" fill="white"/>
<path d="M17.5685 72.3684V17.6851H36.475L53.8689 53.6365L71.4374 17.6851H90.5766V72.3684H77.313V33.3338L59.9772 66.3183H47.9352L30.8903 33.392V72.3684H17.5685Z" fill="white"/>
<path d="M218.152 179.408H202.794C202.794 179.408 202.212 177.397 201.398 176.383C200.37 175.103 198.78 174.434 197.442 173.998C195.289 173.296 192.204 173.123 189.647 173.009C187.029 172.892 183.887 173.009 180.281 173.474C177.77 173.798 175.161 174.696 174.172 176.499C173.71 177.341 172.927 179.54 173.94 181.211C175.103 183.131 177.574 183.791 178.826 184.062C182.317 184.818 185.676 185.165 189.879 185.458C194.882 185.807 197.558 185.929 201.979 186.621C205.121 187.113 209.135 188.25 211.636 189.414C213.498 190.279 216.814 192.555 218.093 195.755C218.582 196.976 219.105 198.837 219.199 200.35C219.373 203.143 219.082 205.586 218.093 208.087C216.835 211.271 215.127 213.032 212.683 214.719C209.988 216.581 206.306 217.709 201.572 218.559C197.849 219.227 193.688 219.373 188.599 219.373C185.4 219.373 181.677 219.344 178.593 218.908C175.238 218.433 173.358 218.152 170.216 217.163C168.006 216.467 165.388 215.069 164.166 214.138C162.305 212.717 160.548 210.822 159.105 207.738C158.074 205.535 157.709 201.514 157.709 201.514H173.067C173.067 201.514 173.416 204.888 175.976 206.517C178.535 208.146 181.331 208.691 184.702 208.786C188.89 208.902 191.508 209.018 195.057 208.727C197.325 208.541 199.129 208.204 201.456 207.099C202.91 206.407 204.19 205.121 204.19 202.27C204.19 200.001 202.421 198.869 201.107 198.314C196.976 196.569 193.571 196.552 189.588 196.22C184.702 195.813 181.707 195.855 176.848 195.057C172.351 194.318 169.867 193.859 166.202 192.09C164.864 191.444 162.712 189.937 161.374 188.425C160.036 186.912 159.274 185.109 158.698 182.316C158.302 180.397 158.558 177.023 159.047 175.277C159.536 173.532 160.287 172.02 161.258 170.74C162.536 169.053 163.573 168.256 165.504 167.017C168.588 165.039 172.467 163.942 177.023 163.235C181.153 162.596 184.076 162.578 188.599 162.596C192.965 162.612 196.22 162.651 199.885 163.352C203.725 164.085 205.787 164.457 209.193 166.261C212.125 167.813 213.914 169.034 215.767 171.787C217.625 174.549 218.152 179.408 218.152 179.408Z" fill="white"/>
</g>
<defs>
<clipPath id="clip0_34_2">
<rect width="237" height="237" fill="white"/>
</clipPath>
</defs>
</svg>
