<svg width="186" height="24" viewBox="0 0 186 24" fill="none" xmlns="http://www.w3.org/2000/svg">
<path d="M12.5849 4.65194H12.0274L7.7182 23.5567H0V1.85986H4.11272V20.7692H4.67022L9.02056 1.85986H16.6748V23.5567H12.5621L12.5849 4.65194Z" fill="white"/>
<path d="M35.5783 8.18433V23.5568H31.6758V17.4836H24.7938V23.5568H20.8867V8.18433H24.7938V14.0107H31.6758V8.18433H35.5783Z" fill="white"/>
<path d="M43.6391 11.6527H38.4297V8.18433H52.7511V11.6527H47.5234V23.5568H43.6391V11.6527Z" fill="white"/>
<path d="M54.8633 16.0579V15.6832C54.8633 10.8484 57.9615 7.75018 62.5495 7.75018C67.1375 7.75018 70.0164 10.9672 70.0164 15.6832V17.0175H58.8298C58.9212 19.1241 60.5663 20.5819 62.7323 20.5819C64.8983 20.5819 65.8031 19.4669 66.3286 18.297L69.5274 19.9695C68.6592 21.6146 66.8313 24 62.6135 24C57.9935 23.9909 54.8633 20.8926 54.8633 16.0579ZM66.0499 14.1021C65.8671 12.3382 64.5327 11.1592 62.5175 11.1592C60.4109 11.1592 59.1405 12.3382 58.8618 14.1021H66.0499Z" fill="white"/>
<path d="M75.2787 8.18433H87.5849V23.5568H83.6824V11.6756H78.7197L78.5643 17.0724C78.441 21.5964 76.8599 23.5796 73.3595 23.5796H72.1211V20.1066H72.6557C74.3922 20.1066 74.9817 19.1927 75.0731 16.2041L75.2787 8.18433Z" fill="white"/>
<path d="M93.4122 8.18433H105.718V23.5568H101.811V11.6756H96.876L96.7207 17.0724C96.5973 21.5964 95.0162 23.5796 91.5112 23.5796H90.25V20.1066H90.7755C92.512 20.1066 93.1015 19.1927 93.1929 16.2041L93.4122 8.18433Z" fill="white"/>
<path d="M120.64 10.9124H120.083L116.61 23.5568H109.746V8.18433H113.653V20.8287H114.211L117.679 8.18433H124.561V23.5568H120.64V10.9124Z" fill="white"/>
<path d="M127.41 23.5567L133.767 12.6169L127.492 1.85986H132.14L136.449 9.70145H137.007L141.316 1.85986H145.963L139.652 12.6169L146.009 23.5567H141.357L136.988 15.5369H136.431L132.062 23.5567H127.41Z" fill="white"/>
<path d="M148.117 16.1173V15.6238C148.117 10.5971 151.371 7.75018 155.059 7.75018C157.851 7.75018 159.171 8.86519 159.893 10.035H160.451V8.1843H164.294V19.4029C164.294 20.0244 164.605 20.3168 165.167 20.3168H166.405V23.5156H163.302C161.817 23.5156 160.73 22.6474 160.73 21.1896V21.2033H160.172C159.459 22.7205 158.065 23.9909 155.059 23.9909C151.339 23.9909 148.117 21.1394 148.117 16.1173ZM160.455 16.0259V15.7151C160.455 12.7403 158.627 11.1455 156.242 11.1455C153.857 11.1455 152.024 12.7266 152.024 15.7151V16.0259C152.024 19.0008 153.825 20.5956 156.242 20.5956C158.659 20.5956 160.451 19.0008 160.451 16.0259H160.455Z" fill="white"/>
<path d="M183.976 1.39375C183.976 3.75171 182.893 4.80274 180.38 5.04951L176.692 5.41965C173.471 5.73039 172.2 7.24753 172.2 10.2544V10.6885H172.758C173.841 9.04798 175.637 8.17974 177.807 8.17974C181.683 8.17974 185.032 11.0312 185.032 15.834V16.3321C185.032 21.2582 181.5 23.9863 176.912 23.9863C171.922 23.9863 168.883 20.7875 168.883 15.4912V10.3229C168.883 5.11348 171.424 2.41736 176.651 1.89185L179.69 1.58111C180.403 1.51714 180.746 1.21097 180.746 0.557502V0H183.967L183.976 1.39375ZM172.694 15.9025V16.2133C172.694 19.0008 174.494 20.5819 176.912 20.5819C179.329 20.5819 181.125 19.0008 181.125 16.2133V15.9025C181.125 13.1104 179.297 11.5293 176.912 11.5293C174.526 11.5293 172.694 13.1104 172.694 15.9025Z" fill="white"/>
</svg>
