<svg width="112" height="22" viewBox="0 0 112 22" fill="none" xmlns="http://www.w3.org/2000/svg">
<g id="Layer 1">
<path id="Vector" d="M40.2773 9.75217V6.09511H42.264V0H50.9495V3.65706H46.5248V6.09511H50.0266V9.75217H46.5248V21.3329H42.264V9.75217H40.2773Z" fill="#FFFFFF"/>
<path id="Vector_2" d="M53.9729 19.398C53.1894 18.6442 52.57 17.7367 52.1534 16.7324C51.7369 15.7282 51.5322 14.6487 51.5521 13.5616C51.5323 12.4746 51.7371 11.3952 52.1537 10.3909C52.5702 9.38666 53.1895 8.47918 53.9729 7.72527C54.7527 6.94387 55.683 6.32894 56.7075 5.91776C57.732 5.50658 58.8293 5.30772 59.9329 5.33323C62.3307 5.33323 64.301 6.12579 65.844 7.7109C66.6033 8.48053 67.1999 9.39524 67.598 10.4004C67.9961 11.4057 68.1877 12.4808 68.1613 13.5616V14.4759H55.9711C56.1212 15.4691 56.6049 16.3816 57.3425 17.0634C58.0298 17.7475 58.9603 18.1311 59.93 18.1301C60.9318 18.1548 61.9111 17.8317 62.7016 17.2158C63.0002 16.9589 63.2488 16.6489 63.4347 16.3015H68.006C67.677 17.3043 67.1599 18.2352 66.4822 19.0443C64.855 20.8729 62.6709 21.7871 59.93 21.7871C58.8271 21.8126 57.7304 21.614 56.7065 21.2034C55.6825 20.7927 54.7526 20.1785 53.9729 19.398ZM56.1234 11.8855H63.5986C63.4381 11.0773 63.0009 10.3504 62.3623 9.82981C61.6854 9.263 60.824 8.96429 59.9415 8.9903C59.0559 8.96475 58.1902 9.25635 57.5006 9.81256C56.8388 10.345 56.3578 11.0691 56.1234 11.8855Z" fill="#FFFFFF"/>
<path id="Vector_3" d="M70.75 21.3329V5.79039H75.0166V8.09043H75.169C75.3465 7.60912 75.6272 7.17246 75.9912 6.81103C76.3923 6.38316 76.8794 6.04511 77.4205 5.81913C77.9617 5.59316 78.5445 5.4844 79.1308 5.50001H80.9593V9.59983H78.6593C77.5092 9.59983 76.6103 9.90937 75.9625 10.5285C75.3146 11.1476 74.9945 12.0101 75.0022 13.116V21.3329H70.75Z" fill="#FFFFFF"/>
<path id="Vector_4" d="M81.6509 21.0886C81.2328 20.685 80.9682 20.1485 80.9027 19.5711C80.8371 18.9937 80.9746 18.4115 81.2916 17.9245C81.6086 17.4374 82.0852 17.0759 82.6397 16.9021C83.1942 16.7283 83.7919 16.7529 84.3302 16.9718C84.8685 17.1907 85.3138 17.5902 85.5896 18.1017C85.8654 18.6132 85.9545 19.2048 85.8416 19.7748C85.7287 20.3448 85.4209 20.8578 84.9709 21.2255C84.521 21.5933 83.9571 21.7929 83.376 21.7901C83.0558 21.7968 82.7377 21.738 82.4411 21.6174C82.1444 21.4967 81.8756 21.3168 81.6509 21.0886Z" fill="#FFFFFF"/>
<path id="Vector_5" d="M89.8721 19.5186C88.4997 18.0063 87.8145 16.0206 87.8164 13.5615C87.8183 11.1024 88.5035 9.11664 89.8721 7.60436C90.5058 6.87598 91.2913 6.29519 92.1734 5.90281C93.0555 5.51042 94.0128 5.31596 94.9782 5.33307C96.3075 5.32257 97.6031 5.75107 98.664 6.5521C99.1058 6.90861 99.5052 7.31474 99.8542 7.76249H100.007V5.79021H104.273V21.3328H100.007V19.3519H99.8542C99.5057 19.8026 99.1063 20.2117 98.664 20.5709C97.6031 21.3719 96.3075 21.8004 94.9782 21.7899C94.0128 21.807 93.0555 21.6126 92.1734 21.2202C91.2913 20.8278 90.5058 20.247 89.8721 19.5186ZM93.302 10.2092C92.589 11.0238 92.2334 12.1412 92.2354 13.5615C92.2373 14.9818 92.5928 16.0992 93.302 16.9138C93.6389 17.3092 94.0602 17.624 94.5349 17.8349C95.0096 18.0459 95.5256 18.1477 96.0448 18.1328C96.5829 18.1543 97.1192 18.0575 97.6159 17.8494C98.1127 17.6413 98.5577 17.3268 98.9199 16.9282C99.6539 16.127 100.02 15.0048 100.018 13.5615C100.016 12.1182 99.6434 10.996 98.8997 10.1948C98.5371 9.79676 98.092 9.48273 97.5954 9.27466C97.0988 9.06658 96.5627 8.96948 96.0247 8.99014C95.5088 8.9783 94.9968 9.08157 94.5258 9.29244C94.0548 9.50331 93.6368 9.81647 93.302 10.2092Z" fill="#FFFFFF"/>
<path id="Vector_6" d="M107.625 21.3326V5.79004H111.892V21.3326H107.625Z" fill="#FFFFFF"/>
<path id="Vector_7" d="M8.22839 21.7898C12.7728 21.7898 16.4568 18.1059 16.4568 13.5614C16.4568 9.01699 12.7728 5.33301 8.22839 5.33301C3.68398 5.33301 0 9.01699 0 13.5614C0 18.1059 3.68398 21.7898 8.22839 21.7898Z" fill="#FFFFFF"/>
<path id="Vector_8" d="M34.2739 12.0377C34.0698 11.9974 33.8053 11.9428 33.4804 11.8709L32.6869 11.7013C32.4856 11.661 32.2412 11.6122 31.9566 11.5489C31.725 11.5026 31.4965 11.4422 31.2723 11.3678L30.6772 11.1694C30.4976 11.1172 30.3241 11.0459 30.1597 10.9566C30.033 10.8829 29.9111 10.8013 29.7946 10.7123C29.683 10.6344 29.593 10.5296 29.5329 10.4075C29.4837 10.2971 29.4582 10.1776 29.4582 10.0568C29.4632 9.88063 29.5134 9.70878 29.604 9.55772C29.6947 9.40666 29.8227 9.28147 29.9757 9.1942C30.4697 8.92519 31.0304 8.80346 31.5915 8.84345C33.9893 8.84345 36.9391 9.38683 38.1638 9.63696V5.98277C35.9947 5.57869 33.7949 5.3613 31.5886 5.33301C29.5569 5.33301 27.9564 5.79494 26.7873 6.71879C25.6181 7.64264 25.0354 8.7572 25.0392 10.0625C25.0392 12.5216 26.6445 14.0962 29.8549 14.7862C30.0562 14.8265 30.3868 14.8983 30.844 14.999C31.3011 15.0996 31.6375 15.1715 31.8502 15.2117C32.063 15.252 32.3476 15.3181 32.7127 15.4101C32.988 15.4763 33.2581 15.5628 33.5206 15.6689C33.7018 15.7522 33.8944 15.8471 34.0956 15.9564C34.2666 16.0393 34.4132 16.1651 34.5211 16.3215C34.6039 16.4542 34.6468 16.6079 34.6448 16.7642C34.6448 17.7801 33.7823 18.288 32.0572 18.288C30.9187 18.288 30.0246 17.9631 29.3748 17.3134C29.0833 17.0288 28.855 16.6859 28.7049 16.3071H24.2773C24.5603 17.2985 25.0254 18.2287 25.6487 19.0499C27.0288 20.8784 29.1621 21.7927 32.0486 21.7927C34.2011 21.7927 35.9079 21.2953 37.1691 20.3006C38.4303 19.3058 39.0599 18.127 39.058 16.7642C39.058 14.3243 37.4633 12.7488 34.2739 12.0377Z" fill="#FFFFFF"/>
</g>
</svg>
