<svg width="40" height="40" viewBox="0 0 40 40" fill="none" xmlns="http://www.w3.org/2000/svg">
<path d="M36.5534 5.03708L26.5534 2.53708C26.2983 2.47374 26.0298 2.49188 25.7855 2.58896L13.6605 7.43896L4.05338 5.03708C3.86909 4.99098 3.67672 4.98748 3.49088 5.02686C3.30504 5.06624 3.13062 5.14746 2.98087 5.26435C2.83112 5.38123 2.70998 5.53072 2.62666 5.70143C2.54334 5.87215 2.50002 6.05961 2.5 6.24958V33.7496C2.50003 34.0283 2.5932 34.299 2.76472 34.5187C2.93623 34.7384 3.17625 34.8944 3.44662 34.9621L13.4466 37.4621C13.5459 37.4866 13.6477 37.4992 13.75 37.4996C13.9091 37.4996 14.0668 37.4692 14.2145 37.4098L26.3395 32.5598L35.947 34.9622C36.1313 35.0082 36.3236 35.0117 36.5094 34.9723C36.6952 34.9328 36.8696 34.8516 37.0193 34.7347C37.169 34.6178 37.2901 34.4684 37.3734 34.2977C37.4567 34.127 37.5 33.9395 37.5 33.7496V6.24958C37.5 5.97087 37.4068 5.70016 37.2353 5.48048C37.0638 5.26079 36.8238 5.10472 36.5534 5.03708ZM35 13.7496H27.5V5.35033L35 7.22533V13.7496ZM12.5 23.7496H5V16.2496H12.5V23.7496ZM15 13.7496V9.59596L25 5.59596V13.7496H15ZM25 16.2496V23.7496H15V16.2496H25ZM15 26.2496H25V30.403L15 34.403V26.2496ZM27.5 16.2496H35V23.7496H27.5V16.2496ZM12.5 9.72533V13.7496H5V7.85033L12.5 9.72533ZM5 26.2496H12.5V34.6486L5 32.7736V26.2496ZM27.5 30.273V26.2496H35V32.1486L27.5 30.273Z" fill="#FF8002"/>
</svg>
