<svg width="40" height="40" viewBox="0 0 40 40" fill="none" xmlns="http://www.w3.org/2000/svg">
<path d="M35 6.25C35.6628 6.25076 36.2979 6.51472 36.7666 6.9834C37.2353 7.45207 37.4992 8.08719 37.5 8.75V31.25C37.4991 31.9128 37.2352 32.548 36.7666 33.0166C36.298 33.4852 35.6628 33.7491 35 33.75H5C4.33719 33.7492 3.70207 33.4853 3.2334 33.0166C2.76472 32.5479 2.50076 31.9128 2.5 31.25V8.75C2.50066 8.08716 2.7647 7.4521 3.2334 6.9834C3.7021 6.5147 4.33716 6.25066 5 6.25H35ZM5 8.75V31.25H18.75V8.75H5ZM21.25 8.75V31.25H35.0029L35 8.75H21.25ZM32.5 27.5H23.75V25H32.5V27.5ZM32.5 21.25H23.75V18.75H32.5V21.25ZM32.5 15H23.75V12.5H32.5V15Z" fill="#FF8002"/>
</svg>
