<svg width="16" height="16" viewBox="0 0 16 16" fill="none" xmlns="http://www.w3.org/2000/svg">
<path fill-rule="evenodd" clip-rule="evenodd" d="M4.83335 2.2528C4.58668 2.08797 4.29667 2 4 2C3.60217 2 3.22064 2.15804 2.93934 2.43934C2.65803 2.72064 2.5 3.10218 2.5 3.5C2.5 3.79667 2.58797 4.08668 2.75279 4.33336C2.91762 4.58003 3.15188 4.77229 3.42597 4.88582C3.70006 4.99935 4.00166 5.02906 4.29263 4.97118C4.58361 4.9133 4.85088 4.77044 5.06066 4.56066C5.27044 4.35088 5.4133 4.08361 5.47118 3.79264C5.52906 3.50166 5.49935 3.20006 5.38582 2.92597C5.27229 2.65189 5.08003 2.41762 4.83335 2.2528ZM2.61107 1.42133C3.0222 1.14662 3.50555 1 4 1C4.66304 1 5.29892 1.26339 5.76777 1.73223C6.23661 2.20107 6.5 2.83696 6.5 3.5C6.5 3.99445 6.35338 4.4778 6.07867 4.88893C5.80397 5.30005 5.41352 5.62048 4.95671 5.8097C4.49989 5.99892 3.99723 6.04843 3.51227 5.95196C3.02732 5.8555 2.58186 5.6174 2.23223 5.26777C1.8826 4.91814 1.6445 4.47268 1.54804 3.98773C1.45157 3.50277 1.50108 3.00011 1.6903 2.54329C1.87952 2.08648 2.19995 1.69603 2.61107 1.42133ZM12.8334 6.2528C12.5867 6.08797 12.2967 6 12 6C11.6022 6 11.2206 6.15804 10.9393 6.43934C10.658 6.72064 10.5 7.10218 10.5 7.5C10.5 7.79667 10.588 8.08668 10.7528 8.33335C10.9176 8.58003 11.1519 8.77229 11.426 8.88582C11.7001 8.99935 12.0017 9.02906 12.2926 8.97118C12.5836 8.9133 12.8509 8.77044 13.0607 8.56066C13.2704 8.35088 13.4133 8.08361 13.4712 7.79264C13.5291 7.50166 13.4994 7.20006 13.3858 6.92597C13.2723 6.65189 13.08 6.41762 12.8334 6.2528ZM10.6111 5.42133C11.0222 5.14662 11.5055 5 12 5C12.663 5 13.2989 5.26339 13.7678 5.73223C14.2366 6.20107 14.5 6.83696 14.5 7.5C14.5 7.99445 14.3534 8.4778 14.0787 8.88893C13.804 9.30005 13.4135 9.62048 12.9567 9.8097C12.4999 9.99892 11.9972 10.0484 11.5123 9.95196C11.0273 9.8555 10.5819 9.6174 10.2322 9.26777C9.8826 8.91814 9.6445 8.47268 9.54804 7.98773C9.45157 7.50277 9.50108 7.00011 9.6903 6.54329C9.87952 6.08648 10.2 5.69603 10.6111 5.42133ZM14.5 15H15.5V13.5C15.5 12.837 15.2366 12.2011 14.7678 11.7322C14.2989 11.2634 13.663 11 13 11H11C10.337 11 9.70107 11.2634 9.23223 11.7322C8.76339 12.2011 8.5 12.837 8.5 13.5V15H9.5V13.5C9.5 13.1022 9.65804 12.7206 9.93934 12.4393C10.2206 12.158 10.6022 12 11 12H13C13.3978 12 13.7794 12.158 14.0607 12.4393C14.342 12.7206 14.5 13.1022 14.5 13.5V15ZM7.5 11H6.5V9.5C6.5 9.10217 6.34196 8.72064 6.06066 8.43934C5.77936 8.15804 5.39782 8 5 8H3C2.60218 8 2.22064 8.15804 1.93934 8.43934C1.65804 8.72064 1.5 9.10217 1.5 9.5V11H0.5V9.5C0.5 8.83696 0.763392 8.20107 1.23223 7.73223C1.70107 7.26339 2.33696 7 3 7H5C5.66304 7 6.29893 7.26339 6.76777 7.73223C7.23661 8.20107 7.5 8.83696 7.5 9.5V11Z" fill="#FF8002"/>
</svg>
