<svg width="40" height="40" viewBox="0 0 40 40" fill="none" xmlns="http://www.w3.org/2000/svg">
<path d="M13.75 13.751C14.245 13.7419 14.7372 13.8323 15.1963 14.0176C15.6553 14.2028 16.0719 14.4791 16.4219 14.8291C16.7718 15.1791 17.0482 15.5957 17.2334 16.0547C17.4186 16.5138 17.5091 17.006 17.5 17.501V25.001C17.498 25.6634 17.234 26.2982 16.7656 26.7666C16.2972 27.2349 15.6623 27.499 15 27.501V36.251C14.998 36.9134 14.734 37.5482 14.2656 38.0166C13.7972 38.4849 13.1623 38.749 12.5 38.751H7.5C6.83765 38.749 6.20273 38.485 5.73438 38.0166C5.26602 37.5482 5.00199 36.9133 5 36.251V27.501C4.33765 27.499 3.70273 27.235 3.23438 26.7666C2.76602 26.2982 2.50199 25.6633 2.5 25.001V17.501C2.49093 17.006 2.58233 16.5138 2.76758 16.0547C2.95278 15.5959 3.2283 15.179 3.57812 14.8291C3.92817 14.4791 4.34562 14.2028 4.80469 14.0176C5.26362 13.8324 5.75521 13.7419 6.25 13.751H13.75ZM13.75 16.251H6.25C6.08331 16.241 5.91591 16.266 5.75977 16.3252C5.60368 16.3845 5.46181 16.4767 5.34375 16.5947C5.22575 16.7128 5.13442 16.8547 5.0752 17.0107C5.01594 17.167 4.98993 17.3342 5 17.501V25.001H7.5V36.251H12.5V25.001H15V17.501C15.0101 17.3342 14.985 17.167 14.9258 17.0107C14.8665 16.8545 14.7744 16.7129 14.6562 16.5947C14.5381 16.4766 14.3964 16.3844 14.2402 16.3252C14.084 16.266 13.9167 16.2409 13.75 16.251ZM32.4092 3.75195C33.7482 3.80396 35.017 4.36437 35.957 5.31934C36.9455 6.32841 37.5 7.6851 37.5 9.09766C37.5 10.5102 36.9455 11.8669 35.957 12.876L28.752 20.1748L28.75 20.1719L28.7471 20.1748L21.542 12.876C20.5535 11.8669 20 10.5102 20 9.09766C20 7.6851 20.5535 6.32841 21.542 5.31934C22.482 4.36435 23.7509 3.80401 25.0898 3.75195C26.4292 3.7 27.7387 4.16046 28.75 5.04004C29.7613 4.1606 31.07 3.7 32.4092 3.75195ZM32.2041 6.27539C31.4677 6.27551 30.7605 6.56292 30.2324 7.07617L28.7559 8.58594L28.75 8.5791L28.7432 8.58496L27.2676 7.07617C26.7394 6.56272 26.0315 6.27545 25.2949 6.27539C24.5583 6.27539 23.8505 6.56269 23.3223 7.07617C22.7928 7.61568 22.4961 8.34176 22.4961 9.09766C22.4962 9.85339 22.7929 10.5788 23.3223 11.1182L28.7471 16.6152L28.75 16.6123L28.752 16.6152L34.1768 11.1182C34.7061 10.5787 35.0029 9.85345 35.0029 9.09766C35.0029 8.34176 34.7062 7.61568 34.1768 7.07617C33.6486 6.5628 32.9407 6.27539 32.2041 6.27539ZM9.02441 2.59668C9.99428 2.40379 10.9995 2.50244 11.9131 2.88086C12.8267 3.2593 13.6078 3.90042 14.1572 4.72266C14.7065 5.54478 15 6.51129 15 7.5C14.9985 8.82563 14.4706 10.0968 13.5332 11.0342C12.5959 11.9713 11.3254 12.4984 10 12.5C9.01109 12.5 8.04393 12.2066 7.22168 11.6572C6.39962 11.1079 5.7583 10.3275 5.37988 9.41406C5.00144 8.50043 4.90278 7.49432 5.0957 6.52441C5.28865 5.55473 5.7648 4.664 6.46387 3.96484C7.16313 3.26558 8.05451 2.78961 9.02441 2.59668ZM10 5C9.50555 5 9.02147 5.14717 8.61035 5.42188C8.19943 5.69656 7.87958 6.08729 7.69043 6.54395C7.50129 7.0007 7.4514 7.50341 7.54785 7.98828C7.64433 8.4729 7.88213 8.9181 8.23145 9.26758C8.58103 9.61716 9.02684 9.85566 9.51172 9.95215C9.99662 10.0486 10.4993 9.99874 10.9561 9.80957C11.4129 9.62035 11.8034 9.29979 12.0781 8.88867C12.3527 8.4776 12.5 7.99437 12.5 7.5C12.4993 6.83727 12.2352 6.20204 11.7666 5.7334C11.298 5.26478 10.6627 5.00076 10 5Z" fill="#FF8002"/>
</svg>
