<svg width="28" height="28" viewBox="0 0 28 28" fill="none" xmlns="http://www.w3.org/2000/svg">
<rect width="28" height="28" fill="white" fill-opacity="0.01"/>
<path d="M14.0011 5.705L16.4161 10.5875L16.8186 11.4625L17.6936 11.5938L23.0836 12.3725L19.2511 16.135L18.5948 16.7738L18.7523 17.6488L19.6711 23.0125L14.8498 20.4838L14.0011 20.125L13.1873 20.5538L8.3661 23.0475L9.24109 17.6838L9.39859 16.8088L8.75109 16.135L4.88359 12.3288L10.2736 11.55L11.1486 11.4188L11.5511 10.5438L14.0011 5.705ZM14.0011 1.75L10.0198 9.8175L1.12109 11.1038L7.56109 17.3863L6.03859 26.25L14.0011 22.0675L21.9636 26.25L20.4411 17.3863L26.8811 11.1125L17.9823 9.8175L14.0011 1.75Z" fill="#B3B3B3"/>
</svg>
