<?xml version="1.0" encoding="utf-8"?>
<!-- Generator: Adobe Illustrator 27.9.0, SVG Export Plug-In . SVG Version: 6.00 Build 0)  -->
<svg version="1.1" id="Слой_1" xmlns="http://www.w3.org/2000/svg" xmlns:xlink="http://www.w3.org/1999/xlink" x="0px" y="0px"
	 width="500px" height="135.8px" viewBox="0 0 500 135.8" style="enable-background:new 0 0 500 135.8;" xml:space="preserve">
<style type="text/css">
	.st0{fill:#0D0B68;}
	.st1{fill:#7D71FF;}
</style>
<g>
	<path class="st0" d="M69.9,90.8c5.3,0,9.7-4.3,9.7-9.7V73c0-1,0.8-1.8,1.8-1.8h41.5c1,0,1.8,0.8,1.8,1.8v8.1
		c0,30.2-24.5,54.7-54.7,54.7c-30.2,0-54.7-24.5-54.7-54.7V61.2c0-1-0.8-1.8-1.8-1.8c0,0,0,0,0,0H1.8c-1,0-1.8-0.8-1.8-1.8
		c0,0,0,0,0,0V25.9c0-1,0.8-1.8,1.8-1.8h11.7c1,0,1.8-0.8,1.8-1.8c0,0,0,0,0,0V2.3c0-1,0.8-1.8,1.8-1.8h41.5c1,0,1.8,0.8,1.8,1.8
		v20.1c0,1,0.8,1.8,1.8,1.8h50.5c1,0,1.8,0.8,1.8,1.8v31.8c0,1-0.8,1.8-1.8,1.8c0,0,0,0,0,0H62c-1,0-1.8,0.8-1.8,1.8c0,0,0,0,0,0
		v19.9C60.3,86.4,64.6,90.8,69.9,90.8L69.9,90.8z"/>
	<path class="st0" d="M186.6,90.8c5.3,0,9.7-4.3,9.7-9.7V25.9c0-1,0.8-1.8,1.8-1.8h42.4c1,0,1.8,0.9,1.8,1.9l-0.9,55.1
		c0,30.2-24.5,54.7-54.7,54.7c-30.2,0-54.7-24.5-54.7-54.7V25.9c0-1,0.8-1.8,1.8-1.8h41.5c1,0,1.8,0.8,1.8,1.8v55.2
		C176.9,86.4,181.3,90.8,186.6,90.8L186.6,90.8z"/>
	<path class="st1" d="M308.8,60.3l-5.3,21.5c-1.2,4.4,1.9,8.8,6.5,9c6.1,0.2,11.4-3.8,13-9.7l2.3-8.5c0.2-0.8,0.9-1.3,1.7-1.3h41.4
		c1,0,1.8,0.8,1.8,1.8c0,0.2,0,0.3-0.1,0.5l-5.1,18.6c-7,25.8-30.5,43.7-57.2,43.7c-32.3,0-55.7-30.7-47.2-61.8l2.9-12.7
		c0.3-0.9-0.3-1.9-1.2-2.2c-0.1,0-0.3-0.1-0.5-0.1h-11.3c-1,0-1.8-0.8-1.8-1.8c0-0.2,0-0.3,0.1-0.5l8.7-31.8
		c0.2-0.8,0.9-1.3,1.7-1.3h13.2c0.8,0,1.5-0.5,1.7-1.3l6.4-21.1c0.2-0.8,0.9-1.3,1.7-1.3h41.4c1,0,1.8,0.8,1.8,1.8
		c0,0.2,0,0.3-0.1,0.5l-5.9,19.2c-0.3,0.9,0.3,1.9,1.2,2.2c0.1,0,0.3,0.1,0.5,0.1h50.3c1,0,1.8,0.8,1.8,1.8c0,0.2,0,0.3-0.1,0.5
		l-8.7,31.8c-0.2,0.8-0.9,1.3-1.7,1.3h-52.3C309.7,59,309.1,59.6,308.8,60.3L308.8,60.3z"/>
	<path class="st1" d="M455.1,25.2l-15.4,56.5c-1.5,5.3-6.3,9-11.8,9c-5,0-8.6-4.8-7.3-9.6l15-55.1c0.3-0.9-0.3-1.9-1.2-2.2
		c-0.1,0-0.3-0.1-0.5-0.1h-41.4c-0.8,0-1.5,0.5-1.7,1.3l-13.9,50.9c-8.2,30.1,14.4,59.7,45.6,59.7c28,0,52.6-18.8,60-45.8l17.4-63.8
		c0.3-0.9-0.3-1.9-1.2-2.2c-0.1,0-0.3-0.1-0.5-0.1h-41.4C456.1,23.9,455.4,24.4,455.1,25.2L455.1,25.2z"/>
</g>
</svg>
