<svg width="40" height="40" viewBox="0 0 40 40" fill="none" xmlns="http://www.w3.org/2000/svg">
<path d="M23.75 40H16.25V37.5H23.75V40ZM26.25 35H13.75V32.5H26.25V35ZM20 5C26.875 5 32.5 10.625 32.5 17.5C32.5 23 30 25.375 28.125 27C26.875 28.125 26.25 28.875 26.25 30H23.75C23.75 27.625 25.125 26.375 26.5 25.125C28.25 23.625 30 21.875 30 17.5C30 12 25.5 7.5 20 7.5C14.5 7.5 10 12 10 17.5C10 21.875 11.75 23.625 13.5 25.125C14.875 26.375 16.25 27.75 16.25 30H13.75C13.75 28.875 13.125 28.125 11.875 27C10 25.375 7.5 23 7.5 17.5C7.5 10.625 13.125 5 20 5ZM5 18.75H2.5V16.25H5V18.75ZM37.5 18.75H35V16.25H37.5V18.75ZM10.2773 6.02246L8.50977 7.79102L6.74219 6.02246L8.50977 4.25488L10.2773 6.02246ZM33.2578 5.99609L31.4902 7.76367L29.7227 5.99609L31.4902 4.22852L33.2578 5.99609ZM21.25 2.5H18.75V0H21.25V2.5Z" fill="#005EE0"/>
</svg>
