<svg width="40" height="40" viewBox="0 0 40 40" fill="none" xmlns="http://www.w3.org/2000/svg">
<path d="M37.5 35H2.5V32.5H37.5V35ZM37.5 30H2.5V27.5H37.5V30ZM35 5C35.6625 5.00168 36.2971 5.2659 36.7656 5.73438C37.2341 6.20285 37.4983 6.83748 37.5 7.5V22.5C37.4991 23.1628 37.2352 23.798 36.7666 24.2666C36.298 24.7352 35.6628 24.9991 35 25H5C4.33748 24.9983 3.70285 24.7341 3.23438 24.2656C2.7659 23.7971 2.50168 23.1625 2.5 22.5V7.5C2.50168 6.83748 2.7659 6.20285 3.23438 5.73438C3.70285 5.2659 4.33748 5.00168 5 5H35ZM5 22.5H35V7.5H5V22.5ZM19.0244 10.0957C19.9942 9.90279 20.9995 10.0025 21.9131 10.3809C22.8266 10.7592 23.6078 11.3996 24.1572 12.2217C24.7066 13.0439 25 14.0111 25 15C24.9985 16.3256 24.4715 17.5968 23.5342 18.5342C22.5968 19.4715 21.3256 19.9985 20 20C19.0111 20 18.0439 19.7066 17.2217 19.1572C16.3996 18.6078 15.7592 17.8266 15.3809 16.9131C15.0025 15.9995 14.9028 14.9943 15.0957 14.0244C15.2886 13.0545 15.7656 12.1641 16.4648 11.4648C17.1641 10.7656 18.0545 10.2886 19.0244 10.0957ZM10 12.5C10.663 12.5 11.2987 12.7636 11.7676 13.2324C12.2364 13.7013 12.5 14.337 12.5 15C12.5 15.4943 12.3536 15.9776 12.0791 16.3887C11.8045 16.7997 11.4137 17.1203 10.957 17.3096C10.5004 17.4987 9.99751 17.5485 9.5127 17.4521C9.02774 17.3557 8.58205 17.1172 8.23242 16.7676C7.88279 16.4179 7.64431 15.9723 7.54785 15.4873C7.45151 15.0025 7.50127 14.4996 7.69043 14.043C7.87967 13.5863 8.2003 13.1955 8.61133 12.9209C9.02237 12.6464 9.5057 12.5 10 12.5ZM20 12.5C19.5057 12.5 19.0224 12.6464 18.6113 12.9209C18.2003 13.1955 17.8797 13.5863 17.6904 14.043C17.5013 14.4996 17.4515 15.0025 17.5479 15.4873C17.6443 15.9723 17.8828 16.4179 18.2324 16.7676C18.5821 17.1172 19.0277 17.3557 19.5127 17.4521C19.9975 17.5485 20.5004 17.4987 20.957 17.3096C21.4137 17.1203 21.8045 16.7997 22.0791 16.3887C22.3536 15.9776 22.5 15.4943 22.5 15C22.4993 14.3372 22.2353 13.7021 21.7666 13.2334C21.2979 12.7647 20.6628 12.5007 20 12.5ZM30 12.5C30.663 12.5 31.2987 12.7636 31.7676 13.2324C32.2364 13.7013 32.5 14.337 32.5 15C32.5 15.4943 32.3536 15.9776 32.0791 16.3887C31.8045 16.7997 31.4137 17.1203 30.957 17.3096C30.5004 17.4987 29.9975 17.5485 29.5127 17.4521C29.0277 17.3557 28.5821 17.1172 28.2324 16.7676C27.8828 16.4179 27.6443 15.9723 27.5479 15.4873C27.4515 15.0025 27.5013 14.4996 27.6904 14.043C27.8797 13.5863 28.2003 13.1955 28.6113 12.9209C29.0224 12.6464 29.5057 12.5 30 12.5Z" fill="#005EE0"/>
</svg>
