<svg width="288" height="29" viewBox="0 0 288 29" fill="none" xmlns="http://www.w3.org/2000/svg">
<g clip-path="url(#clip0_2130_4395)">
<mask id="mask0_2130_4395" style="mask-type:luminance" maskUnits="userSpaceOnUse" x="0" y="0" width="288" height="29">
<path d="M287.147 0H0.972656V28.6174H287.147V0Z" fill="white"/>
</mask>
<g mask="url(#mask0_2130_4395)">
<path d="M223.028 0.553467L215.645 28.0748H221.604L228.977 0.553467H223.028ZM212.856 0.553467L209.918 11.4817H198.709L201.635 0.553467H195.686L188.315 28.0748H194.264L197.319 16.6691H208.53L205.473 28.0748H211.386L218.759 0.553467H212.856ZM174.282 23.3107C171.343 23.3107 169.197 22.486 167.832 20.8038C166.525 19.1109 166.199 16.9404 166.899 14.3141C167.622 11.6336 169.103 9.47404 171.331 7.78108C173.594 6.09899 176.184 5.26336 179.111 5.26336C182.565 5.26336 185.06 6.72841 185.911 9.20273L191.767 6.48967C190.25 2.51773 186.006 0 180.535 0C175.997 0 171.879 1.37824 168.17 4.12386C164.461 6.83694 162.081 10.2663 160.997 14.3141C159.912 18.362 160.472 21.7371 162.711 24.4935C164.939 27.2501 168.322 28.6174 172.859 28.6174C178.377 28.6174 183.917 26.1106 187.58 22.1386L183.171 19.4255C181.105 21.8238 177.723 23.3107 174.282 23.3107ZM143.593 0.553467L142.205 5.74086H150.312L144.328 28.0748H150.277L156.261 5.74086H164.414L165.802 0.553467H143.593ZM141.389 5.74086L142.777 0.553467H124.324L116.94 28.0748H135.615L137.003 22.8875H124.289L125.945 16.7125H137.365L138.741 11.6011H127.31L128.884 5.74086H141.389ZM117.652 3.22313C116.194 1.4542 114.059 0.553467 111.26 0.553467H99.1869L91.8034 28.0748H97.7522L100.318 18.5141H104.844L108.367 28.0748H114.782L110.886 17.6892C114.771 16.235 117.943 13.0879 118.853 9.66937C119.53 7.15164 119.121 4.99205 117.652 3.22313ZM112.904 9.66937C112.309 11.9158 109.953 13.7607 107.714 13.7607H101.59L103.771 5.62149H109.895C112.134 5.62149 113.511 7.43381 112.904 9.66937ZM74.9949 0.553467L73.5952 5.74086H81.702L75.7182 28.0748H81.6671L87.6624 5.74086H95.8043L97.204 0.553467H74.9949ZM44.5858 0.553467L32.4781 13.5654L29.1771 6.17495L29.1539 6.15323C27.3576 2.55028 23.6717 0 19.3907 0C15.1099 0 12.6954 0.748806 10.3625 2.23558C8.02963 3.70063 6.53659 5.69745 5.87171 8.18262C5.20684 10.6895 5.68507 12.5778 7.20144 13.8366C8.77615 15.063 10.2575 15.649 12.777 16.3978C15.0633 17.0272 16.5796 17.6132 17.3845 18.1667C18.201 18.6768 18.4693 19.4255 18.2127 20.4023C17.7577 22.0952 15.9148 23.3107 12.6021 23.3107C9.28937 23.3107 7.20144 21.8999 6.78153 19.1109L0.972656 21.8238C1.52088 26.0238 5.00854 28.6174 11.004 28.6174C14.2351 28.6174 17.0695 27.8795 19.4957 26.3819C21.9219 24.8843 23.4966 22.8875 24.1848 20.3263C24.6048 18.7527 24.4998 17.3745 24.1032 16.4304C23.7999 15.4862 22.6801 14.5095 21.9103 13.9994C21.5486 13.7173 20.9771 13.446 20.2306 13.1747C19.4957 12.8599 18.9126 12.6212 18.4693 12.5018L16.568 11.8724C14.5034 11.243 13.1503 10.6569 12.4621 10.1469C11.8322 9.59341 11.6339 8.88801 11.8672 8.01983C12.2988 6.41369 14.7833 5.15483 18.2476 5.15483C20.8838 5.15483 23.4966 7.97642 24.0682 10.3422L24.1497 10.2988L29.5971 22.9959H30.2853L42.2063 10.2228L37.424 28.0748H43.3378L50.7096 0.553467H44.5858ZM68.1947 13.9994C67.833 13.7173 67.2614 13.446 66.515 13.1747C65.7801 12.8599 65.1968 12.6212 64.7536 12.5018L62.8524 11.8724C60.776 11.243 59.4347 10.6569 58.7465 10.1469C58.1165 9.59341 57.9183 8.88801 58.1516 8.01983C58.5832 6.41369 60.4029 5.26336 62.864 5.26336C65.4886 5.26336 67.1099 6.44626 67.693 8.81205L73.397 6.17495C72.3705 2.27899 69.1394 0 64.2754 0C61.5576 0 58.9797 0.748806 56.6468 2.23558C54.314 3.70063 52.8209 5.69745 52.156 8.18262C51.4912 10.6895 51.9695 12.5778 53.4859 13.8366C55.0605 15.063 56.5418 15.649 59.0614 16.3978C61.3476 17.0272 62.864 17.6132 63.6688 18.1667C64.4853 18.6768 64.7536 19.4255 64.497 20.4023C64.0421 22.0952 62.1992 23.3107 58.8865 23.3107C55.5737 23.3107 53.4859 21.8999 53.0659 19.1109L47.2571 21.8238C47.8053 26.0238 51.2929 28.6174 57.2884 28.6174C60.5195 28.6174 63.3539 27.8795 65.7801 26.3819C68.2063 24.8843 69.781 22.8875 70.4692 20.3263C70.889 18.7527 70.784 17.3745 70.3875 16.4304C70.0843 15.4862 68.9645 14.5095 68.1947 13.9994ZM250.719 0.553467L246.217 17.3419L237.771 0.553467H233.246L225.874 28.0748H231.822L236.337 11.243L244.759 28.0748H249.284L256.668 0.553467H250.719ZM272.007 13.294L270.724 18.0907H279.869C277.909 21.3465 274.282 23.3107 269.662 23.3107C266.559 23.3107 264.285 22.486 262.838 20.8038C261.438 19.1109 261.066 16.9404 261.765 14.3467C262.465 11.7205 263.958 9.55 266.256 7.8679C268.578 6.13154 271.179 5.26336 274.071 5.26336C277.652 5.26336 280.334 6.83694 281.152 9.08336L286.961 6.41369C285.421 2.51773 281.175 0 275.53 0C271.039 0 266.922 1.37824 263.107 4.16727C259.351 6.95631 256.925 10.3422 255.852 14.3467C254.79 18.3186 255.396 21.7045 257.707 24.4935C260.027 27.2501 263.538 28.6174 268.192 28.6174C272.556 28.6174 276.462 27.4019 279.869 24.971C283.286 22.5293 285.527 19.3388 286.575 15.4102L287.147 13.294H272.007Z" fill="#AEB0B3"/>
</g>
</g>
<defs>
<clipPath id="clip0_2130_4395">
<rect width="286.174" height="28.6174" fill="white" transform="translate(0.972656)"/>
</clipPath>
</defs>
</svg>
