<svg width="128" height="29" viewBox="0 0 128 29" fill="none" xmlns="http://www.w3.org/2000/svg">
<path d="M58.2031 9.01501C59.0602 8.64354 60.0029 8.43494 60.9941 8.43494L70.0615 8.48865C73.9467 8.48877 77.1093 11.6515 77.1094 15.5394V21.8763C77.1091 25.764 73.9466 28.926 70.0615 28.9261L60.9941 28.8724C57.1087 28.8724 53.9453 25.71 53.9453 21.8217V15.4857L53.959 13.976L53.9453 1.75134L58.2031 0.926147V9.01501ZM8.2041 8.30896L10.6973 8.30212L19.7617 8.35681C23.6609 8.35681 26.8359 11.5301 26.8359 15.432V28.8353H22.585V15.432C22.585 13.8748 21.3178 12.6069 19.7598 12.6068L10.6992 12.5531C9.14143 12.5532 7.87402 13.8211 7.87402 15.3783V28.7816H3.62402V28.3695L3.60547 12.5531H0.862305L1.8457 8.30212H8.2041V8.30896ZM51.8701 20.6752L51.8584 20.6732V21.7621C51.8583 25.6501 48.6955 28.8128 44.8105 28.8129L35.8555 28.7592C31.9706 28.759 28.8077 25.5963 28.8076 21.7084V9.82751L28.8096 9.82654L28.8076 8.23669L33.0654 7.4115V20.6752L33.043 20.6722V21.7084C33.043 23.2601 34.3061 24.5238 35.8584 24.5238L44.8086 24.5765C46.3608 24.5764 47.624 23.3139 47.624 21.7621V18.6205L47.6123 8.23669L51.8701 7.4115V20.6752ZM122.013 12.5677H111.315C110.39 12.5677 109.637 13.32 109.637 14.2455V15.2631C109.637 16.1892 110.39 16.9418 111.315 16.9418H121.366C124.628 16.942 127.28 19.5953 127.28 22.8568C127.28 26.1173 124.758 28.8078 121.496 28.808H103.337L104.162 24.642H121.366C122.292 24.6417 123.045 23.7811 123.045 22.8568C123.045 21.9315 122.292 21.1773 121.366 21.1771H111.315C108.054 21.1771 105.401 18.5247 105.401 15.2631V14.2455C105.401 10.9843 108.054 8.33142 111.315 8.33142H122.993L122.013 12.5677ZM96.2041 8.36072C99.5225 8.36076 102.223 11.0605 102.223 14.3802V21.2103L97.4785 21.2386H83.2773L83.3008 21.8451C83.3008 23.329 84.5079 24.6419 85.9902 24.642H102.158L101.203 28.7699H85.9902C82.1718 28.7698 79.0655 25.664 79.0654 21.8451V14.3802C79.0654 11.0606 81.7648 8.36088 85.084 8.36072H96.2041ZM60.9961 12.6703C59.5636 12.6704 58.3778 13.7469 58.2031 15.1322V22.1761C58.3777 23.5618 59.5635 24.637 60.9961 24.6371L70.0654 24.6185C71.6178 24.6185 72.8748 23.4278 72.875 21.8763V15.5394C72.8748 13.9879 71.6118 12.7241 70.0596 12.724L60.9961 12.6703ZM85.084 12.5961C84.1008 12.5962 83.3008 13.3969 83.3008 14.3802V16.975H97.9873V14.3802C97.9873 13.3967 97.1868 12.5961 96.2041 12.5961H85.084Z" fill="#AEB0B3"/>
</svg>
