<svg width="40" height="40" viewBox="0 0 40 40" fill="none" xmlns="http://www.w3.org/2000/svg">
<path d="M20 1.25C20.3283 1.25 20.6537 1.31477 20.957 1.44043C21.2602 1.56608 21.5356 1.75034 21.7676 1.98242L29.0156 9.23145L32.6074 5.68652C32.4545 5.15733 32.4808 4.59203 32.6816 4.0791C32.8825 3.56626 33.2472 3.1342 33.7188 2.84961C34.1904 2.56499 34.7426 2.44359 35.29 2.50488C35.8375 2.56623 36.3501 2.80649 36.7471 3.18848C37.144 3.57045 37.403 4.0735 37.4854 4.61816C37.5676 5.16269 37.4683 5.71906 37.2021 6.20117C36.9358 6.68343 36.5176 7.06471 36.0127 7.28516C35.508 7.50546 34.9447 7.55324 34.4102 7.4209L30.7842 10.999L38.0176 18.2324C38.2497 18.4644 38.4339 18.7398 38.5596 19.043C38.6852 19.3463 38.75 19.6717 38.75 20C38.75 20.3283 38.6852 20.6537 38.5596 20.957C38.4339 21.2602 38.2497 21.5356 38.0176 21.7676L30.7842 29.001L34.4102 32.5791C34.9435 32.4476 35.5055 32.4957 36.0088 32.7158C36.5123 32.9362 36.9299 33.3166 37.1953 33.7979C37.4607 34.2791 37.5598 34.8346 37.4775 35.3779C37.3953 35.9212 37.1361 36.4226 36.7402 36.8037C36.3443 37.1847 35.8332 37.4249 35.2871 37.4863C34.741 37.5477 34.1894 37.4272 33.7188 37.1436C33.2481 36.8599 32.8844 36.4285 32.6836 35.917C32.4828 35.4054 32.4564 34.8417 32.6084 34.3135L29.0166 30.7686L21.7676 38.0176C21.5355 38.2497 21.2602 38.4339 20.957 38.5596C20.6537 38.6852 20.3283 38.75 20 38.75C19.6719 38.75 19.3471 38.6851 19.0439 38.5596C18.7407 38.4339 18.4645 38.2498 18.2324 38.0176L10.999 30.7842L7.4209 34.4102C7.55233 34.9437 7.50461 35.5064 7.28418 36.0098C7.06376 36.5129 6.6832 36.9291 6.20215 37.1943C5.7209 37.4596 5.16537 37.559 4.62207 37.4766C4.07879 37.3942 3.57821 37.1343 3.19727 36.7383C2.81637 36.3423 2.57592 35.8322 2.51465 35.2861C2.4534 34.7401 2.57476 34.1893 2.8584 33.7188C3.1421 33.2482 3.57253 32.8834 4.08398 32.6826C4.59553 32.4819 5.15943 32.4564 5.6875 32.6084L9.23145 29.0156L1.98242 21.7676C1.75034 21.5356 1.56608 21.2602 1.44043 20.957C1.31477 20.6537 1.25 20.3283 1.25 20C1.25 19.6717 1.31477 19.3463 1.44043 19.043C1.56609 18.7398 1.75033 18.4644 1.98242 18.2324L9.23145 10.9834L5.6875 7.3916C5.15824 7.54476 4.59318 7.5191 4.08008 7.31836C3.56713 7.11766 3.13442 6.75368 2.84961 6.28223C2.56478 5.81058 2.44367 5.25752 2.50488 4.70996C2.56612 4.16245 2.80657 3.65001 3.18848 3.25293C3.57037 2.85603 4.0726 2.59613 4.61719 2.51367C5.16192 2.43119 5.71881 2.53066 6.20117 2.79688C6.68355 3.06312 7.06459 3.48143 7.28516 3.98633C7.5057 4.49121 7.55332 5.05504 7.4209 5.58984L10.999 9.21582L18.2324 1.98242C18.4644 1.75033 18.7398 1.56609 19.043 1.44043C19.3463 1.31477 19.6717 1.25 20 1.25ZM3.75 20L20 36.25L36.25 20L20 3.75L3.75 20ZM22.5 21.25C23.4942 21.2511 24.4474 21.6466 25.1504 22.3496C25.8534 23.0526 26.2489 24.0058 26.25 25V27.5H23.75V25C23.7496 24.6686 23.6181 24.3506 23.3838 24.1162C23.1494 23.8819 22.8314 23.7504 22.5 23.75H17.5C17.1686 23.7504 16.8506 23.8819 16.6162 24.1162C16.3819 24.3506 16.2504 24.6686 16.25 25V27.5H13.75V25C13.7511 24.0058 14.1466 23.0526 14.8496 22.3496C15.5526 21.6466 16.5058 21.2511 17.5 21.25H22.5ZM19.1465 11.334C19.995 11.1652 20.8745 11.252 21.6738 11.583C22.4732 11.9141 23.157 12.4749 23.6377 13.1943C24.1184 13.9138 24.375 14.7597 24.375 15.625C24.3736 16.7849 23.912 17.8966 23.0918 18.7168C22.2716 19.537 21.1599 19.9986 20 20C19.1347 20 18.2888 19.7434 17.5693 19.2627C16.8499 18.782 16.2891 18.0982 15.958 17.2988C15.627 16.4995 15.5402 15.62 15.709 14.7715C15.8778 13.9228 16.2944 13.1431 16.9062 12.5312C17.5181 11.9194 18.2978 11.5028 19.1465 11.334ZM20 13.75C19.6292 13.75 19.2663 13.8604 18.958 14.0664C18.6499 14.2724 18.4094 14.5648 18.2676 14.9072C18.1257 15.2498 18.0888 15.6275 18.1611 15.9912C18.2335 16.3548 18.4117 16.689 18.6738 16.9512C18.9359 17.2133 19.2702 17.3915 19.6338 17.4639C19.9975 17.5362 20.3752 17.4993 20.7178 17.3574C21.0602 17.2156 21.3526 16.9751 21.5586 16.667C21.7646 16.3587 21.875 15.9958 21.875 15.625C21.8744 15.1279 21.6767 14.6513 21.3252 14.2998C20.9737 13.9483 20.4971 13.7506 20 13.75Z" fill="#015177"/>
</svg>
