<svg width="88" height="29" viewBox="0 0 88 29" fill="none" xmlns="http://www.w3.org/2000/svg">
<path d="M74.1288 28.6319C71.878 28.6319 70.2353 27.9848 69.2006 26.6904C68.1658 25.3702 67.6484 23.5711 67.6484 21.2931C67.6484 18.9116 68.1658 16.1416 69.2006 12.9835C70.5717 8.71226 72.2662 5.48939 74.284 3.31492C76.3017 1.14045 78.5268 0.0532227 80.9578 0.0532227C83.2091 0.0532227 84.8512 0.713328 85.8864 2.03354C86.9217 3.32786 87.4387 5.11403 87.4387 7.39204C87.4387 9.7736 86.9217 12.5434 85.8864 15.7016C84.515 19.9729 82.8207 23.1957 80.8024 25.3702C78.7853 27.5447 76.5604 28.6319 74.1288 28.6319ZM74.7495 23.7005C75.448 23.7005 76.1853 23.0404 76.9614 21.7202C77.7634 20.4 78.7076 18.0573 79.7939 14.692C80.9845 11.0679 81.5792 8.49222 81.5792 6.96492C81.5792 5.6447 81.1653 4.98461 80.3376 4.98461C79.6385 4.98461 78.8885 5.6447 78.0867 6.96492C77.3106 8.28512 76.3794 10.6279 75.2929 13.9931C74.1029 17.5655 73.5078 20.1411 73.5078 21.7202C73.5078 23.0404 73.9217 23.7005 74.7495 23.7005Z" fill="#AEB0B3"/>
<path d="M59.847 12.5176H68.2286L63.0288 28.1272H58.644L59.032 25.9138C58.3335 26.7681 57.6221 27.3894 56.8978 27.7776C56.1993 28.14 55.3844 28.3212 54.4531 28.3212C52.8492 28.3212 51.6592 27.7389 50.8831 26.574C50.133 25.3832 49.7578 23.7523 49.7578 21.6814C49.7578 19.1963 50.2882 16.297 51.3488 12.9836C54.1686 4.33744 58.1524 0.0144043 63.3004 0.0144043C65.3959 0.0144043 66.9739 0.687452 68.0345 2.03355C69.1211 3.35377 69.729 5.08815 69.8583 7.23674L64.387 9.06173C64.2835 7.56032 64.0895 6.51191 63.8049 5.91652C63.5462 5.32113 63.184 5.02344 62.7183 5.02344C61.8906 5.02344 61.0757 5.67061 60.2738 6.96493C59.4977 8.25925 58.5534 10.602 57.441 13.9931C56.3804 17.2548 55.8501 19.7399 55.8501 21.4485C55.8501 22.8722 56.2381 23.5841 57.0142 23.5841C57.7903 23.5841 58.5146 23.0534 59.1872 21.9921C59.8598 20.9306 60.4549 19.6234 60.9723 18.0702L61.0886 17.7208H58.1396L59.847 12.5176Z" fill="#AEB0B3"/>
<path d="M43.1749 17.4487C43.2267 17.2675 43.3431 16.8534 43.5242 16.2062C43.7311 15.559 43.951 14.9119 44.1838 14.2648L48.6852 0.557861H54.3117L45.154 28.127H38.6349L39.4886 13.8764C39.5403 12.9446 39.5921 12.2068 39.6438 11.6632C39.6955 11.0937 39.7343 10.7183 39.7602 10.5371C39.7085 10.7183 39.5791 11.1325 39.3722 11.7796C39.1911 12.4268 38.9842 13.074 38.7513 13.7211L34.0171 28.127H28.3906L37.5484 0.557861H44.2227L43.4078 14.1095L43.1749 17.4487Z" fill="#AEB0B3"/>
<path d="M31.8147 0.557861L27.8179 28.127H21.9197L22.7734 23.1567H17.8452L15.517 28.127H9.26953L23.5494 0.557861H31.8147ZM23.7047 17.9536L25.218 9.33338L25.8389 6.03285C25.3215 7.3013 24.8688 8.32381 24.4808 9.1004L20.3287 17.9536H23.7047Z" fill="#AEB0B3"/>
<path d="M9.77151 7.43072C9.6681 9.16512 9.57744 10.2782 9.49989 10.7701C9.81034 10.0453 10.3147 9.04863 11.0132 7.7802L14.9325 0.557861H21.8008L9.92673 18.769L6.82244 28.127H0.691406L3.95093 18.303L4.02848 0.557861H10.082L9.77151 7.43072Z" fill="#AEB0B3"/>
</svg>
