<svg width="126" height="27" viewBox="0 0 126 27" fill="none" xmlns="http://www.w3.org/2000/svg">
<path d="M77.8203 7.41173L74.1145 14.8235C75.9674 14.8235 77.8203 16.6764 77.8203 19.147V25.9411L72.8792 25.9411V20.9999C72.8792 19.7646 71.6439 18.5293 70.4086 18.5293L64.2322 18.5293V25.9411L59.291 25.9411L59.291 0H64.2322V14.8235L69.1733 14.8235L72.8792 7.41173L77.8203 7.41173Z" fill="white"/>
<path d="M49.4121 7.41174H54.3533V25.9411H49.4121V7.41174Z" fill="white"/>
<path d="M39.5275 9.88217V7.41159H44.4688V25.9442L39.5275 25.9409V23.4703C39.5275 23.4703 37.6746 26.5586 32.7334 26.5586C27.7923 26.5586 23.4688 23.4703 23.4688 16.6763C23.4688 9.88217 27.7923 6.79395 32.7334 6.79395C37.6746 6.79395 39.5275 9.88217 39.5275 9.88217ZM33.9687 22.8527C37.6746 22.8527 39.5275 19.7645 39.5275 16.6763C39.5275 13.588 37.6746 10.4998 33.9687 10.4998C30.2628 10.4998 28.4099 13.588 28.4099 16.6763C28.4099 19.7645 30.2628 22.8527 33.9687 22.8527Z" fill="white"/>
<path d="M11.1176 6.79409C17.294 6.79409 19.7646 11.1176 19.7646 14.8235V25.9411H14.8235V16.0587C14.8235 12.9705 12.3529 11.1176 9.88231 11.1176C7.41173 11.1176 4.94115 12.9705 4.94115 16.0587V25.9411H0V0H4.94115V9.88231C4.94115 9.88231 6.79409 6.79409 11.1176 6.79409Z" fill="white"/>
<path d="M54.3533 0H49.4121V3.70587H54.3533V0Z" fill="#E01F2E"/>
<path d="M106.234 14.8235H116.117V18.5294H106.234V14.8235Z" fill="#E01F2E"/>
<path d="M106.234 0H121.058V3.70586H106.234V0Z" fill="#E01F2E"/>
<path d="M111.176 7.41174H125.999V11.1176H111.176V7.41174Z" fill="#E01F2E"/>
<path d="M81.5312 18.5293V7.41174H86.4724V17.2941C86.4724 20.3823 88.3265 22.8528 91.4136 22.8528C94.5006 22.8528 96.3547 20.3823 96.3547 17.2941V7.41174L101.296 7.41174V18.5293C101.296 22.2352 98.8265 26.5587 91.4136 26.5587C84.0006 26.5587 81.5312 22.2352 81.5312 18.5293Z" fill="white"/>
</svg>
