<svg overflow="visible" style="display: block;" viewBox="0 0 41 40" fill="none" xmlns="http://www.w3.org/2000/svg">
<g id="Frame 2684365">
<g id="Text">
<path d="M1.00509 26V7.39916H5.38888V26H1.00509ZM3.2091 4.7592C2.5148 4.7592 1.91737 4.52911 1.41683 4.06893C0.916287 3.60068 0.666016 3.03959 0.666016 2.38565C0.666016 1.72365 0.916287 1.16255 1.41683 0.702374C1.91737 0.234125 2.5148 0 3.2091 0C3.91147 0 4.5089 0.234125 5.00137 0.702374C5.50191 1.16255 5.75218 1.72365 5.75218 2.38565C5.75218 3.03959 5.50191 3.60068 5.00137 4.06893C4.5089 4.52911 3.91147 4.7592 3.2091 4.7592Z" fill="var(--fill-0, #005EE0)"/>
<path d="M14.2806 15.1011V26H9.8968V7.39916H14.0868V10.5599H14.3048C14.7327 9.5184 15.4149 8.69089 16.3514 8.07732C17.296 7.46375 18.4626 7.15696 19.8512 7.15696C21.1348 7.15696 22.253 7.43146 23.2056 7.98044C24.1663 8.52942 24.9091 9.32464 25.4338 10.3661C25.9667 11.4075 26.229 12.671 26.221 14.1565V26H21.8372V14.8347C21.8372 13.5914 21.5143 12.6185 20.8684 11.9162C20.2306 11.2138 19.3466 10.8626 18.2163 10.8626C17.4494 10.8626 16.7672 11.0321 16.1697 11.3712C15.5804 11.7022 15.1162 12.1826 14.7771 12.8123C14.4461 13.442 14.2806 14.2049 14.2806 15.1011Z" fill="var(--fill-0, #005EE0)"/>
</g>
</g>
</svg>
