<svg width="40" height="40" viewBox="0 0 38 35" fill="none" xmlns="http://www.w3.org/2000/svg">
<path d="M37.5 35H35V31.25C35 30.2554 34.6049 29.3016 33.9017 28.5983C33.1984 27.8951 32.2446 27.5 31.25 27.5H26.25C25.2554 27.5 24.3016 27.8951 23.5983 28.5983C22.8951 29.3016 22.5 30.2554 22.5 31.25V35H20V31.25C20 29.5924 20.6585 28.0027 21.8306 26.8306C23.0027 25.6585 24.5924 25 26.25 25H31.25C32.9076 25 34.4973 25.6585 35.6694 26.8306C36.8415 28.0027 37.5 29.5924 37.5 31.25V35Z" fill="#275DD8"/>
<path d="M28.75 12.5C29.4917 12.5 30.2167 12.7199 30.8334 13.132C31.4501 13.544 31.9307 14.1297 32.2146 14.8149C32.4984 15.5002 32.5726 16.2542 32.4279 16.9816C32.2833 17.709 31.9261 18.3772 31.4017 18.9017C30.8772 19.4261 30.209 19.7833 29.4816 19.9279C28.7542 20.0726 28.0002 19.9984 27.3149 19.7145C26.6297 19.4307 26.044 18.9501 25.632 18.3334C25.2199 17.7167 25 16.9917 25 16.25C25 15.2554 25.3951 14.3016 26.0983 13.5983C26.8016 12.8951 27.7554 12.5 28.75 12.5ZM28.75 10C27.5139 10 26.3055 10.3666 25.2777 11.0533C24.2499 11.7401 23.4488 12.7162 22.9758 13.8582C22.5027 15.0003 22.3789 16.2569 22.6201 17.4693C22.8612 18.6817 23.4565 19.7953 24.3306 20.6694C25.2047 21.5435 26.3183 22.1388 27.5307 22.3799C28.7431 22.6211 29.9997 22.4973 31.1418 22.0242C32.2838 21.5512 33.2599 20.7501 33.9467 19.7223C34.6334 18.6945 35 17.4861 35 16.25C35 14.5924 34.3415 13.0027 33.1694 11.8306C31.9973 10.6585 30.4076 10 28.75 10Z" fill="#275DD8"/>
<path d="M17.5 25H15V21.25C15 20.2554 14.6049 19.3016 13.9017 18.5983C13.1984 17.8951 12.2446 17.5 11.25 17.5H6.25C5.25544 17.5 4.30161 17.8951 3.59835 18.5983C2.89509 19.3016 2.5 20.2554 2.5 21.25V25H0V21.25C0 19.5924 0.65848 18.0027 1.83058 16.8306C3.00269 15.6585 4.5924 15 6.25 15H11.25C12.9076 15 14.4973 15.6585 15.6694 16.8306C16.8415 18.0027 17.5 19.5924 17.5 21.25V25Z" fill="#275DD8"/>
<path d="M8.75 2.5C9.49168 2.5 10.2167 2.71993 10.8334 3.13199C11.4501 3.54404 11.9307 4.12971 12.2145 4.81494C12.4984 5.50016 12.5726 6.25416 12.4279 6.98159C12.2833 7.70902 11.9261 8.3772 11.4017 8.90165C10.8772 9.4261 10.209 9.78325 9.48159 9.92795C8.75416 10.0726 8.00016 9.99838 7.31494 9.71455C6.62971 9.43072 6.04404 8.95007 5.63199 8.33339C5.21993 7.7167 5 6.99168 5 6.25C5 5.25544 5.39509 4.30161 6.09835 3.59835C6.80161 2.89509 7.75544 2.5 8.75 2.5ZM8.75 0C7.51387 0 6.30549 0.366556 5.27769 1.05331C4.24988 1.74007 3.4488 2.71619 2.97575 3.85823C2.50271 5.00027 2.37893 6.25693 2.62009 7.46931C2.86125 8.6817 3.4565 9.79534 4.33058 10.6694C5.20466 11.5435 6.3183 12.1388 7.53069 12.3799C8.74307 12.6211 9.99973 12.4973 11.1418 12.0242C12.2838 11.5512 13.2599 10.7501 13.9467 9.72231C14.6334 8.69451 15 7.48613 15 6.25C15 4.5924 14.3415 3.00269 13.1694 1.83058C11.9973 0.65848 10.4076 0 8.75 0Z" fill="#275DD8"/>
</svg>
