<svg  overflow="visible" style="display: block;" viewBox="0 0 34 37" fill="none" xmlns="http://www.w3.org/2000/svg">
<path id="Vector" d="M19.335 18.7502H30C30.9942 18.7513 31.9474 19.1468 32.6504 19.8498C33.3534 20.5528 33.7489 21.506 33.75 22.5002V26.2502C33.7492 26.913 33.4853 27.5481 33.0166 28.0168C32.5479 28.4855 31.9128 28.7494 31.25 28.7502V33.7502C31.2492 34.413 30.9853 35.0481 30.5166 35.5168C30.0479 35.9855 29.4128 36.2494 28.75 36.2502H25C24.3372 36.2494 23.7021 35.9855 23.2334 35.5168C22.7647 35.0481 22.5008 34.413 22.5 33.7502V26.2502H25V33.7502H28.75V26.2502H31.25V22.5002C31.2497 22.1688 31.1181 21.8508 30.8838 21.6164C30.6494 21.382 30.3314 21.2505 30 21.2502H18.165L11.915 13.7502H3.75C3.41857 13.7505 3.10057 13.882 2.86621 14.1164C2.63186 14.3508 2.5003 14.6688 2.5 15.0002V22.5002H5V33.7502H10V25.0002H12.5V33.7502C12.4992 34.413 12.2353 35.0481 11.7666 35.5168C11.2979 35.9855 10.6628 36.2494 10 36.2502H5C4.33719 36.2494 3.70207 35.9855 3.2334 35.5168C2.76472 35.0481 2.50076 34.413 2.5 33.7502V25.0002C1.83719 24.9994 1.20207 24.7355 0.733398 24.2668C0.264723 23.7981 0.000760917 23.163 0 22.5002V15.0002C0.00109185 14.006 0.396585 13.0528 1.09961 12.3498C1.80263 11.6468 2.75577 11.2513 3.75 11.2502H13.085L19.335 18.7502ZM26.0215 8.83417C26.87 8.66539 27.7495 8.75219 28.5488 9.0832C29.3482 9.41433 30.032 9.97507 30.5127 10.6945C30.9934 11.414 31.25 12.2599 31.25 13.1252C31.2486 14.2851 30.787 15.3968 29.9668 16.217C29.1466 17.0372 28.0349 17.4988 26.875 17.5002C26.0097 17.5002 25.1638 17.2436 24.4443 16.7629C23.7249 16.2822 23.1641 15.5984 22.833 14.799C22.502 13.9997 22.4152 13.1202 22.584 12.2717C22.7528 11.423 23.1694 10.6433 23.7812 10.0314C24.3931 9.41959 25.1728 9.00298 26.0215 8.83417ZM26.875 11.2502C26.5042 11.2502 26.1413 11.3606 25.833 11.5666C25.5249 11.7726 25.2844 12.065 25.1426 12.4074C25.0007 12.75 24.9638 13.1277 25.0361 13.4914C25.1085 13.855 25.2867 14.1892 25.5488 14.4514C25.8109 14.7135 26.1452 14.8917 26.5088 14.9641C26.8725 15.0364 27.2502 14.9995 27.5928 14.8576C27.9352 14.7157 28.2276 14.4753 28.4336 14.1672C28.6396 13.8588 28.75 13.496 28.75 13.1252C28.7494 12.6281 28.5517 12.1515 28.2002 11.8C27.8487 11.4485 27.3721 11.2508 26.875 11.2502ZM6.52441 0.095893C7.49425 -0.0970194 8.49951 0.00267774 9.41309 0.381049C10.3266 0.759429 11.1078 1.39981 11.6572 2.22187C12.2066 3.04411 12.5 4.01128 12.5 5.00019C12.4986 6.32585 11.9716 7.59699 11.0342 8.53437C10.0968 9.47175 8.82566 9.9988 7.5 10.0002C6.51109 10.0002 5.54392 9.70682 4.72168 9.15742C3.89962 8.60802 3.25924 7.82676 2.88086 6.91328C2.50249 5.9997 2.40279 4.99444 2.5957 4.0246C2.78864 3.05472 3.2656 2.16428 3.96484 1.46503C4.66409 0.765786 5.55453 0.288827 6.52441 0.095893ZM7.5 2.50019C7.0057 2.50019 6.52237 2.64655 6.11133 2.92109C5.7003 3.19573 5.37967 3.58648 5.19043 4.04316C5.00127 4.49983 4.95151 5.00268 5.04785 5.48749C5.14431 5.97245 5.38279 6.41814 5.73242 6.76777C6.08205 7.1174 6.52774 7.35588 7.0127 7.45234C7.49751 7.54868 8.00035 7.49892 8.45703 7.30976C8.91371 7.12052 9.30446 6.79989 9.5791 6.38886C9.85364 5.97782 10 5.49449 10 5.00019C9.99924 4.33738 9.73528 3.70226 9.2666 3.23359C8.79793 2.76491 8.16281 2.50095 7.5 2.50019Z" fill="var(--fill-0, #275DD8)"/>
</svg>
