<svg preserveAspectRatio="none" width="100%" height="100%" overflow="visible" style="display: block;" viewBox="0 0 21 25" fill="none" xmlns="http://www.w3.org/2000/svg">
<g id="Vector">
<path d="M19.25 24.5H17.5V21.875C17.4986 20.7151 17.0373 19.6031 16.2171 18.7829C15.3969 17.9627 14.2849 17.5014 13.125 17.5H7.875C6.7151 17.5014 5.60309 17.9627 4.78292 18.7829C3.96274 19.6031 3.50137 20.7151 3.5 21.875V24.5H1.75V21.875C1.7519 20.2511 2.39782 18.6943 3.54607 17.5461C4.69432 16.3978 6.25113 15.7519 7.875 15.75H13.125C14.7489 15.7519 16.3057 16.3978 17.4539 17.5461C18.6022 18.6943 19.2481 20.2511 19.25 21.875V24.5Z" fill="#B3B3B3"/>
<path d="M0.875 3.5C0.642936 3.5 0.420376 3.59219 0.256282 3.75628C0.0921874 3.92038 0 4.14294 0 4.375V12.25H1.75V4.375C1.75 4.14294 1.65781 3.92038 1.49372 3.75628C1.32962 3.59219 1.10706 3.5 0.875 3.5Z" fill="#B3B3B3"/>
<path d="M0 0V1.75H4.375V7.875C4.375 9.49945 5.02031 11.0574 6.16897 12.206C7.31763 13.3547 8.87555 14 10.5 14C12.1245 14 13.6824 13.3547 14.831 12.206C15.9797 11.0574 16.625 9.49945 16.625 7.875V1.75H21V0H0ZM6.125 1.75H14.875V4.375H6.125V1.75ZM10.5 12.25C9.33968 12.25 8.22688 11.7891 7.40641 10.9686C6.58594 10.1481 6.125 9.03532 6.125 7.875V6.125H14.875V7.875C14.875 9.03532 14.4141 10.1481 13.5936 10.9686C12.7731 11.7891 11.6603 12.25 10.5 12.25Z" fill="#B3B3B3"/>
</g>
</svg>
