<svg preserveAspectRatio="none" width="100%" height="100%" overflow="visible" style="display: block;" viewBox="0 0 27 25" fill="none" xmlns="http://www.w3.org/2000/svg">
<g id="Vector">
<path d="M26.25 24.5H24.5V21.875C24.5 21.1788 24.2234 20.5111 23.7312 20.0188C23.2389 19.5266 22.5712 19.25 21.875 19.25H18.375C17.6788 19.25 17.0111 19.5266 16.5188 20.0188C16.0266 20.5111 15.75 21.1788 15.75 21.875V24.5H14V21.875C14 20.7147 14.4609 19.6019 15.2814 18.7814C16.1019 17.9609 17.2147 17.5 18.375 17.5H21.875C23.0353 17.5 24.1481 17.9609 24.9686 18.7814C25.7891 19.6019 26.25 20.7147 26.25 21.875V24.5Z" fill="#B3B3B3"/>
<path d="M20.125 8.75C20.6442 8.75 21.1517 8.90395 21.5834 9.19239C22.0151 9.48083 22.3515 9.8908 22.5502 10.3705C22.7489 10.8501 22.8008 11.3779 22.6996 11.8871C22.5983 12.3963 22.3483 12.864 21.9812 13.2312C21.614 13.5983 21.1463 13.8483 20.6371 13.9496C20.1279 14.0508 19.6001 13.9989 19.1205 13.8002C18.6408 13.6015 18.2308 13.2651 17.9424 12.8334C17.654 12.4017 17.5 11.8942 17.5 11.375C17.5 10.6788 17.7766 10.0111 18.2688 9.51884C18.7611 9.02656 19.4288 8.75 20.125 8.75ZM20.125 7C19.2597 7 18.4138 7.25659 17.6944 7.73732C16.9749 8.21805 16.4142 8.90133 16.083 9.70076C15.7519 10.5002 15.6653 11.3799 15.8341 12.2285C16.0029 13.0772 16.4196 13.8567 17.0314 14.4686C17.6433 15.0804 18.4228 15.4971 19.2715 15.6659C20.1201 15.8347 20.9998 15.7481 21.7992 15.417C22.5987 15.0858 23.2819 14.5251 23.7627 13.8056C24.2434 13.0862 24.5 12.2403 24.5 11.375C24.5 10.2147 24.0391 9.10188 23.2186 8.28141C22.3981 7.46094 21.2853 7 20.125 7Z" fill="#B3B3B3"/>
<path d="M12.25 17.5H10.5V14.875C10.5 14.1788 10.2234 13.5111 9.73116 13.0188C9.23887 12.5266 8.57119 12.25 7.875 12.25H4.375C3.67881 12.25 3.01113 12.5266 2.51884 13.0188C2.02656 13.5111 1.75 14.1788 1.75 14.875V17.5H0V14.875C0 13.7147 0.460936 12.6019 1.28141 11.7814C2.10188 10.9609 3.21468 10.5 4.375 10.5H7.875C9.03532 10.5 10.1481 10.9609 10.9686 11.7814C11.7891 12.6019 12.25 13.7147 12.25 14.875V17.5Z" fill="#B3B3B3"/>
<path d="M6.125 1.75C6.64418 1.75 7.15169 1.90395 7.58337 2.19239C8.01505 2.48083 8.3515 2.8908 8.55018 3.37046C8.74886 3.85011 8.80085 4.37791 8.69956 4.88711C8.59828 5.39631 8.34827 5.86404 7.98116 6.23116C7.61404 6.59827 7.14631 6.84828 6.63711 6.94956C6.12791 7.05085 5.60011 6.99886 5.12046 6.80018C4.6408 6.6015 4.23083 6.26505 3.94239 5.83337C3.65395 5.40169 3.5 4.89418 3.5 4.375C3.5 3.67881 3.77656 3.01113 4.26884 2.51884C4.76113 2.02656 5.42881 1.75 6.125 1.75ZM6.125 0C5.25971 0 4.41385 0.256589 3.69438 0.73732C2.97492 1.21805 2.41416 1.90133 2.08303 2.70076C1.75189 3.50019 1.66525 4.37985 1.83406 5.22852C2.00287 6.07719 2.41955 6.85674 3.03141 7.46859C3.64326 8.08045 4.42281 8.49713 5.27148 8.66594C6.12015 8.83475 6.99981 8.74811 7.79924 8.41697C8.59867 8.08584 9.28195 7.52508 9.76268 6.80562C10.2434 6.08615 10.5 5.24029 10.5 4.375C10.5 3.21468 10.0391 2.10188 9.21859 1.28141C8.39812 0.460936 7.28532 0 6.125 0Z" fill="#B3B3B3"/>
</g>
</svg>
