<svg preserveAspectRatio="none" width="100%" height="100%" overflow="visible" style="display: block;" viewBox="0 0 27 27" fill="none" xmlns="http://www.w3.org/2000/svg">
<path id="Vector" d="M21 15.8389C21.5575 15.9524 22.0754 16.1743 22.5342 16.4785L23.8369 15.1758L25.0742 16.4131L23.7715 17.7158C24.0756 18.1746 24.2975 18.6925 24.4111 19.25H26.25V21H24.4111C24.2976 21.5575 24.0757 22.0754 23.7715 22.5342L25.0742 23.8369L23.8369 25.0742L22.5342 23.7715C22.0754 24.0756 21.5575 24.2975 21 24.4111V26.25H19.25V24.4111C18.6925 24.2976 18.1746 24.0757 17.7158 23.7715L16.4131 25.0742L15.1758 23.8369L16.4785 22.5342C16.1744 22.0754 15.9525 21.5575 15.8389 21H14V19.25H15.8389C15.9524 18.6925 16.1743 18.1746 16.4785 17.7158L15.1758 16.4131L16.4131 15.1758L17.7158 16.4785C18.1746 16.1744 18.6925 15.9525 19.25 15.8389V14H21V15.8389ZM20.125 17.5C18.6775 17.5 17.5 18.6775 17.5 20.125C17.5 21.5725 18.6775 22.75 20.125 22.75C21.5725 22.75 22.75 21.5725 22.75 20.125C22.75 18.6775 21.5725 17.5 20.125 17.5ZM1.75 18.375H9.625V20.125H1.75C0.78505 20.125 0 19.34 0 18.375V7.875H1.75V18.375ZM5.25 14.875H13.125V16.625H5.25C4.28348 16.625 3.5 15.8415 3.5 14.875V4.375H5.25V14.875ZM15.75 0C16.7165 0 17.5 0.783475 17.5 1.75V11.375C17.5 12.3415 16.7165 13.125 15.75 13.125H8.75C7.78348 13.125 7 12.3415 7 11.375V1.75C7 0.783475 7.78348 0 8.75 0H15.75ZM8.75 11.375H15.75V1.75H8.75V11.375Z" fill="var(--fill-0, #AEB0B3)"/>
</svg>
