<svg  overflow="visible" style="display: block;" viewBox="0 0 25 35" fill="none" xmlns="http://www.w3.org/2000/svg">
<path id="Vector" d="M22.5 15H7.5V7.5C7.5 6.17392 8.02678 4.90215 8.96447 3.96447C9.90215 3.02678 11.1739 2.5 12.5 2.5C13.8261 2.5 15.0979 3.02678 16.0355 3.96447C16.9732 4.90215 17.5 6.17392 17.5 7.5H20C20 5.51088 19.2098 3.60322 17.8033 2.1967C16.3968 0.790176 14.4891 0 12.5 0C10.5109 0 8.60322 0.790176 7.1967 2.1967C5.79018 3.60322 5 5.51088 5 7.5V15H2.5C1.83696 15 1.20107 15.2634 0.732233 15.7322C0.263392 16.2011 0 16.837 0 17.5V32.5C0 33.163 0.263392 33.7989 0.732233 34.2678C1.20107 34.7366 1.83696 35 2.5 35H22.5C23.163 35 23.7989 34.7366 24.2678 34.2678C24.7366 33.7989 25 33.163 25 32.5V17.5C25 16.837 24.7366 16.2011 24.2678 15.7322C23.7989 15.2634 23.163 15 22.5 15ZM22.5 32.5H2.5V17.5H22.5V32.5Z" fill="var(--fill-0, #275DD8)"/>
</svg>
