<svg preserveAspectRatio="none" width="100%" height="100%" overflow="visible" style="display: block;" viewBox="0 0 26 25" fill="none" xmlns="http://www.w3.org/2000/svg">
<path id="Vector" d="M12.88 3.955L15.295 8.8375L15.6975 9.7125L16.5725 9.84375L21.9625 10.6225L18.13 14.385L17.4738 15.0238L17.6313 15.8988L18.55 21.2625L13.7288 18.7338L12.88 18.375L12.0663 18.8038L7.245 21.2975L8.12 15.9338L8.2775 15.0588L7.63 14.385L3.7625 10.5788L9.1525 9.8L10.0275 9.66875L10.43 8.79375L12.88 3.955ZM12.88 0L8.89875 8.0675L0 9.35375L6.44 15.6363L4.9175 24.5L12.88 20.3175L20.8425 24.5L19.32 15.6363L25.76 9.3625L16.8612 8.0675L12.88 0Z" fill="var(--fill-0, #B3B3B3)"/>
</svg>
