<svg width="40" height="40" viewBox="0 0 24 35" fill="none" xmlns="http://www.w3.org/2000/svg">
<path d="M5.79612 34.9004C5.54031 34.7925 5.32774 34.6024 5.19193 34.3602C5.05613 34.118 5.00483 33.8375 5.04612 33.5629L7.32112 18.7504H1.28362C1.09221 18.7556 0.902181 18.7167 0.728187 18.6368C0.554193 18.5568 0.400888 18.438 0.280099 18.2894C0.15931 18.1409 0.074267 17.9665 0.0315314 17.7799C-0.0112042 17.5932 -0.0104899 17.3993 0.0336188 17.2129L3.78362 0.962947C3.8496 0.683284 4.00993 0.434894 4.23759 0.259589C4.46526 0.0842833 4.74638 -0.00723245 5.03362 0.000446765H17.5336C17.7204 -0.0001882 17.9049 0.0410264 18.0736 0.121062C18.2423 0.201098 18.391 0.317921 18.5086 0.462947C18.6279 0.609611 18.7124 0.781429 18.7557 0.965467C18.799 1.14951 18.8 1.34097 18.7586 1.52545L16.5961 11.2504H22.5336C22.7679 11.25 22.9976 11.3154 23.1965 11.4391C23.3954 11.5629 23.5555 11.7401 23.6586 11.9504C23.7482 12.1524 23.7827 12.3744 23.7585 12.594C23.7344 12.8136 23.6524 13.0228 23.5211 13.2004L7.27112 34.4504C7.16129 34.6133 7.01465 34.7479 6.84309 34.8434C6.67152 34.939 6.47985 34.9928 6.28362 35.0004C6.11636 34.9973 5.9511 34.9634 5.79612 34.9004V34.9004ZM13.4711 13.7504L15.9711 2.50045H6.03362L2.85862 16.2504H10.2461L8.25862 29.1004L20.0336 13.7504H13.4711Z" fill="#005EE0"/>
</svg>
