<svg preserveAspectRatio="none" width="100%" height="100%" overflow="visible" style="display: block;" viewBox="0 0 35 23" fill="none" xmlns="http://www.w3.org/2000/svg">
<path id="Vector" d="M22.5 0V2.5H30.7324L20 13.2324L14.6337 7.86625C14.5177 7.75013 14.38 7.65801 14.2283 7.59516C14.0767 7.53231 13.9141 7.49996 13.75 7.49996C13.5859 7.49996 13.4233 7.53231 13.2717 7.59516C13.12 7.65801 12.9823 7.75013 12.8663 7.86625L0 20.7324L1.76762 22.5L13.75 10.5176L19.1162 15.8838C19.2323 15.9999 19.37 16.092 19.5217 16.1548C19.6733 16.2177 19.8359 16.25 20 16.25C20.1641 16.25 20.3267 16.2177 20.4783 16.1548C20.63 16.092 20.7677 15.9999 20.8838 15.8838L32.5 4.26762V12.5H35V0H22.5Z" fill="var(--fill-0, #005EE0)"/>
</svg>
