<svg preserveAspectRatio="none" width="100%" height="100%" overflow="visible" style="display: block;" viewBox="0 0 35 35" fill="none" xmlns="http://www.w3.org/2000/svg">
<g id="Vector">
<path d="M32.5 35.0002H25C24.3372 34.9995 23.7017 34.7358 23.2331 34.2672C22.7644 33.7985 22.5008 33.163 22.5 32.5002V25.0002C22.5008 24.3374 22.7644 23.702 23.2331 23.2333C23.7017 22.7646 24.3372 22.501 25 22.5002H32.5C33.1628 22.501 33.7982 22.7646 34.2669 23.2333C34.7356 23.702 34.9992 24.3374 35 25.0002V32.5002C34.9992 33.163 34.7356 33.7985 34.2669 34.2672C33.7982 34.7358 33.1628 34.9995 32.5 35.0002ZM24.9985 25.0002L25 32.5002H32.5V25.0002H24.9985Z" fill="#005EE0"/>
<path d="M20 30.0002H12.5C11.5058 29.9991 10.5526 29.6037 9.84955 28.9007C9.14653 28.1977 8.75109 27.2445 8.75 26.2502V21.2502H11.25V26.2502C11.2503 26.5817 11.3821 26.8994 11.6165 27.1338C11.8508 27.3681 12.1686 27.4999 12.5 27.5002H20V30.0002Z" fill="#005EE0"/>
<path d="M30 20.0002H27.5V16.2502C27.4997 15.9188 27.3679 15.6011 27.1335 15.3667C26.8992 15.1324 26.5814 15.0006 26.25 15.0002H20V12.5002H26.25C27.2442 12.5013 28.1974 12.8968 28.9004 13.5998C29.6035 14.3028 29.9989 15.256 30 16.2502V20.0002Z" fill="#005EE0"/>
<path d="M16.25 20.0002C16.032 20.0003 15.8177 19.9433 15.6286 19.8349L10 16.611L4.371 19.8349C4.1599 19.9558 3.9181 20.0125 3.67525 19.998C3.4324 19.9836 3.19905 19.8985 3.00382 19.7534C2.80858 19.6082 2.65995 19.4093 2.57614 19.1809C2.49233 18.9525 2.47699 18.7046 2.532 18.4676L3.85925 12.7526L0.336246 8.97824C0.182044 8.81305 0.0755075 8.60915 0.0279705 8.38822C-0.0195665 8.1673 -0.00632585 7.93763 0.066284 7.72363C0.138894 7.50964 0.268157 7.31933 0.44032 7.17295C0.612484 7.02658 0.821107 6.92961 1.044 6.89237L6.294 6.01499L8.87575 0.703616C8.97715 0.494961 9.13462 0.318642 9.33054 0.194393C9.52645 0.0701432 9.75307 0.00286582 9.98505 8.95397e-05C10.217 -0.00268674 10.4452 0.0591477 10.644 0.178673C10.8429 0.298198 11.0045 0.470698 11.1109 0.676866L13.8666 6.01562L18.9621 6.89324C19.1843 6.93148 19.3921 7.02912 19.5633 7.1758C19.7346 7.32249 19.8629 7.51276 19.9348 7.72646C20.0068 7.94017 20.0195 8.16934 19.9718 8.38971C19.9241 8.61008 19.8176 8.81344 19.6637 8.97824L16.1407 12.7532L17.4674 18.468C17.5098 18.6512 17.5104 18.8417 17.469 19.0252C17.4276 19.2087 17.3454 19.3805 17.2284 19.5278C17.1113 19.6751 16.9626 19.7941 16.7932 19.8759C16.6238 19.9577 16.4381 20.0002 16.25 20.0002ZM10 13.7502C10 13.7502 10.4287 13.9752 10.6214 14.086L14.3839 16.2411L13.4042 12.0207L16.2567 8.96412L12.2154 8.26799L10.0334 4.04049L7.97862 8.26824L3.7525 8.97449L6.59562 12.0207L5.6155 16.2411L9.37862 14.086C9.57125 13.9752 10 13.7502 10 13.7502Z" fill="#005EE0"/>
</g>
</svg>
