<svg  overflow="visible" style="display: block;" viewBox="0 0 35 35" fill="none" xmlns="http://www.w3.org/2000/svg">
<g id="Vector">
<path d="M26.9825 13.75L23.75 10.5175V5H26.25V9.48251L28.75 11.9825L26.9825 13.75Z" fill="#275DD8"/>
<path d="M25 20C23.0222 20 21.0888 19.4135 19.4443 18.3147C17.7998 17.2159 16.5181 15.6541 15.7612 13.8268C15.0043 11.9996 14.8063 9.98891 15.1921 8.0491C15.578 6.10929 16.5304 4.32746 17.9289 2.92894C19.3275 1.53041 21.1093 0.578004 23.0491 0.192152C24.9889 -0.1937 26.9996 0.00433281 28.8268 0.761209C30.6541 1.51809 32.2159 2.79981 33.3147 4.4443C34.4135 6.08879 35 8.02219 35 10C34.997 12.6512 33.9424 15.193 32.0677 17.0677C30.193 18.9424 27.6512 19.997 25 20ZM25 2.5C23.5166 2.5 22.0666 2.93987 20.8332 3.76398C19.5999 4.58809 18.6386 5.75943 18.0709 7.12988C17.5032 8.50032 17.3547 10.0083 17.6441 11.4632C17.9335 12.918 18.6478 14.2544 19.6967 15.3033C20.7456 16.3522 22.082 17.0665 23.5368 17.3559C24.9917 17.6453 26.4997 17.4968 27.8701 16.9291C29.2406 16.3614 30.4119 15.4002 31.236 14.1668C32.0601 12.9334 32.5 11.4834 32.5 10C32.4978 8.01155 31.7069 6.10517 30.3009 4.69912C28.8948 3.29307 26.9885 2.50219 25 2.5Z" fill="#275DD8"/>
<path d="M8.2875 20L17.0375 27.5H35V25H17.9625L9.2125 17.5H2.5V4.48107e-06H0V32.5C0.000826935 33.1628 0.264485 33.7982 0.733146 34.2669C1.20181 34.7355 1.83721 34.9992 2.5 35H35V32.5H2.5V20H8.2875Z" fill="#275DD8"/>
</g>
</svg>
