<svg overflow="visible" style="display: block;" viewBox="0 0 31 30" fill="none" xmlns="http://www.w3.org/2000/svg">
<path id="Vector" d="M29.1742 10.0742L1.67417 0.0741677C1.45091 -0.00636862 1.20935 -0.021682 0.977708 0.030018C0.746071 0.0817179 0.533939 0.198294 0.366117 0.366117C0.198294 0.533939 0.0817179 0.746071 0.030018 0.977708C-0.021682 1.20934 -0.00636862 1.45091 0.0741677 1.67417L10.0742 29.1742C10.1615 29.4158 10.3212 29.6246 10.5314 29.7722C10.7417 29.9198 10.9923 29.9991 11.2492 29.9992V29.9992C11.4995 29.9994 11.7442 29.9245 11.9514 29.7841C12.1587 29.6437 12.319 29.4442 12.4117 29.2117L17.2117 17.2117L29.2117 12.4117C29.4488 12.3217 29.653 12.1617 29.7971 11.953C29.9412 11.7442 30.0184 11.4966 30.0184 11.2429C30.0184 10.9893 29.9412 10.7416 29.7971 10.5329C29.653 10.3241 29.4488 10.1641 29.2117 10.0742H29.1742ZM15.7867 15.0742L15.2867 15.2742L15.0867 15.7742L11.2492 25.2492L3.33667 3.33667L25.2492 11.2492L15.7867 15.0742Z" fill="var(--fill-0, #005EE0)"/>
</svg>
