<svg preserveAspectRatio="none" width="100%" height="100%" overflow="visible" style="display: block;" viewBox="0 0 119 29" fill="none" xmlns="http://www.w3.org/2000/svg">
<g id="Supporting text">
<path d="M0 28.1966V0.380301H5.03899V12.156H17.9285V0.380301H22.981V28.1966H17.9285V16.3801H5.03899V28.1966H0Z" fill="var(--fill-0, white)"/>
<path d="M33.5635 28.1966H28.1849L37.9777 0.380301H44.1983L54.0046 28.1966H48.6261L41.1966 6.08481H40.9793L33.5635 28.1966ZM33.74 17.2901H48.4088V21.3376H33.74V17.2901Z" fill="var(--fill-0, white)"/>
<path d="M82.7464 14.2884C82.7464 17.2856 82.185 19.8526 81.0622 21.9895C79.9485 24.1174 78.4273 25.7473 76.4986 26.8791C74.579 28.011 72.4013 28.5769 69.9656 28.5769C67.5298 28.5769 65.3476 28.011 63.419 26.8791C61.4994 25.7382 59.9781 24.1038 58.8554 21.976C57.7416 19.839 57.1847 17.2765 57.1847 14.2884C57.1847 11.2913 57.7416 8.72881 58.8554 6.60094C59.9781 4.46401 61.4994 2.82962 63.419 1.69777C65.3476 0.565924 67.5298 0 69.9656 0C72.4013 0 74.579 0.565924 76.4986 1.69777C78.4273 2.82962 79.9485 4.46401 81.0622 6.60094C82.185 8.72881 82.7464 11.2913 82.7464 14.2884ZM77.6803 14.2884C77.6803 12.1787 77.3498 10.3994 76.6888 8.95065C76.0368 7.49283 75.1313 6.39268 73.9723 5.65019C72.8133 4.89864 71.4777 4.52286 69.9656 4.52286C68.4534 4.52286 67.1178 4.89864 65.9588 5.65019C64.7998 6.39268 63.8898 7.49283 63.2288 8.95065C62.5769 10.3994 62.2509 12.1787 62.2509 14.2884C62.2509 16.3982 62.5769 18.182 63.2288 19.6398C63.8898 21.0886 64.7998 22.1887 65.9588 22.9403C67.1178 23.6828 68.4534 24.054 69.9656 24.054C71.4777 24.054 72.8133 23.6828 73.9723 22.9403C75.1313 22.1887 76.0368 21.0886 76.6888 19.6398C77.3498 18.182 77.6803 16.3982 77.6803 14.2884Z" fill="var(--fill-0, white)"/>
<path d="M89.0402 0.380301H95.2065L103.465 20.5362H103.79L112.048 0.380301H118.215V28.1966H113.379V9.08647H113.121L105.434 28.1151H101.821L94.1336 9.04573H93.8755V28.1966H89.0402V0.380301Z" fill="var(--fill-0, white)"/>
</g>
</svg>
