<svg preserveAspectRatio="none" width="100%" height="100%" overflow="visible" style="display: block;" viewBox="0 0 172 29" fill="none" xmlns="http://www.w3.org/2000/svg">
<path id="Vector" d="M4.27846 16.011C4.82784 17.9332 6.3174 18.8942 8.74721 18.8942C10.3107 18.8942 11.4938 18.383 12.2967 17.3606L15.5927 19.2009C14.0292 21.389 11.7263 22.4829 8.68378 22.4829C6.06387 22.4829 3.96156 21.7162 2.37697 20.1825C0.792346 18.6489 0 16.7165 0 14.3854C0 12.0748 0.78179 10.1526 2.34531 8.61896C3.90878 7.06493 5.91595 6.28789 8.36682 6.28789C10.691 6.28789 12.6031 7.06493 14.1032 8.61896C15.6245 10.1731 16.3851 12.0951 16.3851 14.3854C16.3851 14.8966 16.3322 15.4385 16.2266 16.011H4.27846ZM4.21509 12.9437H12.2967C12.0643 11.9009 11.5784 11.1239 10.8389 10.6127C10.1206 10.1015 9.29647 9.84585 8.36682 9.84585C7.26818 9.84585 6.35971 10.1219 5.64129 10.674C4.92292 11.2057 4.44751 11.9623 4.21509 12.9437ZM28.4618 6.28789C30.5958 6.28789 32.4128 7.07512 33.913 8.64964C35.4342 10.2037 36.1948 12.1156 36.1948 14.3854C36.1948 16.6552 35.4342 18.5773 33.913 20.1518C32.4128 21.7059 30.5958 22.4829 28.4618 22.4829C26.2434 22.4829 24.5319 21.7365 23.3276 20.2438V28.188H19.2393V6.7173H23.3276V8.52695C24.5319 7.03426 26.2434 6.28789 28.4618 6.28789ZM24.5636 17.514C25.3877 18.3115 26.4335 18.7102 27.7012 18.7102C28.9689 18.7102 30.0148 18.3115 30.8388 17.514C31.6839 16.696 32.1065 15.6532 32.1065 14.3854C32.1065 13.1176 31.6839 12.085 30.8388 11.2875C30.0148 10.4695 28.9689 10.0605 27.7012 10.0605C26.4335 10.0605 25.3877 10.4695 24.5636 11.2875C23.7396 12.085 23.3276 13.1176 23.3276 14.3854C23.3276 15.6532 23.7396 16.696 24.5636 17.514ZM41.1065 4.87691C40.4303 4.87691 39.8387 4.64172 39.3316 4.17146C38.8456 3.68076 38.6027 3.10812 38.6027 2.45376C38.6027 1.79941 38.8456 1.22688 39.3316 0.736181C39.8387 0.245394 40.4303 0 41.1065 0C41.8036 0 42.3952 0.245394 42.8812 0.736181C43.3882 1.22688 43.6418 1.79941 43.6418 2.45376C43.6418 3.10812 43.3882 3.68076 42.8812 4.17146C42.3952 4.64172 41.8036 4.87691 41.1065 4.87691ZM39.0781 22.0535V6.7173H43.1665V22.0535H39.0781ZM54.4513 22.4829C52.0636 22.4829 50.067 21.7059 48.4612 20.1518C46.8766 18.5977 46.0842 16.6756 46.0842 14.3854C46.0842 12.0951 46.8766 10.1731 48.4612 8.61896C50.067 7.06493 52.0636 6.28789 54.4513 6.28789C55.9936 6.28789 57.3987 6.64565 58.6661 7.36141C59.9341 8.07711 60.8953 9.03819 61.5504 10.2446L58.0324 12.2383C57.7153 11.6045 57.2297 11.1035 56.5746 10.7354C55.9409 10.3673 55.2221 10.1832 54.4195 10.1832C53.1937 10.1832 52.1798 10.582 51.377 11.3794C50.5741 12.1565 50.1726 13.1585 50.1726 14.3854C50.1726 15.5918 50.5741 16.5938 51.377 17.3912C52.1798 18.1683 53.1937 18.5569 54.4195 18.5569C55.2436 18.5569 55.9722 18.383 56.6064 18.0354C57.261 17.6673 57.7471 17.1663 58.0642 16.5325L61.6135 18.4955C60.9162 19.7019 59.9341 20.6732 58.6661 21.4094C57.3987 22.1251 55.9936 22.4829 54.4513 22.4829ZM83.9607 6.7173H87.955V21.3174C87.955 23.6894 87.1408 25.499 85.514 26.7464C83.908 27.9937 81.9647 28.6174 79.6828 28.6174C77.971 28.6174 76.4605 28.3005 75.1503 27.6666C73.8615 27.0326 72.869 26.1023 72.1716 24.8753L75.6573 22.943C76.4605 24.3743 77.8448 25.09 79.8096 25.09C81.0984 25.09 82.1123 24.7629 82.8519 24.1086C83.5915 23.4542 83.9607 22.5238 83.9607 21.3174V19.6611C82.757 21.2152 81.0671 21.9922 78.89 21.9922C76.6509 21.9922 74.7701 21.2355 73.2492 19.7224C71.7492 18.1888 70.9992 16.328 70.9992 14.14C70.9992 11.9725 71.759 10.1219 73.281 8.58829C74.8025 7.05463 76.6712 6.28789 78.89 6.28789C81.0671 6.28789 82.757 7.06493 83.9607 8.61896V6.7173ZM76.3234 17.1766C77.1689 17.9536 78.2354 18.3422 79.5243 18.3422C80.8131 18.3422 81.8692 17.9536 82.6939 17.1766C83.5388 16.3791 83.9607 15.3669 83.9607 14.14C83.9607 12.9335 83.5388 11.9418 82.6939 11.1648C81.8692 10.3673 80.8131 9.96853 79.5243 9.96853C78.2354 9.96853 77.1689 10.3673 76.3234 11.1648C75.4993 11.9418 75.0878 12.9335 75.0878 14.14C75.0878 15.3669 75.4993 16.3791 76.3234 17.1766ZM95.7504 9.35515C96.1306 8.37353 96.7539 7.63746 97.6202 7.14665C98.5074 6.65595 99.4894 6.41058 100.567 6.41058V10.8274C99.3205 10.6842 98.2006 10.9296 97.2081 11.5635C96.2359 12.1975 95.7504 13.2505 95.7504 14.7228V22.0535H91.6617V6.7173H95.7504V9.35515ZM115.871 20.1518C114.244 21.7059 112.258 22.4829 109.913 22.4829C107.568 22.4829 105.582 21.7059 103.955 20.1518C102.349 18.5773 101.546 16.6552 101.546 14.3854C101.546 12.1156 102.349 10.2037 103.955 8.64964C105.582 7.07512 107.568 6.28789 109.913 6.28789C112.258 6.28789 114.244 7.07512 115.871 8.64964C117.499 10.2037 118.312 12.1156 118.312 14.3854C118.312 16.6552 117.499 18.5773 115.871 20.1518ZM106.839 17.4219C107.663 18.2194 108.688 18.6182 109.913 18.6182C111.138 18.6182 112.163 18.2194 112.987 17.4219C113.812 16.6245 114.224 15.6123 114.224 14.3854C114.224 13.1585 113.812 12.1463 112.987 11.3488C112.163 10.5514 111.138 10.1526 109.913 10.1526C108.688 10.1526 107.663 10.5514 106.839 11.3488C106.036 12.1463 105.635 13.1585 105.635 14.3854C105.635 15.6123 106.036 16.6245 106.839 17.4219ZM138.412 6.7173H142.754L137.714 22.0535H133.816L130.901 12.7598L127.985 22.0535H124.087L119.048 6.7173H123.389L126.083 16.1337L128.967 6.7173H132.834L135.718 16.1643L138.412 6.7173ZM154.021 10.5206H150.44V16.9005C150.44 17.4322 150.578 17.8207 150.852 18.0661C151.127 18.3115 151.528 18.4546 152.057 18.4955C152.585 18.5159 153.24 18.5057 154.021 18.4649V22.0535C151.211 22.3602 149.226 22.1047 148.063 21.2867C146.922 20.4688 146.352 19.0067 146.352 16.9005V10.5206H143.594V6.7173H146.352V3.61936L150.44 2.42309V6.7173H154.021V10.5206ZM165.714 6.28789C167.447 6.28789 168.873 6.85023 169.993 7.97485C171.134 9.09953 171.705 10.6536 171.705 12.6371V22.0535H167.616V13.1278C167.616 12.1055 167.331 11.3284 166.761 10.7967C166.19 10.2446 165.429 9.96853 164.479 9.96853C163.423 9.96853 162.577 10.2856 161.944 10.9194C161.309 11.5533 160.993 12.5041 160.993 13.7719V22.0535H156.904V0.582809H160.993V8.43487C161.985 7.00359 163.559 6.28789 165.714 6.28789Z" fill="var(--fill-0, white)"/>
</svg>
