<svg preserveAspectRatio="none" width="100%" height="100%" overflow="visible" style="display: block;" viewBox="0 0 87 29" fill="none" xmlns="http://www.w3.org/2000/svg">
<g id="Frame 2684267">
<path id="Vector" d="M73.4374 28.6175C71.1866 28.6175 69.5439 27.9704 68.5092 26.676C67.4744 25.3558 66.957 23.5567 66.957 21.2787C66.957 18.8972 67.4744 16.1272 68.5092 12.9691C69.8802 8.69786 71.5748 5.47498 73.5926 3.30051C75.6103 1.12605 77.8354 0.0388184 80.2664 0.0388184C82.5177 0.0388184 84.1598 0.698924 85.195 2.01914C86.2303 3.31346 86.7473 5.09963 86.7473 7.37764C86.7473 9.7592 86.2303 12.529 85.195 15.6872C83.8236 19.9585 82.1293 23.1813 80.111 25.3558C78.0939 27.5303 75.869 28.6175 73.4374 28.6175ZM74.0581 23.6861C74.7566 23.6861 75.4939 23.026 76.27 21.7058C77.072 20.3856 78.0162 18.0429 79.1025 14.6776C80.2931 11.0535 80.8877 8.47782 80.8877 6.95051C80.8877 5.6303 80.4739 4.9702 79.6462 4.9702C78.9471 4.9702 78.1971 5.6303 77.3953 6.95051C76.6192 8.27072 75.688 10.6134 74.6015 13.9787C73.4115 17.5511 72.8164 20.1267 72.8164 21.7058C72.8164 23.026 73.2303 23.6861 74.0581 23.6861Z" fill="var(--fill-0, white)"/>
<path id="Vector_2" d="M59.1555 12.5032H67.5372L62.3374 28.1128H57.9526L58.3406 25.8994C57.6421 26.7537 56.9307 27.375 56.2064 27.7632C55.5079 28.1256 54.693 28.3068 53.7617 28.3068C52.1578 28.3068 50.9678 27.7245 50.1917 26.5596C49.4415 25.3688 49.0664 23.7379 49.0664 21.667C49.0664 19.1819 49.5968 16.2826 50.6574 12.9692C53.4772 4.32304 57.461 0 62.609 0C64.7045 0 66.2825 0.673048 67.3431 2.01915C68.4297 3.33936 69.0376 5.07375 69.1669 7.22233L63.6956 9.04733C63.5921 7.54591 63.3981 6.49751 63.1135 5.90212C62.8548 5.30673 62.4926 5.00904 62.0269 5.00904C61.1992 5.00904 60.3843 5.6562 59.5824 6.95052C58.8063 8.24485 57.862 10.5876 56.7496 13.9787C55.689 17.2404 55.1587 19.7254 55.1587 21.4341C55.1587 22.8578 55.5467 23.5697 56.3227 23.5697C57.0989 23.5697 57.8232 23.039 58.4958 21.9777C59.1684 20.9162 59.7635 19.609 60.2808 18.0558L60.3972 17.7064H57.4482L59.1555 12.5032Z" fill="var(--fill-0, white)"/>
<path id="Vector_3" d="M42.4835 17.4343C42.5353 17.2531 42.6517 16.839 42.8328 16.1918C43.0397 15.5446 43.2596 14.8975 43.4924 14.2504L47.9938 0.543457H53.6203L44.4626 28.1126H37.9435L38.7971 13.862C38.8488 12.9302 38.9007 12.1924 38.9524 11.6488C39.0041 11.0793 39.0429 10.7039 39.0688 10.5227C39.0171 10.7039 38.8877 11.1181 38.6808 11.7652C38.4997 12.4124 38.2928 13.0596 38.0598 13.7067L33.3257 28.1126H27.6992L36.857 0.543457H43.5313L42.7164 14.0951L42.4835 17.4343Z" fill="var(--fill-0, white)"/>
<path id="Vector_4" d="M31.1233 0.543457L27.1265 28.1126H21.2283L22.082 23.1423H17.1538L14.8256 28.1126H8.57812L22.858 0.543457H31.1233ZM23.0132 17.9392L24.5266 9.31898L25.1475 6.01845C24.6301 7.28689 24.1774 8.30941 23.7894 9.08599L19.6373 17.9392H23.0132Z" fill="var(--fill-0, white)"/>
<path id="Vector_5" d="M9.08021 7.41635C8.9768 9.15074 8.88614 10.2639 8.80859 10.7557C9.11904 10.0309 9.62344 9.03425 10.3219 7.76582L14.2412 0.543487H21.1095L9.23543 18.7546L6.13114 28.1126H0.000104866L3.25962 18.2886L3.33718 0.543487H9.39066L9.08021 7.41635Z" fill="var(--fill-0, white)"/>
</g>
</svg>
